<?xml version="1.0" encoding="UTF-8"?>
<svg id="Layer_2" data-name="Layer 2" xmlns="http://www.w3.org/2000/svg" viewBox="0 0 149.94 149.43">
  <defs>
    <style>
      .cls-1 {
        fill: #231f20;
      }

      .cls-2 {
        fill: #4ea8de;
      }
    </style>
  </defs>
  <g id="Layer_6" data-name="Layer 6">
    <path class="cls-2" d="M121.52,130.16l-18.4-.49c-5.22-.14-10.3,1.69-14.23,5.13l-13.76,12.03c-4.57,4-11.56,3.32-15.29-1.47l-11.88-15.29c-3.1-3.99-7.56-6.72-12.53-7.66l-18.95-3.6c-5.9-1.12-9.69-6.94-8.31-12.79l4.29-18.31c1.17-5,.45-10.25-2.02-14.74L1.31,56.33c-2.96-5.39-.71-12.16,4.9-14.7l16.48-7.47c4.79-2.17,8.58-6.08,10.6-10.94l6.95-16.71c2.36-5.68,9.06-8.15,14.54-5.36l16.91,8.6c4.57,2.33,9.84,2.88,14.8,1.55l18.16-4.86c5.81-1.55,11.74,2.04,13.04,7.91l4.19,18.82c1.1,4.94,3.96,9.31,8.05,12.28l15.65,11.4c4.91,3.57,5.8,10.54,1.95,15.24l-11.59,14.13c-3.31,4.04-4.98,9.17-4.68,14.39l1.07,18.38c.36,6.18-4.64,11.34-10.83,11.17Z"/>
    <g>
      <path class="cls-1" d="M36.08,68.92c.07.05.26.09.25.01l-.3-.15.05.14Z"/>
      <path class="cls-1" d="M36.83,68.66c-.12-.13-.35-.32-.66-.38.27.19.14.17.46.38.01.08-.14.08-.25.03.07.05-.11.08.08.19.27,0,.32-.11.16-.3.08,0,.15.05.21.08Z"/>
      <path class="cls-1" d="M41.06,63.49h-.06s.04,0,.06,0Z"/>
      <path class="cls-1" d="M44.55,61.36s-.02.06,0,.08c.02-.03.03-.06,0-.08Z"/>
      <path class="cls-1" d="M45.33,61.4s-.03,0-.05,0c.03.02.05.03.05,0Z"/>
      <path class="cls-1" d="M41.06,63.49h.15c-.06-.08-.1-.02-.15,0Z"/>
      <path class="cls-1" d="M36.45,67.45s.02.06.05.1c0-.02,0-.05,0-.07l-.05-.02Z"/>
      <path class="cls-1" d="M39.97,64.94l-.02.02s.05.07.08.11l-.06-.13Z"/>
      <path class="cls-1" d="M39.16,66.02s-.19-.19-.29-.27c.08.08.11.13.12.17.04.03.1.07.17.11Z"/>
      <path class="cls-1" d="M37.62,67.63l.02.05s-.01-.03-.02-.05Z"/>
      <path class="cls-1" d="M40.69,64.28s.06.05.08.06c-.02-.03-.05-.05-.08-.06Z"/>
      <path class="cls-1" d="M45.73,54.34s0-.03-.01-.05c0,.03,0,.05.01.05Z"/>
      <polygon class="cls-1" points="43.81 53.53 43.82 53.51 43.76 53.36 43.81 53.53"/>
      <path class="cls-1" d="M46.61,61.25h0s0,.03,0,0Z"/>
      <path class="cls-1" d="M59.83,60.16c-.59-.33-.12-.34-.86-.71.21.14.32.48.86.71Z"/>
      <path class="cls-1" d="M36.5,67.43s.01-.04.02-.06c-.02.02-.03.04-.02.06Z"/>
      <path class="cls-1" d="M58.97,59.45h0s-.07-.04-.07-.04c.03.02.05.02.07.04Z"/>
      <path class="cls-1" d="M49.31,60.32s-.03-.08-.05-.11c0,.03.02.06.05.11Z"/>
      <path class="cls-1" d="M47.12,60.48l.06.02s-.05-.02-.06-.02Z"/>
      <path class="cls-1" d="M50.35,59.72s.05.05.08,0c0-.01-.01-.02-.02-.03,0,.04-.02.06-.06.02Z"/>
      <path class="cls-1" d="M51.53,59.57s-.02-.04-.03-.05l-.04.02.06.04Z"/>
      <path class="cls-1" d="M49.01,53.96c-.02-.08-.03-.17-.03-.25,0,.2-.17.26.03.25Z"/>
      <path class="cls-1" d="M36.6,67.52c-.06-.04-.09-.06-.09-.09,0,.02,0,.03,0,.05.04.02.07.04.1.04Z"/>
      <path class="cls-1" d="M50.06,57.52h.21c-.06-.01-.14-.01-.21,0Z"/>
      <path class="cls-1" d="M56.32,56.7l-.04.02s0,0,.04-.02Z"/>
      <path class="cls-1" d="M50.87,57.41c.05.09.09.15.14.18,0-.02.01-.04.02-.08l-.15-.1Z"/>
      <path class="cls-1" d="M48.98,53.7h0s0,0,0,0Z"/>
      <path class="cls-1" d="M47.81,54.34c.16,0,.07-.36.1-.58.2-.11.1.27.16.46.12-.1.22-.43.32-.42,0,.06.02.08,0,.16.14-.3.39,0,.57-.35,0,.03.01.06.01.09-.01-.19,0-.37.01-.51.08,0,.17-.22.18.02-.05-.01-.06.08-.09.16l.09-.1c.04.35-.12.11-.14.37.17-.1.39-.36.5-.25-.01.34-.3.08-.17.4l-.17-.15c.09.55-.11-.05-.03.54.22.13.28-.15.51-.02.08-.18.02-.28.1-.46.4-.28.14.88.46.48.1-.21.21-.63.35-.37l-.14.36c.22.08.25-.52.44-.21-.08.14-.21.08-.19.13.09.33.16-.19.28-.16l-.05.34c.26,0,.59-.16.88-.14-.04.09-.12.18-.09.3.39-.06.71.28.94.59l.23-.23s0,.14-.05.18c.08.15.08-.17.18-.25.08.01.03.2-.05.26.31-.15.84-.22.94.17l-.08.06c.12.19.46-.44.51-.11l-.06.03c.33.3.88.3.94.85.27-.34.27.38.6-.11.06.38-.06.43.12.78.05.07.34-.22.42-.24l-.18.25c.08-.08.16-.15.25-.22-.07.1-.15.2-.23.29l.08-.04s.08-.11.14-.18c.18-.05-.04.24-.2.31.1-.03.22-.06.36-.06-.13.04-.2.06-.3.09.39-.11-.37.14,0,.04.08-.03.22-.07.3-.09-.2.09-.18.1-.03.12l-.31.04c-.06.02.23.04.29.09.17,0,.86.05.97.09l-.62-.05c.42.06.2,0,.73.08-.02.04-.72-.07-.94-.1l.26.05c-.2-.03-.31-.04-.56-.08.44.07-.68-.1.09.04l-.21-.04s.29.09.37.13c.73.2.58.18,1.22.38-.16,0-.74-.17-.63-.11.64.25.73.28,1.26.48-.77-.28-.64-.2-1.24-.45.27.14.34.17.72.37.33.14.48.2.75.31.09.05-.4-.15-.76-.31l-.07-.03s.06.03.09.05c.28.15-.38-.11-.83-.31-.47-.2-.75-.35-.24-.06l-.05-.03c.17.11.32.21.45.31-.14-.06-.34-.22-.69-.41.37.24.26.21.17.17-.1-.04-.2-.1-.05.05-.56-.42-.53-.4-.52-.35.02.05,0,.13-.16-.12l.12.18c.09.18-.08-.11-.11-.15.07.14.11.17.15.26-.05.1-.22.03-.37-.09-.38-.12-.76-.3-1.15-.37-.28-.05-.16.92-.51.5l.1-.33c-.55.4-1.16,0-1.69.38.03-.08.02-.18.08-.18-.13-.23-.43.02-.42.21-.09-.02-.03-.18-.09-.27-.13-.13-.27.33-.35.1-.01-.04.03-.08.05-.1-.07.12-.36,0-.26.27-.22-.11-.38.16-.56.02-.07.32-.37-.1-.35.34-.04-.45-.41-.32-.51-.08.02-.14-.13-.12-.11-.32-.15.03-.27.14-.21.36-.37-.49-.47.52-.75-.13-.39.33-.76.57-1.12.78-.1-.44.42-.15.29-.61-.33.28-.45.7-.84.69-.11-.03,0-.2.01-.29-.31.29-.72.16-.97.51-.01-.04,0-.1.03-.14-.06.04-.17-.01-.1.18l.04-.07c.19.25-.05.68,0,.83-.09-.59-.36-.03-.44-.79-.03.05-.05.16,0,.29-.07-.02-.12-.08-.11-.25-.19.19-.03.36-.23.43-.03-.09,0-.15-.03-.26-.03.22-.06.44-.26.43-.01-.06-.06-.12,0-.14-.28.15-.29.67-.67.64-.09-.43-.16-.08-.34-.41l-.12.18.15.13c-.15.06-.16.36-.33.32l.04-.19-.24.2.21.05c-.06.25.23.41,0,.42.02-.05-.14.07-.32-.09h0c-.01.14-.02.29-.17.26-.08-.09-.18-.37-.23-.43.08.3-.28.26-.2.6-.01-.08-.11-.25-.14-.28l.07.25c-.1-.03-.13-.06-.2-.2-.22.07.3.37-.03.33,0-.03-.02-.06,0-.11-.29.04-.35.4-.62.43-.27-.27.13-.2-.12-.41-.26.26-.36.78-.68.91h.08c.28.45-.36-.06-.35.24,0-.06-.14-.27-.11-.21-.25.07-.29.41-.46.76l-.06-.13c-.18,0-.33.18-.47.24.06.13-.02.17.15.28-.88-.25-.33.89-1.07.74.03-.04,0-.17-.03-.14l-.15.34c.19.13.14.06.32.13.07.12.08.26.03.33-.02-.22-.28-.25-.42-.28.06.04.1.11.16.15-.43-.13.33.33-.03.33l-.08-.09c-.01.11.06.28-.03.33-.23-.14-.04-.15-.2-.3-.08.12.22.52-.06.46-.03-.09.03-.16,0-.25-.33-.09-.28-.03-.38.03h.01s-.25.11-.25.11h.1c.46.56-.11.37.13.82-.22-.43-.18-.17-.42-.36-.1,0-.24.02-.29-.04.14.23-.26.06-.05.39-.09-.05-.07.1-.27-.05-.01.17.16.06.26.14.17.36-.64.25-.39.77.03.34.3.53.33.82-.18,0-.29-.22-.29-.22-.19.06-.21.17-.16.34-.07-.06-.14-.06-.26-.07-.02.11.3.21.11.28-.09-.06-.24-.16-.32-.26.03.15.15.34.18.49-.17-.03-.21-.17-.29-.26,0,.16,0,.41.23.55l.12-.05c0,.05-.22-.06-.26-.11-.16-.2.15-.13.25-.1l.02.11c.57.13.06-.37.17-.53l.35.24-.24-.31c.11,0,.34.08.36.19.24-.03-.09-.17.16-.17.04,0,.05.02.06.04l-.06-.16c.07.06.27.11.18.15.32-.08-.11-.45.21-.38v.03c.03-.34-.24-.17-.45-.55l.73.23-.25-.18s.08-.06.18,0c-.12-.21-.13-.05-.26-.21.32.01.12-.43.54-.2-.17-.17-.23.03-.28-.2.46.25.02-.21.3-.19.2.19,0,.21.28.24-.33-.32.24-.16.23-.3-.29-.22.03-.29.04-.52.09.08.39-.16.6-.21l.04.04c-.26-.26-.09-.36-.06-.52.16.15.21.23.24.35l.08-.1c-.07-.1-.09-.17-.06-.26l.18.21c.1-.13,0-.47.28-.5-.17-.19-.63-.37-.59-.66.1.09.28.25.28.34,0-.03-.03-.13.04-.12l.1.23c.14,0-.1-.18-.03-.22.14.14.14.06.24.18,0,.03-.11-.01-.07.07.09-.04.25-.03.38.05-.08-.08-.19-.19-.16-.25.11-.13.21.13.35.14-.06-.13.11-.1-.09-.31.04-.03.14.06.2.11-.03-.16.27-.3,0-.47h-.03s0-.01,0-.02h0s0,0,0,0c.03-.41.57-.26.71-.54l.06.08c.07-.19.26-.28.24-.53.04-.03.2.07.25.18.06-.14,0-.24.26-.21-.01.21.12.1-.04.18.19-.02.31.09.31-.24.09.24.28.2.31.09l-.2-.09c.05-.08.13-.11.21-.13l.14.3c.49.16.17-.91.73-.46-.04-.25-.24-.05-.31-.32.16-.04.53.29.58.27.27.06-.06-.52.2-.51-.08-.09-.25-.36-.15-.54.17-.04.4.35.35.48-.03.03-.06,0-.08-.04-.03.06-.06.14.05.22l-.04-.12c.12.07.31-.04.35.16.06-.15-.04-.2-.15-.21.26.07.29-.13.52-.11-.06-.05-.14-.16-.11-.17.34,0,.03-.26.2-.4.18.12.13.41.27.19.17.07.15.28.14.39.08-.28.38,0,.49,0l-.05.12c.03-.07.08-.09.12-.11l-.14-.2c.07.02.11,0,.15.09,0-.17-.19-.35-.15-.59.11.08.18-.21.31.08-.27-.02.13.29-.04.4.02-.05.07-.06.14-.04.02.03.01.06,0,.09.31.19-.02-.37.21-.44.03.18.16.3.19.25-.09.03-.14-.26-.1-.42.19.08.13-.15.21-.16l-.11-.03c-.02-.18.06-.19.15-.27.05.13-.07.12-.01.17.03-.33.36.23.46-.02.11.09.1.32.19.38.12-.27.26.17.4-.06-.12-.22-.11-.16-.04-.42-.09.08-.18.16-.27.25l.11-.39c-.1.02-.16.2-.23.18.04-.22.05-.16-.05-.33.23.3.21-.28.43-.08l.14.57c.29.2.33-.4.66-.32l-.12-.08c-.01-.24.18-.07.26-.18.03.2.11.25.17.36-.03-.14.22-.03.17-.42l.18.23c.26.06.18-.6.43-.58-.04.22.09.34-.04.52.08-.01.15.01.13-.12.07.11.18-.3.28-.13.02-.09,0-.3.09-.3.02.04.01.1.01.1-.01-.1.12-.15.01-.36.33.58.69-.14.97.37.17-.08.37-.17.53-.19,0,.06,0,.1-.02.08.23.16.09-.58.36-.39.15.31-.12.18-.03.3.08.65.3-.11.49.26l-.04.04c.14.21.3-.27.51-.23,0,0,0,.06,0,.1.13-.34.4-.45.61-.55-.06.26-.09.14-.05.39.09-.04-.04-.41.15-.49.06.14.2.26.22.54l-.17.02c.09.36.22-.01.31.05v.16c.25-.05.25-.44.54-.42l-.03-.12c.16-.39.13.22.29-.06l.04.4c.1-.09.37-.37.55-.44-.12.29-.33.43-.47.61.1,0,.34-.02.4-.21-.04.04-.1.13-.13.07.12-.31.31-.46.56-.43.01.38.21.44.45.48.24.04.48.06.76.38.44-.23,1.29.23,2.11.3-1.03-.72.2,0-.68-.71.08-.03.15-.01.22.04.32.16.67.33,1.05.5.43.23.06.14.3.31.5.11.61.34,1.21.59-.46-.28-.42-.37,0-.23l-.88-.4c-.03-.17.32,0,.72.19.39.18.82.37.77.21l.23.23c.06-.1,1.3.19.22-.46.24.11.79.35.78.4.75.16.38-.22.68-.21-.06-.07-.01-.08.19-.02l.48.22c-.19-.12-.91-.44-.5-.31.18.08.45.2.45.19-.08-.04-.28-.15-.46-.24-.17-.1-.34-.2-.27-.2l.54.26c.05-.22-1.73-1.01-2.25-1.34,1.05.36,1.04.15,1.02.04l.14.05c-.43-.46-1.65-.99-2.37-1.39.6-.12-.57-.77-.66-1.2-.03.08-.51.03-.65-.02,0-.11-.7-.17-.16-.25l.03.03c.43-.16.04-.36-.16-.52l-.63.18c.2-.33-.25-.59-.63-.75-.38-.17-.69-.28-.64-.66-.16.06-.26-.01-.41.05l.16-.24c-.19-.21-.29-.31-.61-.43l.16-.14c-.15-.12-.63.58-.78.51l.17-.39c-.28-.16-.41-.65-.88-.46.03-.05.1-.16.15-.15-.13-.08-.42-.53-.62.02.16-.34-.3-.18-.52-.1l.14-.24c-.28.26-.33.35-.56.36-.03-.05.05-.22.08-.13-.09-.2-.22.19-.35-.02l.14-.14c-.15-.09-.17,0-.33.17-.14.07-.27-.18-.21-.42-.08.14-.23.3-.3.19.02-.09.07-.14.1-.16-.21-.28-.5.17-.6-.15.02-.09.03-.14.02-.17.21.08.38.15.36.16.08-.24-.08-.34.18-.63-.21.14-.58.45-.72.29,0-.03,0-.05,0-.09l.03-.02s-.08-.02-.12,0c-.04-.06-.07-.1-.12-.12.04-.21-.18-.17-.27-.2-.06.27-.17.2-.12.45,0-.02.03-.03.09-.02.02,0,.03,0,.05-.02v.02s.12.03.21.04c-.11.12-.21.21-.27.03-.09.16-.19.33-.24.41-.02-.41-.21-.67-.19-.92-.31.09-.68-.03-.94.45-.09.06-.06-.16-.08-.25.05-.05.11-.03.14-.1-.18.11-.48-.02-.56.34-.17-.19.16-.32-.12-.3l.05-.11c-.5-.65-.94.85-1.49.08.04.05.06.07.07.13-.69-.35-1.37.34-2.09-.09-.21-.08-.19.16-.28.35l-.09-.29-.13.38c-.21.3-.65-.62-.88-.05l.1.18c-.14,0-.35.23-.4,0,0,.04.03.21-.06.13l-.05-.15-.21.36c-.27-.02-.18-.6-.54-.49-.11.11-.18.57-.09.65.05-.01.17.04.23.18l-.08.12c.16.44.29.9.65,1.1l.06-.33.13.19-.13.07c.16.17.13-.03.14-.17.06.11.11.18.15.21v-.47c.09.17.06.37.2.42.01-.22-.21-.36-.12-.53.15.17.18.35.22.14.05.11.05.19.03.25.04-.17.2-.13.18-.38.16.23.28-.14.38.29,0-.11.07-.38.15-.41-.03.54.31-.03.38.53.01-.49.34-.27.5-.56,0,.04-.02.12-.04.1.11.02.16.16.24.24-.03-.39.13-.5.21-.75.17.36-.04.47.03.82-.04-.32.2-.34.14-.6.12.22.1.11.17.43,0-.49.09-.09.16-.39.16.24.05.46.21.3.08.15-.06.33-.06.33ZM51.83,54.06h0s-.07,0-.09,0c.02,0,.04,0,.09,0ZM52.16,54.16s-.09-.04-.14-.06c.02-.1.06-.19.09-.17-.04.06.02.14.05.23ZM51.97,52.07c.07-.02.08.04.07.1-.03,0-.07,0-.11,0l-.02.03c.02-.05.04-.1.06-.13Z"/>
      <path class="cls-1" d="M51.77,52.4s-.02.01-.03.01c0,.03.01.05.02.07l.04-.08h-.03Z"/>
      <path class="cls-1" d="M40.99,63.49h0s-.02,0-.04-.02c.01,0,.02.01.03.02Z"/>
      <polygon class="cls-1" points="56.14 56.75 56.18 56.69 56.13 56.73 56.14 56.75"/>
      <path class="cls-1" d="M38.88,64.24s-.05-.02-.07-.03c.01.01.04.02.07.03Z"/>
      <path class="cls-1" d="M38.26,64.89l-.16.04c.08-.01.12-.03.16-.04Z"/>
      <path class="cls-1" d="M37.74,65.38s.06.06.09.08h0s-.09-.08-.09-.08Z"/>
      <path class="cls-1" d="M46.49,58.7s.02-.01.02-.02c.04-.07,0-.04-.02.02Z"/>
      <path class="cls-1" d="M43.73,60.59c0-.06.01-.12.03-.17-.06,0-.1.02-.03.17Z"/>
      <polygon class="cls-1" points="50.04 57.52 50.04 57.53 50.06 57.52 50.04 57.52"/>
      <path class="cls-1" d="M43.89,60.36c-.08-.02-.11.01-.14.07.05,0,.11,0,.14-.07Z"/>
      <path class="cls-1" d="M36.18,68.03l-.02.03s.03.01.04.02l-.02-.05Z"/>
      <path class="cls-1" d="M36.2,68.08l.02.05s0-.03-.02-.05Z"/>
      <path class="cls-1" d="M36.25,68.23l-.04-.1s-.03.06.04.1Z"/>
      <path class="cls-1" d="M36.67,67.22l-.09-.05s.04.03.09.05Z"/>
      <path class="cls-1" d="M36.77,66.95c-.05.05-.28.05-.26.17l.07.04c-.12-.11.31-.08.19-.21Z"/>
      <path class="cls-1" d="M38.43,66.58l-.19.14c.11.02.26.06.24.15.42-.06-.24-.08-.05-.29Z"/>
      <path class="cls-1" d="M38.93,66.11c-.03.12.13.09.18.13-.04-.11-.05-.14-.18-.13Z"/>
      <path class="cls-1" d="M42.32,62.72l.14.21c.05-.08-.06-.08-.14-.21Z"/>
      <polygon class="cls-1" points="42.38 61.08 42.21 61 42.3 61.22 42.38 61.08"/>
      <polygon class="cls-1" points="43.81 62.34 43.8 62.39 43.87 62.24 43.81 62.34"/>
      <path class="cls-1" d="M51.35,59.84l-.06-.31c-.05.06-.02.42.06.31Z"/>
      <path class="cls-1" d="M54.87,59.34c.04.16.14.26.2.11-.08-.02-.16-.15-.2-.11Z"/>
      <polygon class="cls-1" points="58.99 55.68 59.2 55.71 58.92 55.6 58.99 55.68"/>
    </g>
    <g>
      <path class="cls-1" d="M110.1,55.36c.06-.07.12-.25.05-.24l-.18.29.13-.04Z"/>
      <path class="cls-1" d="M109.94,54.63c-.13.12-.33.35-.4.65.19-.27.16-.14.38-.45.08-.01.06.14,0,.25.06-.07.07.1.18-.07.02-.27-.08-.32-.26-.16,0-.08.06-.15.09-.2Z"/>
      <path class="cls-1" d="M103.85,52.27l.03.05s-.02-.04-.03-.05Z"/>
      <path class="cls-1" d="M99.83,51.57s.05-.04.05-.07c-.03.02-.06.04-.05.07Z"/>
      <path class="cls-1" d="M99.15,51.17s.03.02.04.02c-.01-.03-.03-.05-.04-.02Z"/>
      <path class="cls-1" d="M103.85,52.27l-.09-.12c-.03.1.04.09.09.12Z"/>
      <path class="cls-1" d="M108.82,55.04s.05-.03.08-.06c-.02,0-.04.01-.06.01l-.02.05Z"/>
      <path class="cls-1" d="M105.67,52.39h.03s.04-.07.06-.12l-.09.12Z"/>
      <path class="cls-1" d="M107.03,52.7s-.12.24-.16.36c.05-.11.09-.15.12-.16.02-.05.03-.11.04-.2Z"/>
      <path class="cls-1" d="M108.95,53.87l.05-.02s-.03.01-.05.02Z"/>
      <path class="cls-1" d="M104.72,52.09s0-.08,0-.1c0,.03,0,.07,0,.1Z"/>
      <path class="cls-1" d="M84.45,47.47s.02.03.03.04c-.01-.03-.02-.04-.03-.04Z"/>
      <polygon class="cls-1" points="86.58 47.6 86.57 47.62 86.66 47.75 86.58 47.6"/>
      <path class="cls-1" d="M97.86,50.78h0s.02-.02,0,0Z"/>
      <path class="cls-1" d="M86.17,52.97c.21.19-.1.37.19.57-.06-.1.03-.47-.19-.57Z"/>
      <path class="cls-1" d="M108.8,55s-.04,0-.05-.02c.02.02.04.02.05.02Z"/>
      <path class="cls-1" d="M86.35,53.54h0s.03.02.03.02c-.01,0-.02-.01-.03-.02Z"/>
      <path class="cls-1" d="M94.87,51.06s.03.09.04.12c0-.03-.01-.06-.04-.12Z"/>
      <path class="cls-1" d="M97.1,51.35l-.06-.04s.04.03.06.04Z"/>
      <path class="cls-1" d="M93.76,51.57s-.05-.05-.08-.01c0,.01.01.02.02.03.01-.04.03-.06.07-.02Z"/>
      <path class="cls-1" d="M92.58,51.73s.02.04.03.05l.04-.02-.07-.03Z"/>
      <path class="cls-1" d="M81.88,50.23c.08.03.16.07.23.12-.17-.11-.11-.3-.23-.12Z"/>
      <path class="cls-1" d="M108.88,54.9c-.03.06-.05.09-.07.1.01,0,.03,0,.04,0,.02-.04.03-.07.03-.1Z"/>
      <path class="cls-1" d="M93.97,53.78l-.18-.02c.05.02.12.03.18.02Z"/>
      <path class="cls-1" d="M77.34,60.3l-.06.05s0,.02.06-.05Z"/>
      <path class="cls-1" d="M93.28,53.87c-.05-.09-.09-.15-.13-.18,0,.02-.01.04-.01.07l.14.1Z"/>
      <path class="cls-1" d="M82.11,50.35h0s0,0,0,0Z"/>
      <path class="cls-1" d="M82.48,48.94c-.14.13.2.31.33.49-.08.23-.27-.11-.46-.18-.02.17.16.48.08.55-.05-.03-.08-.03-.12-.1.12.3-.28.34-.1.71-.03-.01-.06-.03-.08-.04.16.1.31.21.41.3-.05.07.09.26-.12.13.04-.03-.04-.1-.08-.17l.03.13c-.32-.16-.02-.17-.22-.33-.02.2.08.53-.07.57-.28-.19.1-.3-.24-.36l.23-.07c-.51-.22.11-.07-.43-.32-.25.15-.06.34-.3.49.11.16.23.15.35.32.05.5-.86-.27-.67.22.14.19.47.46.18.49l-.28-.28c-.18.19.37.43,0,.51-.1-.12,0-.24-.05-.23-.35-.03.11.22.04.33l-.3-.17c-.06.13-.07.29-.08.46l-.03.25c-.02.1-.06.21-.1.31-.08-.06-.13-.18-.29-.13-.13.59-.66,1.1-1.16,1.7.09.05.17.1.26.14-.02.04-.2.12-.25.08-.23.24.22-.04.32.02-.02.1-.27.2-.35.15.12.32.31.66-.24,1.21h-.09c-.26.37.7-.18.25.26h-.06c-.36.67-.17.92-.94,1.93.59-.5-.46.86.41.03-.54.77-.67.84-1.13,1.69-.08.19.5-.41.63-.5l-.52.59.57-.55-.67.85.14-.09c.04-.08.26-.38.43-.57.17-.14.01.14-.26.53-.09.15-.21.35-.34.5l1.12-1.05c-.24.3-.42.47-.65.72.92-.98-.53.73.31-.16.08-.14.34-.44.46-.59-.18.34.19.1.56-.24l-.36.49c.43-.22,1.2-.89,1.74-1.22-.12-.05.29-.75.44-.88l-.22.53c.26-.4-.04-.12.35-.66.13-.04-.16.55-.37.81l.33-.34c-.06.15-.15.27-.26.49.23-.39.26.23.62-.42l-.04.14c.6-.37.9-.69,1.36-1,.02-.34.19-.38.29-.68.27-.05.67-.01,1.05-.21.08-.2-.06-.23-.07-.42.12.23.32.11.29.32.23-.16.29-.2.52-.54-.08-.08-.13-.1-.15-.19.04-.07.17.04.22.15v.03c.2-.53,1.12.35,1.19-.27v.03s.19-.38.19-.38c.15-.01-.01.21.15.32.17-.52.52-.15.7-.51.46.64.73-.29,1.16.07l-.07-.16c.02-.19.12.07.18.09-.05-.13-.13-.13-.11-.23.55-.43,1.37-.13,2.04-.14.24-.01-.08-.93.31-.59v.34c.38-.51.97-.19,1.38-.62-.01.08,0,.18-.04.19.14.22.37-.06.34-.25.08,0,.05.17.11.26.12.12.2-.35.29-.13.02.04-.02.08-.03.1.05-.13.31-.02.2-.28.2.11.33-.17.49-.02.05-.32.33.11.3-.33.05.45.36.32.45.09-.02.14.12.13.09.32.13-.02.24-.12.19-.35.29.5.44-.49.64.2.36-.27.71-.46,1.06-.59.01.45-.39.07-.34.54.32-.21.49-.61.83-.52.09.06-.04.2-.07.28.32-.21.64.03.93-.22,0,.04-.03.09-.06.12.06-.02.14.07.13-.14l-.06.06c-.1-.3.23-.62.24-.78-.1.59.3.15.14.89.04-.04.09-.14.08-.27.06.04.08.12.02.28.21-.11.14-.33.33-.33,0,.1-.04.14-.06.25.1-.19.2-.39.36-.31-.01.06,0,.14-.04.14.28-.03.49-.49.79-.29-.11.43.1.15.1.52l.17-.1-.06-.18c.14.01.28-.25.4-.12l-.12.15.27-.06-.14-.15c.16-.18.01-.47.2-.36-.04.04.15.01.2.24h0c.08-.11.16-.23.26-.14.02.12-.06.41-.04.49.1-.31.34-.05.46-.37-.04.07-.06.27-.05.31l.08-.25c.06.09.06.13.04.28.19.07-.02-.48.2-.25-.02.02-.02.06-.06.09.23.13.48-.11.68.04.02.38-.2.07-.17.39.32-.03.71-.37,1-.24l-.05-.05c.12-.52.19.3.38.08-.04.03-.1.28-.08.23.19.12.44-.05.79-.16l-.06.13c.1.14.31.13.43.21.07-.13.14-.09.13-.29.25.82.86-.24,1.08.48-.04,0-.13.09-.1.1l.33-.05c.03-.23,0-.15-.03-.34.07-.12.18-.2.26-.19-.18.11-.09.36-.06.5,0-.07.05-.14.06-.21.06.44.14-.44.29-.12l-.04.11c.1-.04.21-.18.29-.12-.03.27-.12.1-.18.31.13.02.38-.43.42-.14-.07.06-.15.04-.22.1.04.33.07.26.15.33h0s.16.19.16.19l-.03-.1c.35-.62.34-.02.68-.39-.33.35-.11.23-.21.51.03.1.08.21.03.29.17-.2.1.23.34-.06-.02.09.1.04,0,.27.15-.03.02-.17.07-.28.3-.25.32.53.74.18.3-.1.45-.39.73-.45.02.18-.18.31-.18.31.07.18.16.19.32.13-.05.07-.06.15-.06.26.1.01.19-.31.25-.13-.06.09-.15.24-.23.33.14-.04.31-.17.45-.21-.03.17-.16.21-.24.3.15-.02.37-.02.51-.25l-.04-.12s-.06.22-.12.26c-.18.15-.11-.15-.08-.24l.1-.03c.13-.56-.35-.04-.49-.13l.22-.36-.29.26c0-.11.06-.34.16-.37-.04-.24-.15.1-.17-.16,0-.04.01-.05.03-.07l-.15.07c.05-.07.08-.28.13-.2-.12-.3-.43.16-.4-.16l.03-.02c-.33.04-.13.28-.46.55l.1-.76-.13.28s-.08-.06-.03-.17c-.18.16-.02.13-.15.3-.05-.31-.43,0-.31-.47-.12.2.08.21-.12.32.12-.51-.2.03-.26-.24.12-.25.2-.07.14-.34-.21.41-.22-.18-.36-.13-.11.35-.28.06-.5.13.05-.11-.3-.28-.44-.45l.02-.06c-.13.35-.29.23-.44.28.06-.21.1-.29.2-.37l-.12-.03c-.06.11-.11.16-.2.18l.1-.26c-.17-.03-.41.23-.58,0-.07.25,0,.74-.25.85.02-.14.07-.37.14-.41-.02.01-.09.1-.12.03l.14-.21c-.07-.12-.09.18-.16.14.04-.19-.03-.15.02-.3.02-.01.05.1.1.03-.08-.06-.16-.2-.16-.35-.02.11-.06.26-.13.27-.17-.02,0-.24-.08-.36-.07.13-.15-.03-.21.26-.05-.01-.03-.15-.03-.23-.11.11-.41-.04-.37.29l.02.02h-.02s0,.01,0,.01h0c-.33.24-.55-.27-.85-.2l.02-.1c-.19.08-.38,0-.53.19-.05,0-.09-.19-.05-.31-.14.06-.17.17-.33-.02.15-.16-.02-.16.15-.11-.16-.1-.17-.27-.39-.02.09-.24-.09-.33-.18-.27l.1.19c-.09.03-.17,0-.25-.04l.08-.33c-.31-.44-.7.61-.89-.09-.11.22.17.19.07.45-.15-.06-.28-.56-.33-.56-.21-.2-.24.47-.46.34.02.12.03.44-.15.54-.15-.05-.16-.51-.06-.6.04,0,.05.03.05.07.05-.04.13-.09.07-.22l-.03.12c-.07-.13-.29-.12-.23-.32-.13.11-.06.19.02.26-.2-.18-.32-.02-.53-.15.03.07.06.21.02.21-.3-.16-.15.22-.36.26-.11-.19.06-.43-.16-.29-.13-.13-.02-.32.04-.41-.2.21-.36-.16-.47-.2l.11-.1c-.06.06-.11.06-.16.06l.06.24c-.06-.04-.11-.04-.11-.14-.06.16.04.39-.08.61-.08-.12-.24.13-.27-.18.25.11-.03-.32.19-.37-.04.04-.09.04-.15,0,0-.04,0-.07.03-.08-.24-.28-.11.36-.36.35.03-.18-.06-.34-.1-.3.1,0,.05.3-.04.43-.16-.14-.17.1-.25.09l.1.06c-.03.18-.11.15-.22.21-.01-.14.1-.1.06-.16-.11.31-.28-.32-.45-.11-.08-.12-.02-.33-.09-.41-.19.23-.22-.23-.42-.03.07.23.08.18-.05.42l.32-.19-.2.36c.1,0,.2-.17.27-.13-.09.2-.09.14-.03.33-.15-.35-.26.23-.43,0l-.03-.59c-.26-.25-.41.33-.73.21l.11.1c-.02.24-.19.05-.28.15,0-.2-.07-.26-.13-.38.02.15-.23,0-.22.4l-.16-.25c-.26-.09-.23.58-.47.55.05-.22-.08-.35.07-.52-.08,0-.16-.02-.14.12-.06-.12-.19.29-.28.12-.02.09,0,.3-.1.29-.01-.04-.01-.1-.01-.1.01.1-.12.15-.02.36-.32-.58-.67.13-.96-.36-.16.09-.36.17-.51.22,0-.06-.02-.1.02-.08-.25-.14-.04.58-.31.43-.18-.29.1-.2,0-.3-.15-.63-.28.14-.51-.2l.03-.05c-.17-.19-.26.3-.47.3,0,0,0-.06-.02-.1-.07.35-.31.51-.49.64,0-.26.06-.15-.03-.39-.08.05.12.4-.04.51-.09-.12-.24-.21-.32-.47l.16-.06c-.16-.33-.21.07-.31.03l-.03-.15c-.24.12-.15.5-.43.54l.06.11c-.05.41-.18-.18-.25.14l-.15-.37c-.07.12-.24.46-.39.57.02-.31.18-.5.27-.71-.1.02-.32.11-.32.31.03-.05.05-.15.11-.1-.04.33-.15.52-.34.56-.18-.75-.54-.03-.86-.55-.25.38-.71.11-1.09.28.34.52-.11.05.12.62-.08.07-.11.07-.14.03-.13-.09-.27-.17-.4-.24-.13-.14.04-.16-.02-.29-.21.03-.17-.21-.36-.31.1.19.04.32-.1.29l.26.2c-.16.41-.42-.38-.58.03l.02-.21c-.1.16-.53.21-.48.72-.05-.06-.15-.2-.1-.26-.38.06-.55.79-.92.64l-.04-.15c-.04.07,0,.31-.13.21-.02-.06-.04-.15-.07-.14-.01.06-.05.32-.17.28v-.19c-.21-.01-.29.14-.34.32-.04.18.03.34-.05.43-.12-.43-.2-.55-.22-.62v-.07c-.01-.05-.13.48-.4.82.09-.31.08-.37.06-.38-.02-.01-.08.02.05-.2-.08.14-.4.61-.48.7.09-.15-.48.62.05-.14h0c.5-.72.34-.52.34-.52l-.8,1.06c.42-.59.42-.6.28-.46-.18.19-.72.75.11-.21-.3.34-.27.27-.55.55l.59-.64c.17-.22.24-.29.12-.21l.4-.38c-.14.13-.42.39-.78.72-.4.36-.8.71-.8.68l.81-.73c.03-.12.7-.64.07-.24.1-.06.26-.17.34-.22.04-.06.5-.36-.43.18.61-.34.09-.1-.12-.08l.41-.17c-.51.19-.65.23-.73.18.06-.04.32-.12.21-.06.24-.13-.33.05-.08-.11l.22-.03c.06-.08-.07-.04-.31-.03-.11-.04.18-.2.48-.21-.18,0-.39-.04-.28-.09.11,0,.17.02.2.02.27-.08-.23-.25.1-.28.09.03.14.04.17.04-.05.08-.11.15-.13.14.28.03.34,0,.71.09-.21-.02-.58-.24-.42-.26.02,0,.05.02.08.03l.02.02s.01-.02-.02-.05c.04.01.09,0,.11-.04.19.1.19-.09.24-.15-.24-.15-.15-.21-.39-.25.02,0,.02.03,0,.08,0,.01,0,.03,0,.04l-.02-.02s-.05.11-.09.18c-.09-.13-.16-.25.02-.24-.13-.13-.26-.27-.32-.34.39.12.68.07.9.18,0-.28.22-.52-.11-.95-.01-.1.17.03.25.05.02.06-.02.1.03.16-.03-.19.2-.36-.07-.61.24-.04.21.29.31.06l.07.09c.75.02-.25-1.2.68-1.1-.06,0-.09,0-.14-.04.63-.22.63-1.12,1.42-1.14.19-.04.05-.22,0-.42l.23.2-.1-.38c.03-.36.8.28.74-.28l-.16-.13c.11-.04.21-.32.34-.12-.01-.04-.1-.19,0-.13l.1.12.06-.38c.24-.03.35.52.61.37.05-.11,0-.57-.09-.63-.04.02-.15,0-.25-.14l.04-.13c-.25-.39-.44-.84-.86-.94v.35s-.18-.15-.18-.15l.13-.11c-.2-.12-.14.07-.12.22-.08-.09-.16-.14-.21-.15l.11.47c-.13-.13-.15-.34-.31-.34.05.22.32.27.28.47-.2-.11-.29-.26-.26-.05-.09-.08-.11-.16-.11-.23,0,.18-.17.21-.06.44-.24-.14-.22.26-.49-.09.04.1.09.38.03.45-.22-.51-.28.2-.62-.26.22.44-.2.45-.18.8-.02-.04-.05-.11-.02-.1-.12.06-.24-.02-.36-.03.26.29.18.49.28.73-.37-.17-.26-.39-.55-.62.23.22.04.41.26.56-.25-.08-.15,0-.42-.19.34.36-.02.14.13.41-.29-.05-.36-.29-.38-.05-.17-.04-.18-.28-.18-.28ZM80.47,52.99h0s.04-.09.05-.11c0,.02-.02.06-.05.11ZM80.23,53.43c.04-.05.08-.12.11-.19.1.02.19.06.16.1-.05-.04-.16.04-.28.08ZM82.37,53.61c0,.06-.05.05-.1.03,0-.02.02-.05.02-.09l-.03-.02s.08.06.11.09Z"/>
      <path class="cls-1" d="M82.11,53.34s0-.02,0-.03c-.03,0-.05,0-.07,0l.06.06v-.03Z"/>
      <path class="cls-1" d="M103.89,52.32h0s0,.02,0,.03c0-.01,0-.02,0-.03Z"/>
      <polygon class="cls-1" points="77.12 60.28 77.24 60.14 77.14 60.23 77.12 60.28"/>
      <path class="cls-1" d="M105.54,53.68s0,.05,0,.08c0-.02,0-.05,0-.08Z"/>
      <path class="cls-1" d="M106.3,53.93l.08.13c-.03-.07-.06-.11-.08-.13Z"/>
      <path class="cls-1" d="M106.85,54.25s.03-.08.05-.11h0s-.05.11-.05.11Z"/>
      <path class="cls-1" d="M97.18,53.23s-.02,0-.02.01c-.05.05-.02.03.02-.01Z"/>
      <path class="cls-1" d="M100.12,52.66s-.07.1-.1.13c.05.02.09.03.1-.13Z"/>
      <polygon class="cls-1" points="93.99 53.78 93.99 53.78 93.97 53.78 93.99 53.78"/>
      <path class="cls-1" d="M99.88,52.77c.05.06.09.05.14.01-.04-.02-.09-.05-.14-.01Z"/>
      <path class="cls-1" d="M109.32,55.27l.02.02s.01-.03.02-.04l-.04.02Z"/>
      <path class="cls-1" d="M109.36,55.25l.04-.02s-.03,0-.04.02Z"/>
      <path class="cls-1" d="M109.5,55.19l-.09.04s.05.03.09-.04Z"/>
      <path class="cls-1" d="M108.61,54.85l-.04.09s.03-.05.04-.09Z"/>
      <path class="cls-1" d="M108.37,54.78s.06.26.16.23l.04-.07c-.09.13-.08-.3-.2-.16Z"/>
      <path class="cls-1" d="M107.78,53.26l.18.14c0-.11,0-.27.1-.26-.16-.39-.02.25-.28.12Z"/>
      <path class="cls-1" d="M107.19,52.9c.13-.01.04-.15.07-.21-.1.07-.12.09-.07.21Z"/>
      <path class="cls-1" d="M102.44,51.84l.05-.25c-.1.03-.01.1-.05.25Z"/>
      <polygon class="cls-1" points="101.36 53.04 101.43 53.21 101.49 52.98 101.36 53.04"/>
      <polygon class="cls-1" points="101.02 51.17 101.06 51.14 100.9 51.21 101.02 51.17"/>
      <path class="cls-1" d="M92.75,51.45l.07.31c.05-.06.02-.42-.07-.31Z"/>
      <path class="cls-1" d="M89.33,52.47c-.08-.14-.2-.22-.22-.05.08,0,.19.1.22.05Z"/>
      <polygon class="cls-1" points="82.03 54.75 82.21 54.53 82.05 54.72 82.03 54.75"/>
    </g>
    <g>
      <path class="cls-1" d="M101.32,76.61c-.06-.07-.24-.15-.25-.06l.26.21v-.15Z"/>
      <path class="cls-1" d="M100.52,76.76c.09.16.28.4.57.5-.23-.24-.1-.19-.38-.47,0-.09.16-.06.26,0-.06-.07.13-.07-.03-.21-.28-.04-.35.07-.24.29-.08-.01-.14-.08-.19-.12Z"/>
      <path class="cls-1" d="M95.52,82.46h.06s-.04,0-.06,0Z"/>
      <path class="cls-1" d="M91.91,85.4s.01-.06,0-.09c-.01.04-.02.07,0,.09Z"/>
      <path class="cls-1" d="M91.07,85.58s.03,0,.05,0c-.03-.01-.06-.02-.05,0Z"/>
      <path class="cls-1" d="M95.52,82.46l-.16.02c.07.08.1,0,.16-.02Z"/>
      <path class="cls-1" d="M100.65,78.09s-.01-.07-.04-.11c0,.03,0,.05,0,.08l.04.03Z"/>
      <path class="cls-1" d="M96.7,80.77l.02-.03s-.05-.07-.08-.11l.06.14Z"/>
      <path class="cls-1" d="M97.64,79.52s.18.2.27.29c-.08-.09-.11-.14-.11-.18-.04-.03-.1-.07-.17-.11Z"/>
      <path class="cls-1" d="M99.49,77.78v-.06s0,.04,0,.06Z"/>
      <path class="cls-1" d="M95.91,81.56s-.06-.05-.08-.06c.03.02.05.04.08.06Z"/>
      <path class="cls-1" d="M54.93,88.44s.02-.03.03-.04c-.02.02-.04.03-.03.04Z"/>
      <polygon class="cls-1" points="54.16 86.23 54.19 86.23 54.29 86.1 54.16 86.23"/>
      <path class="cls-1" d="M89.69,86.1h0s0-.03,0,0Z"/>
      <path class="cls-1" d="M77.71,90.97c.19.23-.19.35.07.6-.04-.11.14-.46-.07-.6Z"/>
      <path class="cls-1" d="M100.6,78.1s-.02.04-.03.06c.02-.02.03-.04.03-.06Z"/>
      <path class="cls-1" d="M77.78,91.56h0s.03.03.03.03c-.01-.01-.02-.02-.03-.03Z"/>
      <path class="cls-1" d="M86.96,87.9s.06.07.09.09c-.01-.03-.04-.05-.09-.09Z"/>
      <path class="cls-1" d="M89.29,87.02h-.07s.06,0,.07,0Z"/>
      <path class="cls-1" d="M85.98,88.82s-.07-.04-.09.02c0,.01.02.02.03.02,0-.04.01-.07.06-.04Z"/>
      <polygon class="cls-1" points="84.76 89.35 84.8 89.4 84.84 89.37 84.76 89.35"/>
      <path class="cls-1" d="M58.78,90.43c0-.08.03-.17.05-.26-.07.19-.29.16-.05.26Z"/>
      <path class="cls-1" d="M100.52,78c.06.04.08.07.08.1,0-.02,0-.03.01-.05-.03-.03-.07-.05-.09-.05Z"/>
      <path class="cls-1" d="M86.87,90.85l-.22.06c.07,0,.15-.03.22-.06Z"/>
      <path class="cls-1" d="M68.52,93.29l-.06.03s.04,0,.06-.03Z"/>
      <path class="cls-1" d="M86.04,91.22c-.08-.08-.14-.11-.19-.13,0,.02,0,.04,0,.08l.19.05Z"/>
      <path class="cls-1" d="M58.83,90.17h0s0,0,0,0Z"/>
      <path class="cls-1" d="M57.2,90.09c.19.11.26-.27.4-.44.27.03-.02.3-.03.51.19,0,.45-.26.55-.19-.02.06,0,.09-.07.14.28-.19.46.2.8-.04,0,.04,0,.07-.02.09.05-.18.13-.35.19-.47.09.04.26-.14.19.1-.05-.03-.09.05-.15.11l.13-.05c-.07.35-.17.05-.28.28.23-.02.55-.18.64-.03-.11.32-.36-.05-.31.31l-.16-.22c-.07.56-.11-.1-.21.5.24.22.38,0,.62.21.14-.15.09-.26.23-.41.53-.15-.02.92.45.62.16-.18.36-.56.48-.27l-.22.33c.26.15.36-.45.55-.09-.11.12-.26.03-.24.09.08.36.21-.15.35-.09l-.09.33c.32.06.73-.06,1.08,0-.05.09-.14.17-.1.29.47,0,.87.35,1.23.66l.24-.23s.03.15-.03.19c.13.15.06-.18.17-.26.1,0,.07.2-.01.26.35-.16.94-.27,1.16.09l-.08.07c.21.17.41-.52.56-.2l-.05.04c.48.25,1.09.12,1.39.62.15-.4.47.28.61-.29.24.34.14.43.52.7.11.05.22-.34.37-.38l-.04.31.23-.29.05.38.14-.06s-.09-.15-.07-.24c.22-.11.46.28.45.44l.51-.19c-.02.12-.11.15-.18.22.29-.28,0,.33.28.07-.02-.07.04-.18.05-.24.1.2.36.22.57.16l-.06.21c.35.08.76-.04,1.16,0-.14-.11-.08-.48.04-.5l.03.33c.09-.2-.11-.13.05-.37.15.04.08.37-.01.48l.19-.11c0,.1-.04.15-.06.27.08-.2.3.34.43-.01v.1c.41.02.6-.09.93-.1,0-.28.14-.21.23-.44.24.08.5.3.79.27.2-.14.05-.24.14-.41.02.26.31.23.16.41.35-.05.44-.05.87-.29-.05-.1-.11-.14-.09-.23.08-.05.18.09.18.22l-.02.03c.45-.42,1.19.66,1.54.09l-.02.03.37-.33c.19.02-.09.21.07.35.38-.48.7-.03,1.02-.36.4.71.97-.23,1.43.18l-.06-.17c.06-.19.14.08.22.1-.04-.13-.14-.14-.1-.24.76-.37,1.73-.12,2.6-.2.32-.05-.09-.93.41-.64v.35c.48-.55,1.23-.37,1.69-.91,0,.08.02.18-.03.2.2.18.46-.15.39-.34.1-.01.08.16.17.23.17.09.2-.39.35-.2.03.03,0,.09-.02.11.04-.14.38-.13.2-.35.26.03.36-.29.59-.21-.01-.33.42-.02.28-.43.17.42.52.18.56-.08.01.15.17.07.2.27.15-.08.25-.22.12-.42.51.35.36-.66.82-.11.34-.42.65-.81.98-1.11.21.4-.4.27-.16.68.28-.37.3-.82.72-.93.12,0,.05.2.05.28.27-.36.71-.39.9-.79.02.04.01.1,0,.15.05-.05.18-.03.06-.2l-.03.08c-.26-.19-.09-.68-.16-.82.21.56.39-.07.62.66.02-.06.02-.17-.07-.28.08,0,.15.05.17.22.16-.23-.04-.36.16-.5.05.08.04.14.08.25,0-.23-.02-.46.19-.5.02.06.09.11.04.14.27-.22.18-.76.6-.82.16.41.19.04.42.33l.1-.21-.17-.1c.14-.1.1-.42.3-.41v.2s.21-.26.21-.26h-.23c.02-.26-.3-.36-.06-.42-.01.06.14-.1.35.01h0c0-.15-.01-.3.15-.3.1.07.24.34.3.39-.13-.3.28-.32.14-.65.02.08.15.24.18.26l-.11-.24c.11,0,.15.03.24.16.22-.12-.36-.31-.01-.35,0,.03.03.05.02.11.29-.11.32-.49.61-.57.31.23-.12.22.16.4.26-.3.31-.86.63-1.06l-.08.02c-.33-.42.38,0,.35-.31,0,.06.16.25.13.2.24-.12.29-.46.45-.85l.06.13c.19-.02.32-.24.48-.32-.07-.13.01-.18-.17-.28.91.16.36-.97,1.12-.88-.03.04,0,.18.04.14l.15-.37c-.19-.13-.14-.05-.33-.11-.07-.13-.09-.28-.03-.35,0,.23.28.24.43.27-.06-.04-.11-.11-.16-.15.44.11-.33-.32.05-.35l.08.09c.02-.12-.05-.29.05-.35.24.13.03.16.19.31.09-.13-.2-.54.09-.49.02.1-.04.17-.02.27.34.08.29.02.4-.04h-.01s.27-.12.27-.12h-.11c-.43-.58.14-.39-.07-.87.19.46.17.18.4.38.11,0,.24-.03.29.05-.12-.24.28-.05.1-.4.08.05.09-.1.27.07.04-.17-.16-.07-.25-.15-.12-.39.66-.25.49-.8.02-.36-.23-.59-.21-.91.18,0,.25.26.25.26.21-.05.25-.16.23-.34.06.07.13.08.25.1.04-.11-.26-.26-.06-.31.08.08.21.2.27.31,0-.17-.09-.38-.09-.55.16.06.18.21.24.31.02-.18.08-.44-.12-.62l-.13.04c.02-.06.21.09.23.16.11.23-.18.12-.27.08v-.12c-.54-.21-.13.39-.26.55l-.31-.29.18.36c-.12-.02-.33-.12-.33-.24-.25,0,.05.18-.21.16-.04,0-.05-.02-.06-.04l.03.18c-.06-.07-.26-.14-.16-.18-.34.07.03.51-.28.41v-.03c-.09.37.23.2.37.62l-.72-.28.23.2s-.09.07-.18-.01c.1.23.12.06.24.24-.32-.02-.17.46-.59.21.15.19.24-.03.26.22-.45-.27-.06.22-.34.21-.19-.2.02-.23-.27-.25.31.35-.26.18-.27.34.28.23-.05.32-.09.57-.08-.08-.42.2-.65.27l-.04-.04c.26.26.07.38.02.55-.16-.15-.21-.22-.23-.35l-.09.11c.07.1.09.18.06.28l-.18-.21c-.11.15,0,.51-.31.57.18.18.67.33.61.64-.11-.09-.29-.24-.29-.33,0,.03.03.14-.05.13l-.1-.23c-.15.01.1.17.03.23-.14-.13-.15-.05-.26-.16,0-.03.11,0,.08-.08-.1.05-.27.06-.4-.01.09.07.2.18.16.25-.12.15-.22-.11-.37-.1.07.13-.12.12.09.32-.04.04-.15-.05-.22-.09.03.16-.29.36.01.5h.03s0,0,0,.02h0s0,0,0,0c-.01.45-.6.36-.75.68l-.07-.07c-.06.22-.27.35-.22.6-.04.04-.22-.04-.28-.14-.06.16,0,.25-.26.27,0-.23-.14-.08.03-.2-.2.07-.34-.03-.31.31-.12-.23-.32-.14-.34-.03l.22.05c-.05.09-.14.14-.22.18l-.18-.28c-.55-.06-.09.99-.75.66.07.25.27,0,.37.26-.17.08-.62-.18-.66-.15-.31,0,.12.52-.16.58.1.07.32.3.23.51-.17.08-.48-.26-.45-.4.03-.03.07-.02.09.02.02-.07.05-.16-.09-.22l.05.11c-.14-.04-.33.12-.4-.07-.04.17.07.19.19.18-.29,0-.28.22-.55.26.07.03.18.12.15.14-.37.08,0,.27-.16.45-.22-.07-.21-.38-.32-.12-.19-.02-.21-.24-.21-.35-.04.31-.41.1-.54.14l.04-.14c-.02.09-.07.12-.11.15l.19.16c-.08,0-.12.03-.18-.05.03.17.26.3.27.55-.14-.05-.15.26-.35.01.29-.06-.2-.24-.03-.42-.02.06-.06.09-.14.09-.03-.02-.03-.06-.02-.08-.38-.1.09.36-.15.5-.07-.17-.24-.25-.25-.19.1-.06.2.22.19.39-.22-.02-.11.19-.2.23h.12c.06.17-.03.2-.1.31-.08-.11.05-.14-.02-.17.04.34-.43-.11-.49.17-.14-.06-.18-.28-.29-.31-.07.31-.32-.1-.42.18.17.18.16.12.13.4l.24-.33-.03.42c.1-.05.13-.25.21-.24,0,.22-.02.17.13.31-.32-.23-.17.33-.44.21l-.29-.52c-.36-.1-.27.49-.64.53l.15.04c.07.23-.17.13-.23.27-.08-.18-.18-.21-.28-.3.07.13-.23.1-.08.46l-.26-.16c-.3.03-.04.64-.31.7-.02-.23-.19-.3-.09-.52-.08.04-.17.04-.11.16-.1-.09-.11.35-.26.22,0,.1.08.29-.02.32-.03-.03-.04-.09-.04-.09.04.09-.09.19.08.35-.51-.45-.71.35-1.14-.04-.16.14-.35.29-.51.37-.01-.06-.04-.09,0-.09-.3-.08.06.58-.28.49-.25-.25.08-.21-.05-.29-.27-.59-.29.2-.6-.09l.03-.05c-.21-.16-.25.35-.48.39,0,0,0-.06-.03-.09-.04.37-.3.57-.5.72,0-.26.06-.16-.06-.39-.09.06.15.39-.02.52-.11-.11-.28-.19-.38-.45l.18-.07c-.2-.31-.23.08-.35.05l-.03-.15c-.26.13-.16.51-.47.58l.06.1c-.06.43-.2-.17-.29.15l-.15-.37c-.09.12-.29.46-.48.59.04-.31.24-.51.34-.72-.11.02-.36.12-.37.32.04-.05.07-.16.13-.11-.06.33-.2.53-.43.57-.13-.76-.61-.04-.9-.61-.33.35-.79.02-1.22.15.25.56-.13.04,0,.64-.1.05-.14.05-.16,0l-.38-.32c-.1-.17.08-.15.05-.28-.24-.02-.13-.24-.31-.39.06.21-.04.32-.18.25l.22.26c-.28.36-.34-.47-.63-.11l.08-.2c-.15.14-.61.07-.73.57-.04-.07-.09-.23-.02-.28-.4-.04-.85.59-1.19.31l.02-.15c-.07.05-.12.29-.22.14,0-.06.02-.15-.01-.16-.04.05-.19.27-.29.18l.08-.17c-.4-.19-.59.42-.92.53,0-.44-.31-.57-.46-.65v-.06c-.44-.07-.77.34-1.21.5-.24-.47-.88-.26-1.28-.56.06.08-.04.34-.12.38-.09-.1-.3.28-.25-.12h.03c-.04-.39-.25-.3-.4-.33l-.09.52c-.32-.82-1.13.13-1.25-.58-.12.12-.24.1-.36.21l.05-.28c-.26-.12-.39-.18-.74-.18l.11-.19c-.18-.05-.39.76-.58.74l.03-.42c-.34-.05-.58-.5-1-.21.02-.06.06-.18.11-.18-.15-.05-.53-.42-.61.15.09-.37-.33-.11-.55,0l.1-.26c-.24.3-.27.39-.51.42-.04-.05.02-.23.06-.14-.12-.19-.2.22-.36.01l.12-.15c-.16-.07-.18.02-.33.2-.14.07-.3-.16-.25-.41-.07.14-.22.31-.3.21.02-.09.07-.14.1-.16-.22-.26-.52.16-.63-.16.03-.09.03-.14.02-.17.22.08.39.16.37.18.08-.24-.08-.35.17-.64-.2.13-.58.45-.72.27,0-.03,0-.05,0-.09l.03-.02s-.07-.03-.12,0c-.04-.06-.07-.1-.12-.12.05-.21-.16-.18-.25-.22-.09.27-.19.18-.16.44,0-.02.03-.03.09-.02.02,0,.03,0,.05-.01v.02s.12.04.21.06c-.12.11-.23.2-.28.01-.11.15-.22.31-.28.38.01-.41-.14-.69-.09-.94-.32.04-.66-.16-1.03.26-.1.03-.03-.18-.02-.26.06-.03.11,0,.17-.06-.2.06-.47-.14-.66.18-.12-.23.24-.26-.04-.32l.08-.09c-.25-.77-1.23.46-1.46-.49.02.06.03.09,0,.15-.47-.63-1.46-.41-1.79-1.23-.11-.2-.25,0-.45.08l.12-.28-.36.19c-.39.05-.04-.88-.61-.69l-.07.2c-.09-.11-.42-.14-.27-.33-.03.02-.16.15-.14.03l.09-.13-.43.03c-.14-.24.39-.49.11-.73-.15-.03-.59.15-.61.26.04.04.06.16-.03.29h-.15c-.29.36-.66.68-.59,1.13l.35-.1-.07.23-.17-.1c-.03.24.13.12.27.06-.05.11-.08.2-.06.26l.44-.24c-.08.17-.29.24-.22.41.2-.11.15-.39.37-.41-.03.24-.15.36.05.28-.05.11-.12.16-.19.17.18-.05.28.12.47-.05-.05.29.36.16.11.52.09-.07.36-.18.46-.15-.45.34.32.23-.02.69.37-.33.55.09.9,0-.03.03-.09.08-.1.04.1.11.06.26.1.38.21-.33.45-.3.67-.46-.03.41-.32.35-.45.69.15-.28.42-.13.5-.39,0,.27.04.15-.05.47.26-.42.15-.01.39-.23.05.3-.17.43.08.4.02.18-.23.24-.23.24ZM62.14,91.33h0s-.08,0-.1-.01c.02,0,.05,0,.1.01ZM62.53,91.47s-.1-.05-.17-.07c.02-.1.07-.19.1-.17-.04.05.03.14.06.24ZM62.37,89.34c.07-.02.07.04.06.1-.03,0-.07,0-.11,0l-.02.03s.05-.09.07-.12Z"/>
      <path class="cls-1" d="M62.14,89.65s-.02.01-.03.01c0,.03,0,.05.01.07l.05-.08h-.03Z"/>
      <path class="cls-1" d="M95.59,82.45h-.01s.03,0,.04.02c-.01,0-.02-.01-.03-.02Z"/>
      <polygon class="cls-1" points="68.04 93.36 68.05 93.29 68 93.35 68.04 93.36"/>
      <path class="cls-1" d="M97.81,81.43s.05.02.07.02c-.02-.01-.04-.02-.07-.02Z"/>
      <path class="cls-1" d="M98.49,80.71l.16-.05c-.08.01-.13.03-.16.05Z"/>
      <path class="cls-1" d="M99.06,80.19s-.06-.06-.09-.08h0s.09.08.09.08Z"/>
      <path class="cls-1" d="M90.32,88.59s-.01.02-.02.03c-.03.08,0,.04.02-.03Z"/>
      <path class="cls-1" d="M92.9,85.99c0,.06,0,.13,0,.18.06-.02.11-.05,0-.18Z"/>
      <polygon class="cls-1" points="86.89 90.84 86.89 90.84 86.87 90.85 86.89 90.84"/>
      <path class="cls-1" d="M92.76,86.26c.08,0,.12-.04.13-.1-.05.02-.12.03-.13.1Z"/>
      <path class="cls-1" d="M101.03,77.52l.03-.03s-.03-.02-.04-.03v.05Z"/>
      <path class="cls-1" d="M101.02,77.46v-.05s-.02.03,0,.05Z"/>
      <path class="cls-1" d="M100.99,77.3l.02.11s.04-.05-.02-.11Z"/>
      <path class="cls-1" d="M100.38,78.31l.08.07s-.04-.04-.08-.07Z"/>
      <path class="cls-1" d="M100.24,78.58c.06-.05.29-.03.29-.15l-.06-.05c.1.12-.33.05-.23.21Z"/>
      <path class="cls-1" d="M98.49,78.9l.21-.16c-.11-.03-.26-.07-.22-.17-.44.07.24.09.01.33Z"/>
      <path class="cls-1" d="M97.9,79.42c.04-.14-.13-.09-.17-.14.03.13.04.16.17.14Z"/>
      <path class="cls-1" d="M94.19,83.5l-.16-.2c-.05.1.07.07.16.2Z"/>
      <polygon class="cls-1" points="94.27 85.2 94.45 85.25 94.33 85.04 94.27 85.2"/>
      <polygon class="cls-1" points="92.61 84.22 92.62 84.16 92.55 84.34 92.61 84.22"/>
      <path class="cls-1" d="M84.88,89.03l.15.28c.04-.08-.09-.41-.15-.28Z"/>
      <path class="cls-1" d="M81.25,90.65c-.08-.14-.22-.2-.24-.04.09,0,.21.09.24.04Z"/>
      <polygon class="cls-1" points="69.45 91 69.54 90.91 69.39 90.98 69.45 91"/>
    </g>
    <g>
      <path class="cls-1" d="M51.11,94.63c.04.08.15.24.14.2l-.17-.29.02.09Z"/>
      <path class="cls-1" d="M51.55,95.07c-.07-.15-.2-.4-.38-.64.15.28.09.16.27.5,0,.04-.09-.07-.15-.17.04.08-.06-.04.04.14.16.2.19.19.1,0,.05.06.09.13.12.18Z"/>
      <path class="cls-1" d="M53.39,94.16l-.04-.02s.03.02.04.02Z"/>
      <path class="cls-1" d="M54.33,93.25s.03.03.05.05c-.01-.02-.03-.04-.05-.05Z"/>
      <path class="cls-1" d="M54.76,93.26s-.02,0-.03,0c.03.01.05.02.03,0Z"/>
      <path class="cls-1" d="M53.39,94.16l.1.04c-.08-.07-.07-.04-.1-.04Z"/>
      <path class="cls-1" d="M51.31,94.27s.02.04.04.08c0-.01,0-.03,0-.04l-.03-.04Z"/>
      <path class="cls-1" d="M53.19,94.76h0s.05.07.09.11l-.08-.11Z"/>
      <path class="cls-1" d="M52.89,95.1s-.17-.21-.24-.31c.07.09.1.14.11.16.04.04.08.09.13.15Z"/>
      <path class="cls-1" d="M52.04,95.14v.04s0-.02,0-.04Z"/>
      <path class="cls-1" d="M53.46,94.57s.06.05.08.07l-.08-.07Z"/>
      <path class="cls-1" d="M52.28,84.45s.03-.02.04-.03c-.02.02-.04.03-.04.03Z"/>
      <polygon class="cls-1" points="53.04 83.2 53.05 83.2 53.17 83.09 53.04 83.2"/>
      <path class="cls-1" d="M55.29,93.07h0s.02.02,0,0Z"/>
      <path class="cls-1" d="M56.24,89.19c-.25.03-.32-.09-.6-.04.11,0,.43.09.6.04Z"/>
      <path class="cls-1" d="M51.34,94.3s0-.01.01-.01c-.01,0-.01,0-.01.01Z"/>
      <path class="cls-1" d="M55.64,89.14h0s-.03,0-.03,0c.01,0,.02,0,.03,0Z"/>
      <path class="cls-1" d="M55.58,92.09s-.08-.03-.12-.04c.03.01.06.02.12.04Z"/>
      <path class="cls-1" d="M54.91,92.58h.04s-.04,0-.04,0Z"/>
      <path class="cls-1" d="M55.35,91.59s.06,0,.03-.02c-.01,0-.02,0-.03,0,.03.02.05.03,0,.02Z"/>
      <path class="cls-1" d="M55.48,91.23s-.04,0-.06-.01v.02s.06,0,.06,0Z"/>
      <path class="cls-1" d="M52.9,85.09c.07-.05.14-.1.21-.14-.17.11-.25.11-.21.14Z"/>
      <path class="cls-1" d="M51.4,94.4c-.04-.06-.06-.09-.06-.1,0,0,0,.01,0,.02.02.03.05.07.06.09Z"/>
      <path class="cls-1" d="M53.28,90.8l.06-.03s-.05.01-.06.03Z"/>
      <path class="cls-1" d="M53.76,87.05h-.04s0,0,.04,0Z"/>
      <path class="cls-1" d="M53.34,90.63c.1.02.15.03.19.04-.02,0-.04-.02-.07-.03h-.13Z"/>
      <path class="cls-1" d="M53.11,84.95h0s0,0,0,0Z"/>
      <path class="cls-1" d="M52.39,85.05s.31-.19.49-.3c.12-.01-.21.17-.36.29.1-.03.4-.19.4-.16-.05.03-.07.05-.13.09.27-.13.07.08.4-.08-.03.02-.05.04-.07.05.16-.1.31-.2.43-.27.02.02.22-.09.02.05,0-.02-.08.03-.15.07l.1-.04c-.29.2-.12.04-.34.17.12-.02.39-.13.33-.05-.29.18-.14,0-.38.18l.08-.11c-.44.31.02-.04-.46.28-.05.1.19-.03.13.08.17-.08.24-.14.41-.23.34-.08-.71.48-.28.32.21-.09.59-.29.41-.14l-.35.17c0,.07.5-.23.31-.05-.14.06-.14.01-.17.04-.25.18.21-.07.22-.04l-.3.16c.08.03.33,0,.42.04-.09.04-.19.07-.28.13.2.01.05.2-.11.36l.28-.08s-.12.06-.17.08c-.09.07.17-.07.29-.1.03.01-.15.09-.23.11.25-.04.57-.03.3.14l-.09.02c-.1.09.58-.15.34-.01h-.05c-.08.16.22.2-.18.41.41-.11-.15.16.42,0-.26.14-.37.15-.53.29-.02.03.36-.06.43-.05l-.3.08.32-.04-.35.11h.08s.13-.05.22-.07c.15.01-.18.15-.34.19l.28.04c-.12.02-.17.02-.25.02.32-.02-.32.08-.02.06.07-.02.18-.03.24-.05-.18.06-.17.12-.09.14l-.21.03c-.04.08.13.13.14.21.09-.04.46-.1.5-.08l-.32.06c.2-.01.12-.05.37-.05-.03.04-.36.08-.47.08l.12.02c-.1.01-.15.02-.27.03.2-.01-.32.11.03.08l-.1.02c0,.08.12.1.15.17.28-.03.22,0,.45,0-.09.06-.3.14-.27.19.14.03.24,0,.41,0-.26.02-.23.08-.41.06.05.07.06.09.27.17.1-.01.15-.03.24-.03.04.02-.11.04-.23.05h-.03c.38.1-.74.24-.21.32h-.03s.27.09.27.09c-.05.04-.19-.03-.35,0,.42.11-.07.14.21.23-.75,0,.03.21-.45.24h.18c.17.05-.1.03-.15.04.14.01.16,0,.26.02.19.2-.31.32-.49.44-.06.05.89.22.46.21l-.32-.09c.36.21-.07.24.22.45-.07-.03-.17-.05-.16-.07-.24-.04-.04.09.15.15-.03.01-.17-.05-.27-.06-.14-.02.28.15.04.1-.04,0-.07-.03-.09-.04.11.05-.05.07.22.13-.14,0,.09.13-.08.11.28.12-.17.03.24.18-.43-.15-.37-.04-.18.06-.12-.06-.14-.03-.32-.1,0,.03.06.09.28.17-.53-.14.36.28-.3.06.19.19.29.34.35.48-.41-.19,0-.12-.43-.31.13.15.46.37.32.4-.06,0-.17-.1-.24-.14.13.16-.11.13.07.32-.04-.02-.07-.05-.1-.07,0,.02-.08,0,.11.1l-.04-.04c.28.12.52.35.65.43-.5-.31-.17,0-.8-.39.03.03.11.09.23.15-.04,0-.11-.04-.24-.13.07.1.27.19.24.24-.09-.05-.11-.08-.21-.14.16.12.31.24.21.24-.05-.03-.12-.07-.11-.08-.01.08.37.38.17.36-.35-.25-.14-.05-.45-.25l.07.1.16.08s.18.21.06.17l-.11-.11.02.1.14.04c.14.14.4.26.28.25-.03-.03-.03.03-.22-.07h0c.09.08.18.17.08.15-.1-.07-.34-.24-.4-.28.24.19.02.13.27.34-.06-.05-.22-.17-.25-.19l.2.16c-.08-.03-.11-.05-.24-.15-.07.02.39.26.19.2-.01-.02-.05-.04-.07-.07-.13,0,.05.2-.09.18-.31-.22-.04-.1-.3-.28,0,.11.24.42.12.44h.04c.4.36-.24-.1-.08.09-.02-.03-.22-.2-.17-.16-.1-.01.02.18.09.36l-.09-.1c-.11-.06-.12.02-.19,0,.09.1.06.1.22.23-.64-.45.14.46-.39.08,0,0-.06-.1-.07-.1l.02.15c.17.16.11.09.24.21.09.11.14.2.12.22-.08-.14-.26-.27-.36-.35.05.05.1.11.15.16-.32-.27.31.34.08.19l-.08-.09c.02.06.12.2.07.19-.19-.19-.07-.11-.21-.27-.02.04.29.43.08.25-.04-.07-.02-.08-.06-.15-.24-.21-.19-.15-.24-.17h0s-.14-.06-.14-.06l.07.05c.43.55.01.15.26.54-.23-.37-.15-.2-.35-.43-.07-.05-.14-.11-.19-.18.14.21-.16-.12.04.18-.06-.07-.03.01-.18-.18.02.08.11.13.19.22.17.3-.35-.24-.13.17.06.19.24.46.29.64-.11-.11-.2-.3-.2-.3-.11-.09-.12-.06-.08.06-.04-.07-.09-.13-.16-.21,0,.04.19.3.08.2-.06-.09-.15-.24-.2-.34.03.09.1.26.13.35-.1-.14-.13-.22-.18-.32.01.08,0,.18.15.41l.07.07s-.14-.19-.15-.23c-.09-.19.09.05.15.13l.02.07c.34.46.03-.13.09-.13l.22.35-.16-.31c.07.08.21.26.23.33.15.14-.06-.14.1.03.02.03.03.04.04.06l-.04-.12c.05.07.18.23.13.2.2.15-.1-.32.11-.08v.02c0-.17-.17-.25-.33-.57l.5.57-.18-.25s.04,0,.12.11c-.1-.19-.09-.1-.19-.27.21.19.01-.18.33.19-.14-.19-.15-.11-.21-.27.34.39-.02-.1.17.05.16.21.04.13.23.29-.28-.37.13.02.1-.07-.24-.28-.04-.17-.07-.29.08.09.22.07.35.13l.04.05c-.24-.28-.15-.26-.18-.35.15.16.21.23.26.31l.03-.03c-.07-.09-.11-.14-.12-.19l.18.2c.03-.05-.15-.3.03-.22-.18-.18-.54-.46-.62-.63.1.1.27.26.3.31,0-.02-.07-.1-.02-.06l.15.18c.09.05-.13-.15-.1-.15.14.14.11.09.22.2,0,.02-.07-.04-.02.02.04,0,.15.06.27.16-.08-.08-.19-.18-.2-.22.03-.05.18.15.28.2-.09-.1.04-.03-.18-.23.01-.01.11.08.18.13-.08-.11.06-.12-.19-.31h-.02s0-.01,0-.02h0s0,0,0,0c-.16-.26.25-.03.21-.18l.08.06c-.05-.11.03-.13-.11-.3,0-.01.16.09.25.17-.03-.08-.11-.15.05-.09.11.14.13.08.07.11.1.01.23.1.05-.11.19.17.28.16.23.1l-.17-.08s.02-.05.05-.06l.26.21c.4.15-.43-.57.17-.24-.17-.16-.17-.04-.37-.22.07-.01.49.21.5.2.19.04-.36-.33-.22-.32-.1-.06-.37-.23-.43-.33.06-.02.45.22.51.3,0,.02-.03,0-.07-.02.03.04.06.08.18.14l-.1-.07c.12.05.14-.02.3.1-.07-.1-.15-.12-.22-.13.18.04.06-.08.2-.08-.06-.03-.18-.09-.18-.1.18,0-.17-.16-.18-.24.17.06.36.24.27.1.13.03.27.15.35.22-.16-.17.19-.03.25-.04l.06.08s-.03-.06-.02-.08l-.22-.1s.06-.01.14.04c-.12-.1-.35-.18-.51-.32.12.04-.07-.13.2.02-.13.02.28.15.29.23-.03-.03-.02-.04.03-.04.03.01.06.03.07.05.28.06-.29-.21-.25-.28.15.09.3.14.28.11-.02.03-.27-.13-.37-.22.15.02-.06-.1-.04-.11h-.07c-.15-.1-.12-.11-.15-.16.12.06.07.07.13.09-.26-.18.33.07.17-.08.12.03.3.15.38.16-.18-.16.25.04.11-.1-.22-.09-.17-.06-.36-.2l.11.17-.28-.21s.11.13.06.13c-.16-.12-.11-.09-.29-.16.34.12-.15-.17.09-.11l.53.25c.27.04-.22-.25-.04-.28h-.11c-.21-.12,0-.08-.08-.15.18.08.25.09.37.13-.14-.06.04-.07-.32-.23l.26.06c.13-.04-.49-.3-.4-.34.19.1.33.12.46.22.01-.02.05-.03-.07-.08.12.03-.22-.16-.04-.12-.08-.04-.27-.12-.24-.14.04.01.09.03.09.03-.09-.03-.11-.09-.32-.14.6.14.02-.21.55-.11-.04-.07-.08-.16-.08-.21.06.02.09.03.07.03.2-.01-.53-.2-.31-.22.32.05.15.09.28.1.63.17-.06-.12.32-.07l.03.02c.22.02-.21-.16-.15-.22,0,0,.06.01.09.02-.31-.13-.4-.23-.47-.31.24.08.13.06.38.1-.03-.04-.41-.09-.46-.16.14.01.27,0,.54.05v.06c.36.05,0-.07.07-.09l.15.04c-.03-.1-.42-.17-.37-.25h-.12c-.37-.13.22-.01-.05-.11l.39.05c-.09-.05-.36-.18-.42-.24.28.08.42.17.59.24,0-.03-.01-.12-.2-.16.04.02.13.05.07.05-.3-.09-.44-.16-.43-.22.76.12.22-.13.81-.11-.27-.15.14-.22.11-.37-.6,0-.01-.04-.62-.08-.04-.03-.03-.04.01-.04l.37-.07c.18-.01.13.04.27.04.05-.07.26-.02.42-.06-.22,0-.31-.04-.23-.08l-.28.05c-.32-.11.52-.07.2-.18l.19.04c-.11-.06.01-.2-.48-.25.07,0,.24-.02.28,0,.07-.13-.53-.26-.23-.36h.15s-.28-.02-.13-.06c.06,0,.15,0,.16,0-.05-.01-.27-.05-.18-.08l.17.02c.19-.13-.42-.16-.53-.24.44-.04.58-.14.64-.2h.06c.04-.15-.39-.2-.58-.3.47-.15.16-.29.4-.47-.07.03-.34.06-.39.05.08-.05-.31-.02.08-.09h0c.38-.09.27-.13.27-.18l-.52.1c.72-.29-.35-.24.3-.48-.13,0-.14-.03-.28-.03l.27-.07c.05-.1.07-.15-.03-.23l.2-.04c0-.06-.8.16-.83.12l.4-.14c-.03-.09.28-.31-.11-.28.06-.02.18-.06.2-.05,0-.05.21-.28-.33-.06.35-.13,0-.11-.18-.1l.26-.09c-.35.09-.44.12-.56.1.03-.03.2-.1.14-.05.12-.1-.26.06-.14-.05l.17-.05c0-.06-.09-.02-.29.04-.11.02.03-.11.26-.22-.14.05-.34.11-.29.06.09-.04.14-.06.17-.06.14-.16-.35.02-.12-.15.08-.04.12-.06.15-.08.02.06.03.12.01.12.23-.11.25-.18.59-.28-.2.04-.61.15-.53.05.02-.01.04-.02.08-.04h.03s0-.03-.05-.02c.03-.03.05-.06.05-.07.19-.1.07-.11.07-.14-.25.13-.23.08-.42.21.02-.01.03-.01.05,0,0,0,.02,0,.03,0h-.02s.03.04.05.06c-.14.04-.25.08-.13-.02-.17.07-.34.14-.42.17.34-.21.49-.37.7-.49-.18,0-.19-.13-.68.08-.07.01.12-.1.19-.15.05-.01.05,0,.12-.03-.14.02-.11-.1-.44.08.12-.13.31-.14.22-.18l.1-.05c.42-.45-.94.28-.39-.27-.03.04-.05.05-.1.09.16-.35-.48-.15-.18-.62.05-.11-.14.03-.3.11l.23-.2-.31.17c-.25.1.49-.58.05-.35l-.15.14c0-.05-.17,0,.01-.16-.03.02-.17.13-.1.05l.12-.1-.26.11c.04-.13.47-.41.43-.51-.07,0-.41.23-.48.31,0,.02-.05.1-.16.21l-.08.03c-.34.31-.7.63-.9.9l.24-.16-.16.16-.04-.02c-.14.16,0,.04.11-.03-.09.08-.14.14-.17.18l.36-.26c-.13.12-.28.22-.34.31.17-.12.29-.29.42-.35-.14.16-.28.26-.12.17-.09.08-.15.13-.2.15.12-.08.09,0,.28-.14-.18.19.11.02-.24.3.09-.06.29-.19.32-.18-.44.3.03.09-.42.43.39-.27.23-.05.47-.17-.03.02-.1.06-.08.04-.01.05-.12.14-.18.21.32-.23.42-.24.63-.36-.28.25-.39.25-.67.47.26-.19.29-.13.5-.3-.17.16-.08.09-.34.28.4-.28.08-.03.34-.18-.17.17-.37.27-.22.22-.11.1-.28.17-.28.17ZM53.64,85.54h0s-.02,0-.02-.01c0,0,.01,0,.03.01ZM53.69,85.63s0-.03,0-.04c.09-.04.18-.08.18-.07-.06.02-.1.07-.17.11ZM55.35,84.58s0,.03-.05.06c0,0-.02-.01-.04-.01h-.03s.1-.03.13-.04Z"/>
      <path class="cls-1" d="M55,84.72s-.02,0-.02,0c-.02.01-.04.03-.05.04l.08-.03h0Z"/>
      <path class="cls-1" d="M53.35,94.14h0s-.02-.01-.03-.02c.01,0,.02.01.03.02Z"/>
      <polygon class="cls-1" points="53.6 86.99 53.67 86.97 53.61 86.98 53.6 86.99"/>
      <path class="cls-1" d="M52.26,93.87l-.05-.05s.03.03.05.05Z"/>
      <path class="cls-1" d="M52.05,93.98l-.09-.05s.07.05.09.05Z"/>
      <path class="cls-1" d="M51.83,93.99s.05.07.08.09h0s-.08-.09-.08-.09Z"/>
      <path class="cls-1" d="M53.24,91.71s0,0,0-.01c-.04-.04-.03-.02,0,.01Z"/>
      <path class="cls-1" d="M53.38,92.75s-.07-.07-.09-.1c-.03,0-.04,0,.09.1Z"/>
      <polygon class="cls-1" points="53.28 90.8 53.28 90.8 53.28 90.8 53.28 90.8"/>
      <path class="cls-1" d="M53.31,92.62c-.05-.02-.05,0-.03.03.02,0,.05,0,.03-.03Z"/>
      <path class="cls-1" d="M51.17,94.33h-.01s.02.02.02.03v-.03Z"/>
      <path class="cls-1" d="M51.18,94.37v.03s.02,0,0-.03Z"/>
      <path class="cls-1" d="M51.21,94.47l-.02-.07s-.02,0,.02.07Z"/>
      <path class="cls-1" d="M51.43,94.31l-.06-.08s.03.04.06.08Z"/>
      <path class="cls-1" d="M51.46,94.25s-.16-.15-.14-.09l.05.07c-.08-.13.18.17.1.02Z"/>
      <path class="cls-1" d="M52.49,95.05l-.1-.02c.08.08.18.18.17.22.27.2-.17-.18-.07-.2Z"/>
      <path class="cls-1" d="M52.75,95.03c0,.06.1.12.14.17-.05-.09-.06-.11-.14-.17Z"/>
      <path class="cls-1" d="M53.83,93.92l.2.16s-.08-.06-.2-.16Z"/>
      <polygon class="cls-1" points="52.96 92.89 52.82 92.82 53 92.97 52.96 92.89"/>
      <polygon class="cls-1" points="54.52 93.84 54.54 93.88 54.5 93.78 54.52 93.84"/>
      <path class="cls-1" d="M55.69,91.37l-.3-.09s.38.15.3.09Z"/>
      <path class="cls-1" d="M55.68,90.17c.16.02.26,0,.11-.04-.02.02-.15.02-.11.04Z"/>
      <polygon class="cls-1" points="56.12 86.66 56.23 86.67 56.13 86.64 56.12 86.66"/>
    </g>
  </g>
</svg>