<?xml version="1.0" encoding="UTF-8"?>
<svg id="Layer_2" data-name="Layer 2" xmlns="http://www.w3.org/2000/svg" viewBox="0 0 150.39 148.4">
  <defs>
    <style>
      .cls-1 {
        fill: #231f20;
      }

      .cls-2 {
        fill: #e3e533;
      }
    </style>
  </defs>
  <g id="Layer_1-2" data-name="Layer 1">
    <path class="cls-2" d="M133.85,119.71l-18.19,2.81c-5.16.8-9.83,3.51-13.08,7.59l-11.38,14.3c-3.78,4.75-10.78,5.34-15.31,1.29l-14.43-12.91c-3.77-3.37-8.64-5.26-13.7-5.3l-19.28-.15c-6.01-.05-10.77-5.09-10.47-11.09l.95-18.78c.26-5.12-1.39-10.16-4.62-14.15l-11.96-14.73c-3.88-4.77-2.87-11.84,2.19-15.34l14.88-10.3c4.33-3,7.36-7.52,8.47-12.66l3.85-17.68c1.31-6.01,7.46-9.64,13.35-7.87l18.18,5.44c4.92,1.47,10.2,1.07,14.84-1.12L95.11,1.02c5.43-2.57,11.91-.09,14.25,5.45l7.49,17.77c1.97,4.66,5.56,8.45,10.12,10.64l17.44,8.41c5.47,2.64,7.59,9.33,4.65,14.64l-8.87,15.97c-2.54,4.56-3.26,9.92-2.03,14.99l4.34,17.89c1.46,6.01-2.54,11.98-8.65,12.93Z"/>
    <g>
      <path class="cls-1" d="M58.55,88.18c.13-.02.19-.21-.04-.33l-.34.17.38.16Z"/>
      <path class="cls-1" d="M57.43,86.68c-.35-.04-.79.02-.79.38.42-.11.41.04.89-.1.24.11.32.34.22.42.12-.02.29.29.53.2-.14-.4-.49-.66-.98-.72-.04-.11.08-.14.14-.17Z"/>
      <path class="cls-1" d="M50.6,99.86l-.1-.14s.05.1.1.14Z"/>
      <path class="cls-1" d="M64.95,107.03c-.12-.02-.18,0-.19.03.12,0,.21,0,.19-.03Z"/>
      <path class="cls-1" d="M67.59,107.95c-.06-.02-.11-.03-.16-.05.06.04.12.07.16.05Z"/>
      <path class="cls-1" d="M50.6,99.86l.26.36c.09-.06-.12-.21-.26-.36Z"/>
      <path class="cls-1" d="M54.03,85.82c.08.01.16,0,.23,0l-.2-.04-.03.04Z"/>
      <path class="cls-1" d="M46.24,94.06l-.04-.13s-.1-.05-.16-.07l.21.2Z"/>
      <path class="cls-1" d="M45.8,88.34c-.04.13.22.23.33.31-.1-.09-.13-.2-.13-.32-.05-.01-.12-.01-.21.01Z"/>
      <path class="cls-1" d="M53.21,84.41h.16s-.11,0-.16,0Z"/>
      <path class="cls-1" d="M48.12,97.68s-.04.07-.05.1c.03-.02.04-.06.05-.1Z"/>
      <path class="cls-1" d="M60.9,91.12s0-.03.02-.05c-.04.02-.06.03-.02.05Z"/>
      <path class="cls-1" d="M56.1,86.57l.07.05s.09-.06.13-.1l-.2.05Z"/>
      <path class="cls-1" d="M72.62,108.89s-.01,0-.02,0c-.14.02-.06.02.02,0Z"/>
      <path class="cls-1" d="M114.19,91.2c-.48.35.14-.93-.49-.35.14-.01.02.87.49.35Z"/>
      <path class="cls-1" d="M53.93,85.74l-.19-.06c.09.03.14.05.19.06Z"/>
      <path class="cls-1" d="M113.69,90.85h0s-.06.06-.06.06c.03-.02.04-.04.06-.06Z"/>
      <path class="cls-1" d="M84.33,107.99s-.08-.07-.14-.1c0,.03.04.06.14.1Z"/>
      <path class="cls-1" d="M75.63,108.41l.22.04c-.09-.03-.15-.03-.22-.04Z"/>
      <path class="cls-1" d="M88.65,106.64c.12,0,.17.02.31-.06-.02,0-.03-.02-.06-.02-.05.05-.12.09-.25.08Z"/>
      <path class="cls-1" d="M93.13,105.28s-.07-.02-.1-.03c-.04.02-.09.04-.13.06l.23-.04Z"/>
      <path class="cls-1" d="M75.47,89.85c-.13-.03-.23-.08-.31-.14.15.15-.47.5.31.14Z"/>
      <path class="cls-1" d="M54.08,85.67c-.05.06-.09.08-.16.07l.14.03s.04-.07.02-.1Z"/>
      <path class="cls-1" d="M88.27,104.44l.7-.14c-.2.03-.46.08-.7.14Z"/>
      <path class="cls-1" d="M101.32,70.23l-.14.06c.06,0,.11-.02.14-.06Z"/>
      <path class="cls-1" d="M91,103.65c.15.06.3.07.44.06.02-.03.05-.06.06-.09l-.5.03Z"/>
      <path class="cls-1" d="M75.15,89.71h0s0,0,0,0Z"/>
      <path class="cls-1" d="M70.49,91.92c.74-.15.27-.43.38-.67.84-.29.46.17.8.28.52-.24.83-.68,1.22-.8.05.05.13.04.07.15.46-.45,1.62-.6,2.08-1.22.06,0,.09.03.12.05-.17-.13-.27-.29-.3-.42.29-.13.44-.45.65-.29-.18.08-.15.18-.2.28l.26-.24c.42.18-.36.31-.25.54.56-.38,1.1-.98,1.58-1.14.26.25-.98.66-.25.61-.25.09-.51.16-.76.24.78.21-.45.18.3.45.99-.39.97-.69,1.91-1.13.1-.28-.21-.2-.11-.48,1.05-1.05,1.45.11,2.08-.88.1-.34-.06-.75.68-1.02l.02.46c.83-.57.12-.78,1.09-1.22-.05.23-.53.58-.39.53.72-.18.24-.46.64-.79l.3.19c.79-.71,1.48-1.67,2.28-2.51.02.12-.05.33.22.22.95-1.13,2.25-2.17,3.35-3.06l.15-.59c.09-.09.25-.08.2.06.45-.32-.12-.15-.02-.42.19-.24.4-.18.33.02.47-.87,1.46-2.35,2.38-2.82l-.07.2c.62-.46.19-1.04.9-1.34l-.06.13c1.28-1.06,2.54-2.42,3.83-2.73-.03-.5,1.44-.67,1.26-1.22.96-.16.76.03,2-.28.32-.1.34-.52.72-.72l.1.29.45-.47.38.28.36-.17c-.15.02-.35-.06-.35-.15.57-.3,1.5-.05,1.52.11.45-.13.92-.24,1.39-.32-.03.12-.27.16-.45.24.74-.32.13.32.81.05-.09-.07.06-.18.08-.24.32.23,1.07.3,1.63.4l-.16.18c.95.28,2.06.58,3.02,1.24-.3-.3-.03-.57.29-.41l-.06.34c.31-.05-.24-.3.29-.25.34.3.02.48-.24.41l.49.24c-.03.1-.17.06-.27.14.15-.01.28.19.43.38.14.2.29.41.52.39l-.04.09c.83.8,1.24,1.16,1.81,1.93.24-.14.39.21.75.34.31.67.46,1.48.81,2.27.33.52.28.08.53.29-.23.13.07.94-.25.57.32.98.41,1.24.77,2.53.1-.15.13-.32.22-.25.06.24-.07.56-.2.53l-.03-.06c.12.36.15.77.08,1.18-.04.41-.16.83-.29,1.23-.25.8-.55,1.51-.44,2.14v-.07c0,.42-.05.84-.09,1.27-.22.53-.08-.39-.36-.04-.06,1.4-.82,1.93-1.11,3.02-.54.19-.9.84-1.32,1.51-.41.68-.87,1.39-1.44,1.66l.18.07c-.06.34-.31.21-.49.34.12.07.33-.14.28.07-1.56,2.07-4.03,3.37-6.39,4.52-.86.43-.03,1.08-1.32,1.29l.16-.46c-1.57,1.28-3.65,1.79-5.31,2.86.08-.12.04-.21.22-.28-.47-.06-1.41.57-1.35.75-.29.09-.13-.14-.34-.16-.43.02-.86.66-1.15.51-.05-.02.08-.11.15-.16-.21.2-1.18.41-.85.58-.74.11-1.28.58-1.89.6-.27.41-1.24.24-1.23.69-.08-.45-1.33.01-1.73.33.11-.17-.42-.03-.3-.26-.5.15-.95.33-.81.54-1.06-.29-1.82.86-2.49.29-1.48.54-2.9.92-4.29,1.19,0-.45,1.54-.24,1.42-.7-1.29.36-2.02.83-3.36.82-.35-.04.18-.21.29-.29-1.32.28-2.57.11-3.75.34,0-.04.13-.09.25-.12-.23.02-.54-.07-.52.14l.23-.06c.38.3-.94.62-.99.76.42-.58-1.18-.18-.52-.91-.15.03-.35.13-.32.26-.23-.05-.29-.14-.06-.28-.84.06-.56.29-1.32.24.01-.1.17-.13.25-.24-.4.18-.8.32-1.44.18.04-.06-.02-.14.17-.12-1.1-.08-1.94.3-3.12-.1.43-.37-.38-.21-.38-.59l-.66-.02.22.23c-.56-.12-1.11.05-1.56-.19l.45-.05-1.06-.18.56.28c-.61.05-.05.47-.77.19.16,0-.56-.15-.79-.45h0c-.3.03-.63.09-1.01-.13-.07-.15.21-.37.16-.47-.36.21-1.3-.32-1.74-.14.14-.03.21-.22.19-.27l-.31.16c-.22-.17-.25-.22-.15-.35-.73-.32.07.53-.75.01.08,0,.06-.04.22-.02-.85-.45-1.77-.54-2.51-1.03-.07-.45.73.23.6-.18-1.17-.44-2.53-.75-3.55-1.43l.18.15c-.42.37-.65-.69-1.29-.81.15.05.33-.14.26-.11-.65-.52-1.48-.82-2.55-1.5h.21c-.3-.41-.91-.9-1.23-1.31-.2-.02-.4-.25-.41.02-.28-.85-.81-1.36-1.33-1.9-.51-.54-.99-1.13-.98-1.91.07.16.27.31.22.19-.2-.34-.39-.69-.56-1.05-.19.17-.09.19-.16.5-.19-.09-.4-.39-.49-.69.32.49.34-.12.42-.37-.06.06-.15,0-.22.04.24-.71-.49,0-.4-.92l.13.03c-.12-.31-.32-.6-.31-.96.25-.17.15.34.38.34-.07-.47-.58-.95-.29-1.41.06.21.07.52.14.72.31-.49.23-.53.3-.88v.03c.05-.26.13-.52.22-.77-.04.06-.08.12-.11.19-.59-.72.07-1.21,0-2.12.08.91.18.22.42.4.15-.15.37-.35.41-.24-.04-.43.42-.35.47-.91.09.06.26-.24.37,0,.28-.31-.19-.07-.24-.18.15-.35.57-.52,1.01-.63.45-.11.91-.17,1.4-.47.88-.28,1.09-.59,2.04-.63.28.21-.31.31-.31.31.46.21.8.27,1.28.3-.12.06-.04.15.05.3.35.1.35-.26.76.06-.12.07-.29.19-.48.23.42.06.89.08,1.34.21.03.21-.36.1-.55.14.48.14,1.22.47,1.5.33l-.24-.25c.17.08-.03.25-.18.22-.48-.03-.51-.38-.49-.48l.32.1c-.03-.68-1.23-.53-1.81-.75l.4-.3c-.26.03-.51.06-.76.11-.1-.14-.14-.4.2-.36-.42-.34-.45.02-.81-.29-.04-.04-.01-.06.03-.07-.17,0-.34.02-.5.04.11-.07-.04-.3.25-.2-.88-.38-1.44.21-1.77-.08l.07-.03c-1.21.28-.11.3-.9.8-.24-.21-.5-.39-.79-.56l-.02.33c-.12.03-.36.1-.37-.02-.35.39.12.09-.04.38-.33,0-.68.24-.95.47-.28.22-.49.42-.72.31.02.31.53-.3.21.28-.53-.2-.41.62-.84.98-.17-.27.23-.7-.26-.3.24.5-.54,1-.57,1.52.34.1-.08,1.04.03,1.84-.15-.06-.2,1.48-.15,2.24h-.06c.38.07.47.81.72,1.3-.21.05-.34-.02-.51-.28.04.17.1.34.16.5.15.08.26.21.42.51l-.3-.02c.27.66.84,1.16,1.14,2.01.24-.1.27-.94.87-.27-.1.1-.28.26-.45.08.05.06.24.18.28.34l-.39-.18c.12.39.28.07.43.34-.17.11.01.27-.14.33-.06-.06-.09-.28-.22-.34.16.32.33.74.3.95.07-.09.21-.16.4.03.44.52-.04.33.14.71.21.04.4.46.63.27.13.15.06.27.06.38.33.18,1.22,1.12,1.14.62l-.05-.08s.03.02.05.03h0s0,0,0,0c1.03.55,1.72,1.64,2.74,2.17l-.06.08c.62.28,1.3.75,1.83.79.17.1.32.39.19.45.49.18.58.13,1.17.6-.54-.08.09.22-.53-.13.56.38.63.59,1.39.67-.33.13.32.5.65.56l-.35-.36c.34.12.62.27.9.42l-.29.23c1.12.94,2.55.3,3.31,1.27.42-.1-.66-.4-.26-.55.58.25,1.06.89,1.25.96.78.43.92-.24,1.75.13-.08-.15-.11-.47.57-.42.59.19.63.66.22.66-.15-.03-.21-.08-.2-.12-.21,0-.48-.02-.27.16l.11-.1c.28.19,1.13.38.89.52.49,0,.24-.14-.09-.29.76.34,1.24.27,2.04.54-.12-.09-.22-.24-.09-.22,1.18.35.57-.13,1.39-.05.44.24-.23.41.62.36.49.19.07.33-.15.4.79-.12,1.4.32,1.84.4l-.41.06c.25-.03.44-.01.65,0l-.21-.26c.23.06.43.08.42.18.26-.13-.15-.41.34-.58.3.14.96-.07,1.05.25-.98-.17.09.32-.75.32.16-.03.36-.01.6.04.03.04-.04.06-.1.08.94.34.46-.33,1.43-.29-.13.17.22.34.38.31-.4-.02-.18-.3.18-.43.63.14.68-.1,1.01-.09l-.37-.06c.13-.18.44-.16.87-.21.04.14-.39.1-.24.16.48-.31,1.1.29,1.77.06.32.11.05.33.33.4.74-.28.84.2,1.63-.06-.25-.22-.28-.15.25-.44-.43.1-.86.19-1.29.27l.81-.4c-.39.03-.82.21-1.06.18.39-.22.35-.16.15-.34.56.33,1.04-.28,1.68-.1l.04.59c.97.17,1.63-.48,2.85-.52l-.4-.04c.13-.26.74-.15,1.11-.3,0,.2.25.23.44.32-.05-.14.88-.15.92-.56l.58.15c.99-.1.98-.78,1.9-.93-.23.27.22.31-.36.61.31-.07.59-.1.56-.24.21.08.78-.47,1.11-.36.11-.12.09-.33.44-.4.05.03.02.09.02.09-.02-.09.49-.27.14-.4,1.1.33,2.56-.81,3.52-.59.63-.28,1.38-.62,1.96-.86-.02.07.03.09-.08.11.87-.13.29-.72,1.27-.88.58.11-.42.35-.08.35.37.56,1.06-.52,1.81-.43l-.13.1c.55.01,1.03-.72,1.79-1.01,0,0-.01.07.04.09.37-.54,1.28-1.08,1.94-1.52-.11.34-.26.28-.01.44.3-.19-.28-.32.32-.7.27.02.77-.1.96.11l-.59.32c.47.16.76-.41,1.1-.52l.03.16c.88-.54.7-.89,1.66-1.43l-.16-.04c.31-.64.55-.08.9-.65l.37.23c.29-.3.94-1.1,1.45-1.61-.14.48-.72,1.11-1.06,1.54.34-.21,1.1-.81,1.14-1.1-.1.13-.21.33-.37.38.21-.55.62-1.04,1.21-1.55.42.69,1.65-1.23,2.46-1.27.75-1.23,1.95-2.08,2.81-3.54-.82.19.24-.43-.34-.65.17-.34.24-.47.29-.48.28-.28.59-.56.87-.86.28-.18-.03.4.1.42.42-.76.39-.21.78-.67-.26.01-.14-.39.11-.83-.17.18-.34.36-.53.53.1-.61.29-.81.52-1,.22-.2.44-.41.46-1.05l.06.43c.11-.63.66-2.28.24-2.97.09-.1.28-.22.28.06.34-1.52-.25-3.36-.11-4.54l.17.1c-.09-.28-.35-.45-.26-.82.06,0,.16.09.15-.04-.06-.15-.41-.68-.42-1.06l.24.27c-.17-1.52-1.06-2.06-1.66-3.08.39-.18,0-1.3-.29-1.82l.06-.02c-.93-1.5-2.08-2.17-3.37-3.05-.23-.49-.87-1.06-1.67-1.55-.4-.24-.84-.45-1.26-.68-.44-.18-.85-.39-1.23-.58.22.14-.14.31-.43.29-.35-.19-1.07.04-.94-.33l.13.03c-.21-.42-1.04-.47-1.66-.5l-.12.52c-.77-.42-1.85-.29-2.75-.04-.92.24-1.68.58-2.19.39-.32.24-.75.41-1.04.67l-.09-.27c-.98.35-1.48.55-2.55,1.26l.12-.31c-.64.36-.35,1.17-.87,1.54l-.4-.24c-1.01.71-2.21,1.24-2.84,2.33-.03-.06-.08-.17.05-.32-.44.37-1.81,1.32-1.25,1.59-.28-.26-.91.85-1.22,1.43l-.13-.26c-.12.64-.06.72-.5,1.34-.15.11-.27-.04-.06-.16-.51.33-.12.52-.72.94l.05-.32c-.43.43-.33.46-.41.85-.18.36-.84.79-1.09.69.06.16-.02.55-.32.75-.1-.03-.05-.17-.03-.23-.84.59-.82,1.3-1.51,1.59-.07-.06-.14-.06-.2-.04.58-.55,1.04-1,1.01-.95-.18-.18-.67.25-.56-.37-.22.5-.56,1.42-1.1,1.77-.04,0-.08,0-.12,0l.03-.07c-.12.08-.2.19-.26.3-.18.1-.29.17-.43.29-.2-.1-.62.4-.87.6.2.19-.14.44.31.35-.05.02.02-.07.18-.21.03-.04.07-.08.08-.11v.03c.15-.14.35-.33.58-.55-.09.28-.21.55-.58.66,0,.24-.02.5-.04.64-.59,0-1.38.37-1.62.25-.65.74-1.74,1.46-1.96,2.24-.19.22-.35.05-.48.04.11-.13.27-.23.3-.34-.38.43-1.34.93-1.27,1.31-.69.21.17-.49-.63.05l.06-.16c-.96.2-1.51.75-2.14,1.26-.62.52-1.35,1.01-2.45.97.15,0,.23,0,.27.05-1.18.21-2.33.54-3.54.74-1.2.2-2.44.23-3.57-.13-.64-.15-.73.05-1.16.17l-.09-.32c-.25.09-.49.15-.74.21-1.06.04-1.43-1.12-2.71-1.12l.07.25c-.2-.11-.53-.23-.79-.34-.26-.13-.44-.26-.35-.34-.06.01-.23.11-.33-.06l.07-.14c-.37-.08-.7-.23-1.07-.35-.61-.59.46-.43-.46-1.18-.36-.23-1.24-.53-1.2-.34.13.13.28.39.18.52l-.37-.24c-.38.28-1.01.34-.38,1.38.26.12.53.22.8.31l.06.34-.54-.41c.17.4.49.42.78.48-.02.13.02.28.13.4l.91.07c-.01.21-.49.11-.1.49.42.01-.09-.52.5-.34.22.36.05.47.53.52,0,.14-.12.16-.3.12.41.08.99.41,1.27.27.26.42,1.27.41,1.09.82.15-.05.78-.13,1.13-.04-.39.16-.07.28.33.38.39.1.85.21.71.47.57-.36,1.82.07,2.7-.16-.05.04-.15.11-.22.08.49.06.63.2.94.3.07-.38.82-.5,1.21-.75.61.35-.33.47-.13.83-.04-.3,1.03-.39.8-.64.47.19.4.08.67.38.02-.49.41-.15.74-.5.69.14.25.43.94.14.37.07-.23.38-.23.38ZM84.63,82.81h0c-.1.11-.18.2-.24.25.05-.05.12-.12.23-.25ZM85.62,81.84c-.13.11-.28.26-.44.42-.1-.04-.13-.14-.03-.24,0,.1.26-.09.47-.18ZM82.19,82.41c.13-.17.22-.18.28-.16-.07.07-.15.16-.25.27,0,.01,0,.03,0,.04-.02-.05-.04-.11-.03-.16Z"/>
      <path class="cls-1" d="M82.15,82.94s-.02.05-.05.07c.05-.01.09-.02.14-.04,0-.04,0-.08,0-.12l-.08.08Z"/>
      <path class="cls-1" d="M50.48,99.69l.02.02s-.02-.05-.02-.07c0,.02,0,.03,0,.05Z"/>
      <polygon class="cls-1" points="100.01 70.71 99.98 70.64 99.9 70.74 100.01 70.71"/>
      <path class="cls-1" d="M47.24,92.98s.04-.05.04-.11c-.02,0-.03.05-.04.11Z"/>
      <path class="cls-1" d="M46.97,89.94c.04-.14.09-.28.14-.41-.08.18-.12.31-.14.41Z"/>
      <path class="cls-1" d="M47.6,87.75s-.07-.07-.09-.09h0s.1.09.1.09Z"/>
      <path class="cls-1" d="M75.45,106.53s.07,0,.09-.01c.22-.05.07-.03-.09.01Z"/>
      <path class="cls-1" d="M63.83,105.64c.13-.02.27-.03.4-.03-.2-.08-.35-.13-.4.03Z"/>
      <polygon class="cls-1" points="88.19 104.46 88.19 104.46 88.27 104.44 88.19 104.46"/>
      <path class="cls-1" d="M64.76,105.75c-.19-.1-.36-.14-.53-.14.16.06.35.15.53.14Z"/>
      <path class="cls-1" d="M55.91,86.72l.09.07s.02-.03.03-.03l-.13-.04Z"/>
      <path class="cls-1" d="M56.04,86.76l.13.04c-.05-.03-.1-.05-.13-.04Z"/>
      <path class="cls-1" d="M56.44,86.87l-.27-.08c.08.05.17.12.27.08Z"/>
      <path class="cls-1" d="M53.11,85.44l-.05.09s.04-.05.05-.09Z"/>
      <path class="cls-1" d="M52.22,85.34c.22.04.5.27.8.27l.04-.07c-.16.12-.61-.36-.84-.19Z"/>
      <path class="cls-1" d="M48,85.24c.26-.17.54-.31.82-.43-.19-.02-.46-.04-.09-.27-1.21.34.31.05-.74.7Z"/>
      <path class="cls-1" d="M46.2,87.51c.13-.49-.15-.05-.2-.1-.02.34-.01.42.2.1Z"/>
      <path class="cls-1" d="M55.3,103.31l-.16.2c.33.14.05-.09.16-.2Z"/>
      <polygon class="cls-1" points="59.13 103.72 58.89 103.44 58.65 103.59 59.13 103.72"/>
      <polygon class="cls-1" points="60.46 106.2 60.3 106.18 60.9 106.3 60.46 106.2"/>
      <path class="cls-1" d="M92.42,105.78l-.2-.27c-.21.13-.15.48.2.27Z"/>
      <path class="cls-1" d="M104.98,99.81c.21.06.6-.07.73-.33-.28.15-.61.21-.73.33Z"/>
      <polygon class="cls-1" points="103.17 67.63 103.47 67.52 102.89 67.61 103.17 67.63"/>
    </g>
    <g>
      <path class="cls-1" d="M53.85,98.43c.09-.01.28-.05.24-.05l-.33.05h.09Z"/>
      <path class="cls-1" d="M54.44,98.24c-.16.02-.44.05-.74.11.32-.04.18-.02.56-.07.04,0-.1.04-.22.06.08-.01-.07.03.14,0,.25-.06.26-.08.04-.06.07-.01.16-.03.22-.04Z"/>
      <path class="cls-1" d="M54.77,97.05h-.04s.03,0,.04,0Z"/>
      <path class="cls-1" d="M54.86,96.35s.04,0,.07,0c-.02,0-.04,0-.07,0Z"/>
      <path class="cls-1" d="M55.21,96.2s-.01,0-.02,0c.03,0,.05-.01.02,0Z"/>
      <path class="cls-1" d="M54.77,97.05l.1-.03c-.11.01-.08.02-.1.03Z"/>
      <path class="cls-1" d="M53.62,98.23s.05,0,.09,0c-.01,0-.03,0-.04,0h-.05Z"/>
      <path class="cls-1" d="M55.08,97.31h0s.08,0,.13-.01h-.14Z"/>
      <path class="cls-1" d="M55.16,97.53s-.27.04-.39.05c.11-.02.17-.02.19-.02.05,0,.12-.02.2-.03Z"/>
      <path class="cls-1" d="M54.74,97.98h.04s-.02,0-.04,0Z"/>
      <path class="cls-1" d="M55.11,97.14s.08-.01.1-.02c-.03,0-.07.01-.1.02Z"/>
      <path class="cls-1" d="M52.79,90.57s.03,0,.05,0c-.03,0-.05,0-.05,0Z"/>
      <polygon class="cls-1" points="54.2 90.41 54.21 90.42 54.37 90.43 54.2 90.41"/>
      <path class="cls-1" d="M55.54,95.95h0s.03,0,0,0Z"/>
      <path class="cls-1" d="M55.2,94.05c-.25.03-.32-.02-.6.02.11,0,.44.01.6-.02Z"/>
      <path class="cls-1" d="M53.66,98.21h0s0,0,0,0Z"/>
      <path class="cls-1" d="M54.59,94.08h0s-.03,0-.03,0c.01,0,.02,0,.03,0Z"/>
      <path class="cls-1" d="M55.33,95.49s-.09.01-.12.02c.03,0,.06,0,.12-.02Z"/>
      <path class="cls-1" d="M54.96,95.88h.04s-.04,0-.04,0Z"/>
      <path class="cls-1" d="M54.91,95.33s.06-.01.02-.02c-.01,0-.02,0-.03,0,.04,0,.06,0,.01.01Z"/>
      <path class="cls-1" d="M54.9,95.14s-.04,0-.06,0h.02s.04,0,.04,0Z"/>
      <path class="cls-1" d="M52.88,91.22c.08,0,.17,0,.25,0-.2,0-.27-.04-.25,0Z"/>
      <path class="cls-1" d="M53.78,98.2c-.07.01-.1.02-.12.02,0,0,0,0,.02,0,.04,0,.08-.01.1-.02Z"/>
      <path class="cls-1" d="M52.7,95.51l.04-.04s-.04.02-.04.04Z"/>
      <path class="cls-1" d="M52.87,92.73h-.03s0,0,.03,0Z"/>
      <path class="cls-1" d="M52.69,95.38c.1-.01.16-.02.19-.03-.02,0-.04,0-.07,0l-.12.03Z"/>
      <path class="cls-1" d="M53.13,91.23h0s0,0,0,0Z"/>
      <path class="cls-1" d="M52.48,90.97s.36.04.57.06c.1.04-.27,0-.46,0,.1.03.43.07.42.09-.06,0-.08,0-.16,0,.29.04,0,.08.38.13-.03,0-.06,0-.09,0,.18,0,.37.02.51.02,0,.01.23.04-.01.03,0,0-.09-.01-.16-.02l.1.02c-.35,0-.12-.03-.38-.04.11.04.4.08.3.1-.34-.01-.11-.06-.41-.05l.13-.03c-.54,0,.04-.02-.54-.03-.1.04.17.06.07.1.19.01.28.02.47.03.34.08-.86,0-.41.08.23.02.65.05.43.07l-.38-.03s.55.05.29.08c-.15-.02-.13-.04-.17-.04-.3.02.22.03.22.05h-.34c.05.04.29.1.35.15-.1,0-.21-.02-.31-.01.17.07-.05.14-.25.19l.29.03s-.13,0-.19,0c-.11.02.19,0,.3.02.02.01-.17.01-.26,0,.25.05.53.14.22.18h-.09c-.12.02.6.04.33.07h-.05c-.13.07.14.16-.31.21.42.02-.19.07.4.09-.29.04-.4.03-.6.09-.03.02.37.03.43.05h-.31s.32.03.32.03h-.37s.08.03.08.03c.02,0,.14-.02.23-.01.14.03-.22.07-.37.07l.26.07c-.12,0-.17-.01-.25-.02.31.04-.32,0-.04.04.07,0,.18,0,.25,0-.19.02-.19.06-.11.09h-.21c-.05.05.1.11.1.17.1-.02.47-.02.5,0h-.33c.2.02.12-.01.37.01-.04.02-.37.02-.48,0l.11.03c-.1,0-.15,0-.27,0,.2,0-.33.05.02.06h-.1c0,.06.11.09.13.14.28,0,.22.02.45.03-.09.04-.31.08-.28.12.14.03.24,0,.41.01-.26,0-.23.05-.42.03.04.05.05.06.26.12.11,0,.15-.02.24-.02.04.01-.11.03-.23.03h-.03c.39.06-.74.19-.21.23h-.03s.28.05.28.05c-.04.03-.19-.01-.35.02.43.05-.06.1.23.15-.75.07.06.14-.42.22h.18c.17,0-.1.01-.14.02.14,0,.16-.02.26-.02.22.11-.25.26-.4.4-.04.05.92-.03.5.05h-.33c.4.07,0,.19.34.26-.08,0-.18,0-.17,0-.24.04,0,.07.19.06-.02.02-.18.02-.28.03-.14.03.31.03.07.05-.04,0-.08,0-.1,0,.12,0-.03.06.25.03-.13.04.13.06-.03.1.31,0-.14.07.29.04-.45.03-.36.09-.15.09-.14,0-.14.03-.33.04,0,.02.09.04.33.02-.54.09.44.05-.25.14.25.05.42.1.53.16-.45.04-.05-.07-.52-.02.19.05.58.04.48.11-.06.02-.2.01-.27.01.19.04-.03.12.22.15-.04,0-.09,0-.12,0,.02,0-.06.03.14,0h-.06c.29-.05.62-.03.78-.04-.59.04-.14.07-.88.12.04,0,.14,0,.27-.01-.04.01-.12.03-.27.03.12.03.33-.01.33.02-.1,0-.14,0-.25.02.19,0,.39,0,.31.03-.06,0-.14.02-.14,0,.04.05.52.03.34.1-.43.03-.14.03-.51.08l.11.02.18-.03s.27.02.15.05h-.16s.08.04.08.04l.14-.04c.19,0,.47-.06.37-.01-.04,0,0,.03-.22.07h0c.12,0,.25,0,.16.03-.12.01-.41.05-.49.06.31-.03.09.05.43.02-.08,0-.27.03-.31.04l.25-.02c-.08.02-.12.03-.27.05-.04.04.47-.07.27,0-.02,0-.06,0-.1,0-.1.06.17.06.05.12-.37.06-.1-.02-.41.03.07.05.46.06.38.13l.04-.02c.53-.06-.25.08,0,.07-.04,0-.29.03-.23.03-.08.05.14.06.31.09h-.14c-.12.05-.06.08-.12.11.14-.01.12,0,.31-.03-.76.19.43.08-.2.24,0,0-.12,0-.12,0l.13.04c.23-.04.14-.03.31-.07.14-.01.24-.01.25,0-.16,0-.37.06-.49.09.07-.01.15-.02.22-.03-.4.09.46-.07.19.01l-.12.02c.06,0,.22,0,.19.01-.26.05-.13,0-.34.04.02.02.51-.04.25.03-.08,0-.08-.01-.15,0-.31.07-.23.06-.27.09h0s-.13.06-.13.06l.08-.02c.69-.08.13.04.59,0-.43.03-.25.03-.55.08-.08.02-.17.05-.26.06.24-.02-.18.06.17.03-.1.02,0,.02-.25.06.08.01.17-.03.29-.05.33-.02-.38.15.08.13.19.01.52-.04.69-.02-.15.04-.35.05-.35.05-.14.05-.11.06,0,.06-.08.01-.15.03-.26.05.03.01.35-.05.21,0-.11.01-.28.04-.39.05.09,0,.27,0,.36,0-.17.04-.26.03-.37.05.08,0,.16.03.43,0l.09-.03s-.23.05-.28.05c-.21.02.09-.05.18-.06h.06c.56-.11-.1-.04-.07-.07l.41-.06-.35.03c.11-.03.33-.07.4-.07.2-.06-.15,0,.07-.05.03,0,.05-.01.07-.01h-.13c.09,0,.29-.05.23-.03.23-.08-.32,0,0-.07h.03c-.15-.03-.3.05-.66.07l.74-.15-.3.05s.03-.02.15-.04c-.21.02-.13.03-.33.05.27-.07-.14-.05.34-.13-.23.03-.17.05-.34.05.51-.09-.09-.02.14-.08.27-.04.13,0,.36-.05-.45.06.09-.06,0-.07-.36.06-.16-.02-.28-.03.12-.02.19-.09.31-.14h.06c-.36.04-.3,0-.38,0,.22-.03.3-.04.4-.05v-.02c-.12.01-.18.02-.23,0l.27-.04s-.33,0-.15-.07c-.25.04-.7.14-.88.12.14-.02.37-.06.43-.06-.02,0-.12,0-.06-.01l.23-.02c.1-.03-.19.02-.17,0,.19-.03.14-.02.29-.05.02,0-.08.02,0,.02.03-.02.15-.06.29-.08-.11.02-.26.04-.29.03-.02-.03.23-.04.33-.08-.14.01,0-.03-.29.02,0,0,.14-.03.22-.04-.13,0-.05-.06-.36,0h-.02s0,0-.01,0h0s0,0,0,0c-.3,0,.15-.12.02-.15h.1c-.12-.03-.08-.07-.29-.06,0,0,.18-.04.29-.06-.08-.01-.19,0-.03-.05.17,0,.15-.03.13,0,.08-.04.24-.07-.03-.06.25-.02.31-.06.24-.07l-.18.04s-.02-.03,0-.04l.33-.04c.39-.11-.7-.02-.03-.14-.23.01-.16.05-.43.07.04-.03.51-.13.51-.13.18-.06-.49.03-.37-.03-.12.02-.43.06-.55.05.04-.03.49-.09.59-.09.01,0-.03.01-.07.02.04,0,.1,0,.22-.02h-.12c.12-.02.1-.05.3-.07-.11,0-.19.01-.25.04.17-.05,0-.05.11-.1-.06.01-.2.03-.2.03.14-.07-.23,0-.28-.03.18-.04.43-.04.28-.06.12-.03.31-.04.41-.04-.23,0,.14-.07.18-.1h.1c-.06,0-.06,0-.06-.01l-.24.04s.04-.02.14-.03c-.16,0-.39.05-.61.05.12-.03-.13-.03.18-.06-.1.05.31-.04.37,0-.04,0-.04-.01,0-.02.03,0,.06,0,.08,0,.28-.07-.36.02-.35-.02.18-.01.33-.04.3-.05,0,.02-.29.04-.43.04.13-.04-.11-.02-.09-.03l-.06.02c-.18.01-.16,0-.21-.02.14-.02.1,0,.16,0-.31.01.32-.08.1-.09.12-.02.33-.04.41-.05-.23,0,.24-.06.05-.07-.24.03-.18.03-.41.03l.17.04h-.35s.15.02.11.03c-.2,0-.14,0-.33.03.35-.06-.21-.02.03-.07l.59-.06c.26-.06-.31-.04-.16-.11l-.1.03c-.23.01-.04-.03-.13-.04.2-.02.27-.03.39-.05-.15.01.01-.04-.38,0l.26-.05c.1-.05-.56,0-.5-.04.21,0,.35-.04.51-.02,0-.01.04-.03-.1-.02.12-.02-.27-.01-.08-.04-.09,0-.29.02-.28,0,.04,0,.1,0,.1,0-.1,0-.13-.01-.35.02.61-.09-.05-.11.47-.19-.07-.02-.13-.05-.15-.08.06,0,.1,0,.08,0,.18-.05-.57.02-.37-.04.32-.04.17,0,.29-.01.65-.05-.09-.04.28-.1h.04c.22-.03-.25-.03-.21-.07,0,0,.06,0,.1,0-.33,0-.44-.04-.54-.07.25,0,.14,0,.39-.02-.04-.01-.41.03-.49,0,.14-.02.26-.05.53-.07l.02.03c.36-.04-.01-.04.05-.05h.16c-.05-.05-.45-.02-.42-.07h-.12c-.39,0,.22-.02-.07-.03l.39-.03c-.1-.01-.38-.04-.46-.06.29,0,.44.03.62.04,0-.02-.03-.05-.23-.05.04,0,.14,0,.08.02-.31,0-.46-.02-.46-.06.76-.03.19-.1.78-.15-.29-.04.12-.12.07-.18-.59.05-.02-.02-.63,0-.04-.01-.03-.02,0-.02l.36-.06c.18-.02.14,0,.27,0,.05-.04.26-.02.42-.05-.22.01-.31,0-.23-.02l-.28.04c-.33-.04.51-.06.19-.1h.19c-.11-.01,0-.08-.49-.09.07,0,.24-.02.28,0,.07-.06-.53-.12-.22-.17h.15s-.28-.01-.13-.03c.06,0,.15,0,.16,0-.05,0-.26-.02-.18-.04h.17c.19-.05-.41-.07-.52-.12.44,0,.58-.05.65-.08h.06c.05-.07-.37-.11-.54-.17.48-.04.2-.13.47-.19-.08,0-.34,0-.39-.01.09-.01-.31-.04.1-.04h0c.4,0,.29-.03.3-.06h-.53c.77-.06-.28-.17.41-.2-.13-.02-.13-.03-.26-.05h.28c.07-.04.11-.06.04-.11h.2s-.82-.04-.83-.06h.42c0-.05.37-.09-.02-.15.06,0,.18,0,.2.01.01-.02.29-.08-.29-.09.38,0,.04-.05-.13-.08h.28c-.36-.02-.45-.02-.55-.06.04,0,.22,0,.15,0,.15-.02-.26-.03-.11-.05l.18.02s-.07-.03-.28-.05c-.11-.02.07-.05.32-.04-.15,0-.36-.03-.29-.04.1,0,.15,0,.18.01.19-.04-.32-.08-.05-.1.09,0,.14,0,.17,0,0,.03-.02.06-.04.06.26,0,.3-.02.66.02-.19-.03-.61-.08-.49-.11.02,0,.05,0,.09,0h.03s0,0-.04-.01c.04,0,.07-.01.08-.02.21,0,.12-.03.13-.04-.28-.01-.24-.03-.47-.02.02,0,.03,0,.04.01,0,0,.01,0,.03,0h-.02s.01.02.02.03c-.14-.02-.26-.03-.11-.04-.18-.02-.37-.03-.45-.04.39,0,.61-.03.85-.02-.16-.05-.1-.1-.63-.16-.07-.02.15,0,.23,0,.05,0,.04.02.12.03-.13-.03-.05-.07-.42-.1.17-.02.34.04.28,0h.11c.59-.04-.93-.18-.17-.22-.05,0-.07,0-.13,0,.34-.08-.3-.24.24-.3.11-.02-.13-.04-.3-.07l.3.02-.34-.06c-.25-.06.74-.02.27-.11h-.2s-.11-.08.12-.06c-.04,0-.21-.02-.1-.02h.16s-.27-.06-.27-.06c.12-.03.62.06.66,0-.06-.03-.45-.1-.56-.1,0,0-.1.01-.26,0l-.08-.03c-.46-.04-.94-.1-1.27-.08l.28.06h-.23s-.01-.04-.01-.04c-.21,0-.03.02.1.05-.12,0-.2,0-.25,0l.44.07c-.18-.01-.36-.05-.46-.03.2.03.41.02.54.06-.21,0-.38-.02-.21.01-.12,0-.2-.02-.25-.03.14.03.06.05.3.08-.26,0,.06.06-.38.03.1.01.34.06.36.07-.52-.07-.04.06-.6,0,.47.06.2.09.46.15-.04,0-.11-.01-.09-.02-.04.02-.18.01-.27.02.39.03.48.07.72.1-.38,0-.46-.05-.82-.06.32.02.31.07.58.08-.23,0-.11,0-.44,0,.49.04.08.02.38.06-.24.01-.46-.02-.31.02-.15,0-.32-.03-.32-.03ZM53.29,91.75h0s-.02-.02-.02-.02c0,0,0,0,.02.02ZM53.29,91.81s.01-.02.01-.03c.1,0,.2,0,.19.01-.06,0-.12,0-.2.01ZM55.24,91.77s-.02.01-.07.01c0,0-.01,0-.03-.02h-.03c.05,0,.1,0,.14,0Z"/>
      <path class="cls-1" d="M54.87,91.74s-.02,0-.02,0c-.02,0-.05,0-.06,0h.09s0,0,0,0Z"/>
      <path class="cls-1" d="M54.72,97.07h0s-.02,0-.04,0c.01,0,.02,0,.03,0Z"/>
      <polygon class="cls-1" points="52.73 92.66 52.8 92.66 52.74 92.65 52.73 92.66"/>
      <path class="cls-1" d="M53.82,97.54s-.05.01-.07.02c.02,0,.04,0,.07-.02Z"/>
      <path class="cls-1" d="M53.78,97.69l-.1.04c.05-.02.08-.03.1-.04Z"/>
      <path class="cls-1" d="M53.66,97.83s.09-.01.12-.02h0s-.12.02-.12.02Z"/>
      <path class="cls-1" d="M53.09,96.09s0,0-.01,0c-.06,0-.03,0,.01,0Z"/>
      <path class="cls-1" d="M53.81,96.54c-.05,0-.1,0-.13,0-.02.01-.02.02.13,0Z"/>
      <polygon class="cls-1" points="52.7 95.51 52.7 95.51 52.7 95.51 52.7 95.51"/>
      <path class="cls-1" d="M53.67,96.52c-.05.02-.04.02,0,.03.02,0,.05-.02,0-.03Z"/>
      <path class="cls-1" d="M53.62,98.33h-.01s.03,0,.04,0h-.03Z"/>
      <path class="cls-1" d="M53.65,98.33h.03s0,0-.03,0Z"/>
      <path class="cls-1" d="M53.76,98.33h-.07s0,.01.07,0Z"/>
      <path class="cls-1" d="M53.72,98.16l-.1.02s.05,0,.1-.02Z"/>
      <path class="cls-1" d="M53.68,98.12s-.21.06-.14.07h.08c-.15,0,.23-.09.06-.07Z"/>
      <path class="cls-1" d="M54.89,97.73l-.07.05c.11-.02.25-.06.28-.05.31-.1-.24.05-.2,0Z"/>
      <path class="cls-1" d="M55.03,97.59c.05.01.16-.03.22-.03-.1,0-.12,0-.22.03Z"/>
      <path class="cls-1" d="M54.91,96.79l.25-.03s-.1.01-.25.03Z"/>
      <polygon class="cls-1" points="53.58 96.8 53.42 96.84 53.66 96.81 53.58 96.8"/>
      <polygon class="cls-1" points="55.37 96.48 55.41 96.48 55.32 96.47 55.37 96.48"/>
      <path class="cls-1" d="M55.15,95.15l-.31.03c.06,0,.41-.02.31-.03Z"/>
      <path class="cls-1" d="M54.79,94.59c.16-.02.26-.04.1-.04-.02.01-.14.03-.1.04Z"/>
      <polygon class="cls-1" points="55.26 92.84 55.36 92.85 55.27 92.83 55.26 92.84"/>
    </g>
    <g>
      <path class="cls-1" d="M66.85,103.88c.08-.02.27-.06.23-.06l-.32.07h.09Z"/>
      <path class="cls-1" d="M67.43,103.66c-.16.02-.44.08-.73.15.31-.06.18-.03.56-.1.04,0-.1.04-.22.07.08-.02-.07.03.14,0,.25-.07.25-.09.04-.06.07-.02.15-.04.21-.05Z"/>
      <path class="cls-1" d="M67.69,102.51l-.04.02s.03-.01.04-.02Z"/>
      <path class="cls-1" d="M67.71,101.83s.04,0,.07,0c-.02,0-.04,0-.07,0Z"/>
      <path class="cls-1" d="M68.04,101.64s-.01,0-.02.01c.03,0,.04-.02.02-.01Z"/>
      <path class="cls-1" d="M67.69,102.51l.1-.04c-.11.02-.08.03-.1.04Z"/>
      <path class="cls-1" d="M66.62,103.71s.05,0,.09-.01c-.01,0-.03,0-.04,0-.02,0-.03,0-.05.01Z"/>
      <path class="cls-1" d="M68.02,102.73h0s.08-.01.13-.02l-.13.02Z"/>
      <path class="cls-1" d="M68.12,102.94s-.26.06-.38.08c.11-.02.17-.03.19-.03.05-.01.11-.03.19-.05Z"/>
      <path class="cls-1" d="M67.72,103.4h.04s-.02,0-.04,0Z"/>
      <path class="cls-1" d="M68.04,102.57s.08-.02.1-.03c-.03,0-.07.02-.1.03Z"/>
      <path class="cls-1" d="M64.55,97.01s.03,0,.05-.01c-.03,0-.05,0-.05.01Z"/>
      <path class="cls-1" d="M65.85,96.44h.02c.05-.01.1-.02.15-.04l-.17.04Z"/>
      <path class="cls-1" d="M68.35,101.36s0,0,0,0c.03,0,.03,0,0,0Z"/>
      <path class="cls-1" d="M67.71,99.57c-.24.08-.32.04-.59.14.11-.03.43-.07.59-.14Z"/>
      <path class="cls-1" d="M66.66,103.69s0,0,0,0c0,0,0,0,0,0Z"/>
      <path class="cls-1" d="M67.12,99.71s0,0,0,0h-.02s.02,0,.03,0Z"/>
      <path class="cls-1" d="M68.07,100.94s-.08.02-.12.03c.03,0,.06-.02.12-.03Z"/>
      <path class="cls-1" d="M67.77,101.37l.03-.02s-.03.01-.03.02Z"/>
      <path class="cls-1" d="M67.65,100.85s.06-.02.02-.02c-.01,0-.02,0-.03,0,.04,0,.06,0,.01,0Z"/>
      <path class="cls-1" d="M67.6,100.67s-.04.01-.05.02c0,0,.01,0,.02,0l.04-.02Z"/>
      <path class="cls-1" d="M64.82,97.54c.08-.02.16-.04.24-.07-.19.05-.27.04-.24.07Z"/>
      <path class="cls-1" d="M66.77,103.67c-.07.02-.1.02-.12.02,0,0,0,0,.02,0,.04,0,.08-.02.1-.03Z"/>
      <path class="cls-1" d="M65.49,101.36l.03-.04s-.04.03-.03.04Z"/>
      <path class="cls-1" d="M65.17,98.86h-.03s0,0,.03,0Z"/>
      <path class="cls-1" d="M65.46,101.24c.1-.03.15-.05.19-.06-.02,0-.04,0-.07.01l-.11.05Z"/>
      <path class="cls-1" d="M65.06,97.47s0,0,0,0c0,0,0,0,0,0Z"/>
      <path class="cls-1" d="M64.37,97.43s.35-.07.56-.11c.11,0-.26.08-.44.13.1,0,.43-.06.42-.04-.06.02-.08.02-.15.04.29-.05.03.06.39,0-.03,0-.06.02-.09.02.18-.05.36-.09.49-.12,0,.01.23-.03,0,.03,0,0-.09.01-.16.03h.11c-.34.08-.12,0-.37.06.12,0,.4-.04.31,0-.33.08-.12-.02-.41.08l.12-.06c-.52.15.03-.03-.52.13-.09.06.18,0,.09.07.19-.03.27-.07.46-.1.34-.02-.82.24-.37.18.22-.04.64-.14.43-.05l-.38.08s.54-.11.3,0c-.15.03-.13,0-.17.02-.29.1.22-.03.22-.01l-.33.08c.06.03.31.02.38.05-.1.02-.2.04-.3.07.18.02-.01.13-.19.23l.29-.05s-.13.04-.18.05c-.1.05.18-.04.3-.06.02,0-.16.06-.25.07.25-.02.55-.01.25.1h-.09c-.11.07.59-.09.33,0h-.05c-.11.1.17.12-.25.27.41-.09-.17.11.41-.02-.28.11-.38.12-.56.22-.02.02.36-.06.43-.06l-.3.07.32-.05-.36.1h.08s.13-.05.22-.07c.14,0-.19.11-.35.15h.27c-.12.03-.16.03-.24.04.31-.04-.31.08-.03.05.07-.02.18-.04.24-.05-.18.06-.17.09-.09.1l-.21.04c-.04.06.12.07.13.13.09-.04.45-.12.49-.12l-.32.08c.2-.04.12-.04.36-.08-.03.03-.36.1-.46.11h.12c-.09.02-.15.03-.27.05.2-.04-.31.12.04.05l-.09.02c0,.05.12.05.15.09.27-.06.22-.03.44-.07-.08.05-.29.14-.25.17.14,0,.23-.05.4-.07-.25.06-.22.09-.4.12.05.04.06.05.28.06.1-.03.14-.05.23-.06.04,0-.1.05-.22.08h-.03c.39-.02-.69.32-.16.25h-.03s.28,0,.28,0c-.04.03-.19.03-.34.08.43-.04-.04.1.25.09-.73.21.08.12-.38.28l.17-.04c.17-.03-.1.04-.13.06.13-.03.15-.05.25-.07.23.06-.2.28-.33.43-.04.05.9-.19.5-.04l-.32.06c.4,0,.03.17.37.17-.08.01-.17.04-.17.03-.23.07,0,.06.19.02-.02.02-.17.04-.27.07-.13.05.31-.03.08.04-.04.01-.08.01-.1.01.12-.02-.02.06.25-.02-.12.06.13.03-.02.09.3-.06-.13.09.29-.01-.44.1-.34.14-.13.11-.13.03-.13.05-.32.09.01.02.1.02.32-.04-.52.16.44-.02-.23.16.25,0,.43.03.54.06-.44.1-.06-.05-.52.06.19.01.58-.05.48.03-.06.03-.19.04-.27.05.19.01-.01.12.24.11-.04,0-.09.01-.12.02.02,0-.06.04.14-.01h-.06c.29-.08.61-.1.77-.14-.58.12-.13.08-.86.23.04,0,.14-.02.27-.05-.04.02-.11.04-.27.07.12,0,.33-.05.33-.02-.1.02-.14.03-.25.05.19-.03.38-.06.31-.01-.06.01-.13.03-.13.03.04.04.52-.04.35.05-.42.08-.13.05-.5.14h.11s.17-.05.17-.05c0,.02.27-.02.15.03l-.15.02.08.03.13-.06c.19-.02.46-.11.37-.06-.04,0,0,.02-.21.09,0,0,0,0,0,0,.12-.02.24-.03.16,0-.12.03-.4.09-.48.11.31-.06.1.03.42-.03-.08.01-.27.06-.31.07l.25-.05c-.08.03-.11.04-.27.07-.04.04.46-.12.27-.03-.02,0-.06.01-.1.01-.09.06.17.04.06.1-.36.1-.1,0-.4.08.08.04.46,0,.39.07l.04-.02c.52-.12-.25.1,0,.06-.04,0-.29.06-.23.05-.07.05.14.04.32.05l-.13.03c-.11.05-.06.07-.11.1.13-.02.12,0,.31-.06-.74.25.43.03-.18.24,0,0-.12.01-.12.02l.13.02c.22-.06.13-.04.31-.09.13-.03.24-.04.24-.02-.15.01-.36.09-.48.13.07-.02.15-.03.22-.05-.39.12.45-.1.19,0l-.12.03c.06,0,.22-.03.19,0-.26.07-.12.01-.34.06.02.02.5-.08.25,0-.07,0-.08,0-.15,0-.3.09-.22.08-.27.1h0s-.13.06-.13.06l.08-.03c.68-.14.14.02.59-.05-.43.07-.24.05-.54.12-.08.03-.17.06-.25.08.24-.04-.18.07.17.01-.09.02,0,.02-.24.07.08,0,.16-.04.28-.07.33-.04-.37.17.08.11.19,0,.51-.07.68-.07-.15.05-.35.07-.35.07-.13.05-.11.06,0,.06-.08.02-.15.04-.26.07.03,0,.35-.07.21-.02-.11.02-.28.06-.38.07.09,0,.27-.03.36-.03-.16.04-.25.05-.36.07.08,0,.16.02.43-.04l.09-.04s-.22.06-.27.06c-.21.03.08-.05.18-.07h.06c.55-.15-.1-.03-.08-.07l.41-.08-.34.05c.1-.03.33-.09.39-.09.2-.07-.15.02.07-.05.03-.01.05-.01.07-.02h-.12c.09,0,.29-.06.23-.04.23-.09-.32.02-.01-.07h.03c-.15-.02-.3.06-.66.11l.73-.2-.3.07s.03-.02.15-.05c-.21.03-.13.03-.32.07.27-.09-.14-.03.33-.15-.23.05-.17.06-.33.08.51-.13-.09,0,.13-.08.26-.06.13,0,.36-.08-.45.09.09-.06,0-.06-.35.08-.16,0-.28,0,.12-.03.18-.1.3-.16h.06c-.36.07-.3.02-.38.02.21-.05.3-.07.4-.08v-.02c-.12.02-.18.03-.23.03l.27-.06s-.33.02-.16-.05c-.25.06-.69.19-.86.2.13-.03.36-.09.42-.09-.02,0-.11.02-.06,0l.23-.04c.1-.04-.19.04-.17.02.19-.05.13-.04.29-.08.02,0-.08.03,0,.02.03-.02.14-.07.29-.11-.11.03-.26.06-.29.06-.02-.02.23-.06.32-.1-.13.03,0-.02-.29.04,0,0,.13-.04.21-.06-.13.02-.05-.06-.35.03h-.02s0,0-.01,0h0s0,0,0,0c-.3.02.14-.13,0-.15l.1-.02c-.12,0-.08-.04-.29-.01,0,0,.17-.06.29-.08-.08,0-.19.02-.03-.05.17-.02.15-.04.13,0,.08-.05.23-.09-.04-.05.25-.05.31-.09.23-.09l-.17.06s-.02-.02,0-.04l.33-.07c.38-.15-.69.06-.04-.14-.23.04-.15.07-.42.12.04-.04.5-.17.5-.18.17-.08-.48.08-.37.02-.11.03-.42.11-.54.11.04-.03.48-.15.57-.15.01,0-.02.02-.06.02.04,0,.1,0,.22-.04l-.12.02c.11-.04.09-.07.29-.11-.11,0-.19.04-.25.07.16-.07,0-.05.1-.11-.06.02-.2.06-.2.05.13-.08-.22.03-.28.01.17-.06.42-.09.27-.09.11-.05.31-.08.4-.09-.23.02.13-.09.17-.12h.1c-.06,0-.06-.01-.06-.02l-.23.06s.04-.03.13-.05c-.15.03-.38.1-.59.13.11-.04-.13,0,.17-.08-.09.06.31-.08.36-.06-.04,0-.04,0,0-.02.03,0,.06-.01.08-.02.27-.1-.35.07-.35.02.17-.04.33-.09.29-.08,0,.02-.29.08-.42.09.13-.06-.11,0-.09-.02l-.06.03c-.17.04-.15.02-.21.01.13-.03.1,0,.15-.03-.31.05.3-.12.09-.1.11-.04.32-.08.4-.11-.23.02.23-.09.04-.08-.23.06-.17.05-.4.08h.18s-.35.06-.35.06c0,.02.15,0,.12.02-.19.03-.14.02-.33.07.34-.1-.21,0,.02-.07l.58-.14c.25-.1-.31,0-.18-.08l-.1.04c-.23.05-.04-.02-.14-.02.19-.04.26-.07.38-.11-.14.03,0-.04-.38.05l.25-.08c.09-.06-.56.09-.5.03.21-.04.34-.09.5-.1,0-.01.03-.03-.1,0,.12-.04-.27.03-.09-.03-.09.01-.29.06-.27.04.04-.01.1-.02.1-.02-.1.02-.13,0-.34.07.59-.18-.07-.1.44-.25-.07-.01-.14-.03-.16-.05.06-.01.1-.02.08-.01.17-.08-.56.11-.37.02.31-.09.17-.02.29-.06.63-.16-.1-.03.27-.14h.04c.21-.07-.25,0-.21-.04,0,0,.06-.01.1-.02-.33.05-.44.04-.54.03.25-.05.13-.02.38-.08-.04,0-.4.1-.48.09.13-.04.25-.09.51-.16l.02.02c.34-.1-.02-.03.04-.06l.15-.03c-.06-.03-.44.06-.42.01l-.11.03c-.38.07.21-.07-.08-.03l.38-.1c-.1,0-.38.03-.46.02.29-.05.44-.05.62-.07,0-.02-.04-.05-.23,0,.04,0,.13-.02.08,0-.31.05-.46.06-.46.03.75-.17.17-.13.74-.28-.29.01.09-.14.03-.19-.57.16-.02-.01-.61.13-.04,0-.03-.01,0-.02l.34-.13c.17-.05.13-.02.27-.05.04-.04.25-.07.4-.13-.21.05-.31.06-.23.02l-.27.09c-.33.03.49-.16.17-.13l.19-.03c-.12,0-.02-.09-.5,0,.07-.02.23-.06.27-.06.06-.07-.54,0-.25-.12l.15-.03s-.28.05-.13,0c.06-.01.15-.03.15-.04-.05,0-.26.03-.18,0l.17-.03c.18-.1-.42.01-.53-.01.43-.1.56-.18.62-.22h.06c.04-.09-.38-.04-.56-.06.46-.15.17-.17.41-.29-.08.03-.33.08-.38.08.08-.03-.31.03.09-.06h0c.38-.1.27-.1.28-.12l-.51.12c.73-.24-.31-.09.35-.28-.13.02-.13,0-.27.02l.28-.06c.06-.06.09-.08.01-.12l.2-.04s-.8.15-.82.13l.41-.11s.33-.18-.05-.14c.06-.01.18-.04.2-.04,0-.02.26-.15-.3-.01.37-.09.02-.06-.14-.04l.27-.06c-.35.06-.45.08-.55.08.03-.02.22-.06.15-.03.14-.06-.26.04-.12-.02l.18-.03s-.08,0-.28.03c-.11.01.06-.06.3-.12-.15.03-.35.07-.29.03.09-.02.15-.03.18-.04.17-.08-.33.01-.07-.08.09-.02.13-.03.16-.04,0,.03,0,.06-.03.07.25-.06.29-.1.64-.16-.19.02-.61.08-.5.03.02,0,.05-.01.09-.02h.03s0-.02-.04-.01c.04-.02.07-.03.07-.04.21-.05.1-.06.11-.07-.27.07-.23.04-.46.11.02,0,.03,0,.05,0,0,0,.01,0,.03,0,0,0-.02,0-.02,0,0,0,.02.02.03.03-.14.02-.26.04-.11-.01-.18.03-.36.07-.45.09.38-.11.58-.19.81-.25-.16,0-.12-.07-.64.03-.07,0,.14-.05.22-.07.05,0,.05,0,.12,0-.14,0-.07-.06-.43.02.16-.07.33-.06.27-.09l.11-.02c.56-.21-.95.09-.23-.17-.04.02-.06.02-.12.04.3-.17-.35-.13.14-.35.1-.05-.13,0-.31.02l.29-.08-.35.05c-.26.02.7-.24.22-.18l-.2.05s-.13-.03.1-.08c-.04,0-.21.04-.11.01l.15-.04-.27.02c.1-.06.61-.14.63-.2-.06,0-.46.05-.56.08,0,0-.09.04-.25.08h-.08c-.45.11-.92.2-1.23.32l.28-.04-.22.06-.02-.02c-.2.06-.02.03.11,0-.12.03-.2.05-.24.07l.44-.07c-.18.05-.35.07-.45.11.2-.03.39-.11.53-.12-.2.06-.37.1-.19.07-.12.03-.19.04-.24.05.14-.02.07.03.31-.02-.25.08.08.03-.35.13.1-.02.34-.05.36-.04-.52.1-.02.06-.57.18.47-.09.22.02.48,0-.04,0-.11.02-.09.01-.03.03-.17.07-.26.1.38-.09.48-.08.71-.12-.36.11-.45.09-.8.18.31-.07.32-.03.57-.1-.22.07-.11.04-.42.12.48-.11.08,0,.38-.06-.23.08-.45.11-.29.11-.14.05-.32.06-.32.06ZM65.35,97.89s0,0,0,0c0,0-.01,0-.02,0,0,0,.01,0,.02,0ZM65.36,97.95s0-.02,0-.03c.09-.02.19-.05.19-.04-.06.01-.12.04-.19.06ZM67.23,97.38s-.01.02-.07.03c0,0-.02,0-.04,0-.01,0-.02,0-.03,0,.05-.01.1-.02.14-.03Z"/>
      <path class="cls-1" d="M66.87,97.45s-.02,0-.02,0c-.02,0-.04.01-.06.02.03,0,.06-.01.09-.02,0,0,0,0,0,0Z"/>
      <path class="cls-1" d="M67.65,102.53h0s-.02,0-.04,0c.01,0,.02,0,.03,0Z"/>
      <polygon class="cls-1" points="65.02 98.83 65.09 98.81 65.03 98.82 65.02 98.83"/>
      <path class="cls-1" d="M66.78,103.06s-.05.01-.07.02c.02,0,.04-.01.07-.02Z"/>
      <path class="cls-1" d="M66.75,103.2l-.09.04c.05-.02.08-.03.09-.04Z"/>
      <path class="cls-1" d="M66.64,103.34s.08-.02.12-.03c0,0,0,0,0,0l-.12.03Z"/>
      <path class="cls-1" d="M65.94,101.81s0,0-.01,0c-.06,0-.03,0,.01,0Z"/>
      <path class="cls-1" d="M66.69,102.14c-.05,0-.1.01-.13.02-.02.01-.02.02.13-.02Z"/>
      <polygon class="cls-1" points="65.48 101.36 65.49 101.36 65.49 101.36 65.48 101.36"/>
      <path class="cls-1" d="M66.56,102.13c-.05.02-.04.03,0,.02.02-.01.04-.03,0-.02Z"/>
      <path class="cls-1" d="M66.62,103.8h-.01s.03,0,.04,0h-.03Z"/>
      <path class="cls-1" d="M66.65,103.8h.03s0,0-.03,0Z"/>
      <path class="cls-1" d="M66.76,103.79h-.07s0,.02.07,0Z"/>
      <path class="cls-1" d="M66.71,103.64l-.1.02s.05-.01.1-.02Z"/>
      <path class="cls-1" d="M66.67,103.61s-.21.07-.14.07l.08-.02c-.15.03.23-.09.06-.06Z"/>
      <path class="cls-1" d="M67.86,103.15l-.07.05c.1-.03.24-.07.27-.06.31-.12-.23.06-.2.01Z"/>
      <path class="cls-1" d="M67.99,103c.05,0,.15-.04.21-.05-.1.01-.12.01-.21.05Z"/>
      <path class="cls-1" d="M67.81,102.24l.25-.06s-.1.02-.25.06Z"/>
      <polygon class="cls-1" points="66.49 102.4 66.34 102.45 66.57 102.41 66.49 102.4"/>
      <polygon class="cls-1" points="68.24 101.9 68.28 101.9 68.18 101.89 68.24 101.9"/>
      <path class="cls-1" d="M67.85,100.64l-.31.08c.06,0,.4-.08.31-.08Z"/>
      <path class="cls-1" d="M67.41,100.17c.15-.04.25-.08.09-.06-.02.02-.13.06-.09.06Z"/>
      <polygon class="cls-1" points="67.51 98.39 67.62 98.38 67.53 98.38 67.51 98.39"/>
    </g>
    <g>
      <path class="cls-1" d="M79.98,103.68c.09-.01.27-.06.23-.07l-.32.07h.09Z"/>
      <path class="cls-1" d="M80.55,103.43c-.16.02-.44.06-.73.14.32-.05.18-.03.56-.09.04,0-.1.05-.22.08.08-.01-.06.04.14,0,.24-.08.25-.11.04-.09.07-.02.15-.04.21-.05Z"/>
      <path class="cls-1" d="M80.7,101.75l-.04.02s.03-.01.04-.02Z"/>
      <path class="cls-1" d="M80.68,100.74s.04,0,.07,0c-.02,0-.04,0-.07,0Z"/>
      <path class="cls-1" d="M81.01,100.5s-.01,0-.02.01c.03,0,.05-.02.02-.01Z"/>
      <path class="cls-1" d="M80.7,101.75l.1-.05c-.11.02-.08.03-.1.05Z"/>
      <path class="cls-1" d="M79.72,103.4s.05,0,.09,0c-.01,0-.03,0-.04,0h-.05Z"/>
      <path class="cls-1" d="M81.06,102.12h0s.08,0,.13-.01h-.14Z"/>
      <path class="cls-1" d="M81.18,102.44s-.26.05-.39.07c.11-.02.17-.03.19-.03.05-.01.11-.03.19-.05Z"/>
      <path class="cls-1" d="M80.81,103.07h.04s-.02,0-.04,0Z"/>
      <path class="cls-1" d="M81.06,101.87s.08-.02.1-.02c-.03,0-.07.02-.1.02Z"/>
      <path class="cls-1" d="M77.69,92.73s.03,0,.05,0c-.03,0-.05,0-.05,0Z"/>
      <polygon class="cls-1" points="79.06 92.25 79.07 92.26 79.23 92.25 79.06 92.25"/>
      <path class="cls-1" d="M81.31,100.13h0s.03,0,0,0Z"/>
      <path class="cls-1" d="M80.65,97.39c-.24.07-.33,0-.6.08.11-.02.44-.02.6-.08Z"/>
      <path class="cls-1" d="M79.76,103.38s0,0,0-.01c0,0,0,.01,0,.01Z"/>
      <path class="cls-1" d="M80.06,97.47h0s-.03,0-.03,0c.01,0,.02,0,.03,0Z"/>
      <path class="cls-1" d="M81.02,99.47s-.08.02-.12.03c.03,0,.06-.01.12-.03Z"/>
      <path class="cls-1" d="M80.72,100.06l.03-.02s-.03.02-.03.02Z"/>
      <path class="cls-1" d="M80.58,99.27s.06-.02.02-.02c-.01,0-.02,0-.03,0,.04,0,.06,0,.01.01Z"/>
      <path class="cls-1" d="M80.53,98.98s-.04,0-.05.01h.02s.04-.01.04-.01Z"/>
      <path class="cls-1" d="M77.89,93.62c.08-.01.17-.02.25-.03-.2.02-.27-.02-.25.03Z"/>
      <path class="cls-1" d="M79.88,103.36c-.07.01-.1.02-.12.02,0,0,.01,0,.02,0,.04,0,.08-.02.1-.03Z"/>
      <path class="cls-1" d="M78.39,99.62l.03-.05s-.04.04-.03.05Z"/>
      <path class="cls-1" d="M78.12,95.73h-.03s0,0,.03,0Z"/>
      <path class="cls-1" d="M78.36,99.44c.1-.02.15-.04.19-.06-.02,0-.04,0-.07,0l-.12.05Z"/>
      <path class="cls-1" d="M78.14,93.59h0s0,0,0,0Z"/>
      <path class="cls-1" d="M77.45,93.33s.36,0,.57,0c.11.05-.27.04-.46.08.1.03.44.03.43.05-.06,0-.08.01-.16.01.3.01.02.1.39.12-.03,0-.06,0-.09.01.18-.02.37-.03.5-.04,0,.02.24.02,0,.04,0-.01-.09,0-.17,0h.11c-.34.06-.12,0-.38.01.12.03.41.06.31.1-.34.03-.12-.06-.42,0l.13-.06c-.53.08.04-.03-.53.05-.09.07.18.06.08.13.19-.01.28-.02.47-.03.35.06-.85.14-.39.17.23,0,.66-.03.43.04h-.38c-.03.08.55,0,.3.09-.15,0-.13-.04-.18-.02-.3.07.22.01.22.04l-.34.03c.06.06.31.11.38.18-.1,0-.21,0-.31.03.18.08-.03.2-.22.31h.3s-.13.03-.19.03c-.11.04.19-.02.3,0,.02.02-.17.04-.25.04.25.04.55.12.24.22h-.09c-.11.06.6,0,.34.07h-.05c-.12.12.16.21-.27.34.42-.03-.18.13.41.07-.28.09-.39.08-.58.19-.02.03.37,0,.43.02l-.31.03h.33s-.36.06-.36.06l.08.02s.14-.04.22-.05c.14.03-.2.13-.36.14l.27.07c-.12.01-.17,0-.25,0,.32.02-.32.05-.03.06.07-.01.18-.02.24-.02-.18.04-.18.1-.09.13l-.21.02c-.04.08.12.14.13.23.09-.04.46-.08.5-.06l-.32.05c.2,0,.12-.04.37-.04-.03.04-.37.06-.47.06l.12.02c-.1,0-.15.01-.27.02.2,0-.32.1.03.08h-.1c0,.1.12.12.15.19.28-.03.22,0,.45,0-.08.06-.29.14-.26.2.14.02.24-.02.41-.02-.25.03-.22.09-.41.08.05.07.06.09.28.15.1-.02.15-.04.23-.05.04.01-.1.05-.22.06h-.03c.39.05-.71.33-.17.34h-.03s.29.05.29.05c-.04.04-.19,0-.35.05.44.03-.04.15.25.19-.74.16.08.2-.39.34l.18-.03c.18,0-.1.04-.14.06.14-.02.16-.04.25-.05.24.14-.2.39-.34.59-.04.07.92-.1.51.04l-.33.03c.41.07.03.27.38.34-.08,0-.17.02-.18,0-.23.06,0,.1.2.07-.02.02-.17.03-.27.06-.14.05.31.02.08.07-.04,0-.08,0-.1,0,.12,0-.02.09.25.02-.12.07.14.07-.02.13.31-.03-.13.11.3.04-.45.07-.35.14-.13.14-.14.01-.14.05-.32.07.01.03.1.05.33,0-.52.15.45.05-.23.2.26.06.44.12.56.2-.44.08-.06-.09-.53,0,.2.05.59.04.5.14-.06.03-.19.02-.27.03.2.05,0,.17.25.21-.04,0-.09,0-.12,0,.02.01-.06.05.14,0h-.06c.29-.08.62-.06.78-.08-.58.08-.13.1-.87.2.04,0,.14,0,.27-.03-.04.02-.11.04-.27.05.12.03.33-.03.34.02-.1.01-.14.02-.25.03.19-.01.39-.02.31.03-.06,0-.13.03-.14.02.04.07.53.02.36.14-.43.06-.13.05-.5.13l.12.02.17-.05s.27.02.16.07h-.16s.08.06.08.06l.13-.07c.2,0,.46-.09.37-.03-.04,0,0,.04-.21.1h0c.12,0,.25-.01.16.03-.12.02-.41.08-.48.09.31-.04.1.07.43.03-.08,0-.27.05-.31.06l.25-.03c-.08.03-.11.04-.27.07-.04.06.46-.11.27,0-.02,0-.06,0-.1,0-.09.08.18.08.07.16-.37.09-.1-.03-.41.05.08.07.47.08.4.17l.04-.02c.52-.1-.24.11,0,.1-.04,0-.29.05-.23.04-.07.07.15.08.33.13l-.14.02c-.11.06-.05.1-.11.14.14-.02.12,0,.31-.05-.74.26.45.11-.16.34,0-.01-.12,0-.12,0l.14.05c.22-.06.13-.04.31-.09.14-.02.24-.02.25,0-.16,0-.36.08-.49.12.07-.01.15-.03.22-.05-.39.13.46-.09.2.02l-.12.02c.07,0,.23,0,.2.02-.26.07-.13,0-.34.05.02.03.51-.05.25.04-.08,0-.08-.02-.16-.01-.3.1-.22.09-.26.12h0s-.13.08-.13.08l.08-.03c.69-.11.14.05.6,0-.43.04-.25.05-.54.11-.08.03-.17.07-.25.09.24-.03-.18.08.18.04-.09.02,0,.03-.24.08.08.02.16-.05.28-.07.34-.02-.37.21.1.18.2.02.52-.04.69-.02-.15.05-.35.06-.35.06-.13.06-.1.08.01.09-.08.01-.15.04-.26.07.03.02.35-.06.22,0-.11.02-.28.05-.39.07.09,0,.28,0,.37,0-.16.05-.26.04-.37.06.08.02.17.05.43,0l.09-.04s-.22.06-.27.06c-.21.02.08-.06.18-.09h.07c.55-.15-.11-.06-.09-.1l.41-.08-.35.04c.1-.03.33-.09.39-.09.19-.08-.15,0,.07-.07.03-.01.05-.01.07-.02h-.13c.09-.01.29-.07.23-.04.22-.11-.32-.01-.02-.1h.03c-.15-.04-.3.06-.66.09l.73-.2-.3.06s.03-.03.15-.05c-.21.02-.13.03-.32.06.26-.1-.15-.07.32-.19-.23.04-.17.07-.33.07.51-.13-.1-.02.13-.11.27-.05.13.01.36-.07-.45.08.08-.09,0-.09-.35.08-.16-.03-.29-.05.12-.02.18-.13.29-.2h.06c-.36.06-.3,0-.38-.02.22-.05.3-.06.4-.06v-.03c-.12.02-.19.02-.23.01l.27-.05s-.33-.01-.17-.1c-.25.05-.69.19-.87.17.13-.03.37-.08.42-.08-.02,0-.12,0-.06-.01l.23-.03c.1-.05-.19.03-.18,0,.19-.04.13-.04.29-.07.02,0-.08.03,0,.02.03-.03.14-.08.28-.12-.11.03-.26.06-.29.05-.02-.04.23-.06.32-.11-.14.02,0-.04-.29.02,0-.01.13-.04.21-.06-.13,0-.06-.09-.36,0h-.02s0,0-.01,0h0s0,0,0,0c-.3,0,.13-.18,0-.22l.1-.02c-.12-.02-.08-.08-.3-.06,0-.01.17-.06.29-.08-.08-.02-.19,0-.04-.07.18,0,.15-.04.13,0,.08-.06.23-.1-.04-.09.25-.04.31-.09.23-.1l-.17.06s-.02-.04,0-.06l.33-.06c.38-.16-.7-.01-.05-.21-.23.02-.15.08-.42.11.04-.05.5-.18.5-.19.17-.09-.49.05-.37-.03-.11.03-.42.1-.54.08.04-.05.48-.14.58-.14.01,0-.02.02-.06.03.04,0,.1.01.22-.03l-.12.02c.12-.04.09-.09.29-.12-.12,0-.19.02-.25.06.16-.08-.01-.08.09-.15-.06.02-.2.05-.2.05.13-.1-.23,0-.29-.03.17-.06.43-.07.27-.09.11-.05.31-.06.41-.07-.23,0,.13-.11.17-.15h.1c-.06,0-.06,0-.06-.02l-.23.06s.04-.03.13-.05c-.16.01-.39.08-.6.09.12-.04-.14-.03.17-.1-.09.08.31-.06.37-.02-.04,0-.04-.01,0-.04.03,0,.06,0,.08,0,.27-.11-.36.04-.36-.02.18-.02.33-.07.29-.08,0,.02-.29.06-.43.07.13-.06-.11-.02-.1-.04l-.06.03c-.18.02-.16,0-.22-.02.14-.03.1,0,.16-.01-.31.03.31-.12.09-.13.11-.04.33-.06.41-.09-.23,0,.23-.09.04-.11-.23.06-.17.05-.41.06l.18.05h-.35s.16.03.12.06c-.2.01-.14,0-.33.05.35-.1-.22-.03.01-.11l.58-.1c.25-.1-.32-.05-.18-.15l-.1.04c-.23.03-.04-.04-.14-.05.19-.03.26-.06.38-.09-.14.03,0-.06-.39,0l.25-.08c.09-.08-.57.03-.51-.04.21-.02.35-.07.51-.06,0-.02.03-.04-.1-.02.12-.03-.27,0-.09-.06-.09,0-.29.04-.28.01.04,0,.1-.02.1-.02-.1.02-.14-.01-.35.04.6-.16-.07-.16.44-.3-.07-.03-.14-.07-.16-.11.06,0,.1-.02.08,0,.17-.08-.56.06-.37-.03.31-.08.18,0,.29-.03.64-.11-.1-.06.27-.16h.04c.21-.06-.26-.03-.22-.09,0,0,.06,0,.1-.01-.33.02-.45-.03-.55-.06.25-.02.14,0,.39-.05-.04-.02-.41.07-.49.04.14-.04.25-.09.52-.13l.02.04c.35-.08-.02-.05.04-.08l.15-.02c-.06-.05-.45,0-.43-.07l-.12.02c-.39.02.21-.06-.08-.06l.39-.07c-.1,0-.39-.03-.47-.06.29-.02.45.01.63.02,0-.02-.04-.08-.24-.06.04,0,.14,0,.08.02-.31.02-.47,0-.47-.05.76-.1.17-.15.76-.27-.29-.04.1-.18.04-.27-.58.12-.02-.03-.63.06-.04-.02-.03-.03,0-.04l.35-.12c.17-.04.14,0,.27-.02.04-.06.25-.06.41-.11-.22.04-.31.03-.23-.01l-.27.08c-.33-.03.5-.13.17-.16h.19c-.12-.02-.01-.14-.51-.11.07-.02.23-.05.28-.04.06-.1-.54-.12-.25-.23h.15s-.28,0-.14-.04c.06,0,.15-.01.16-.02-.05,0-.27,0-.18-.04h.17c.18-.11-.42-.08-.53-.14.44-.05.57-.14.64-.18h.06c.04-.11-.38-.13-.56-.2.47-.11.18-.21.43-.33-.08.02-.34.04-.39.03.09-.03-.31-.02.09-.07h0c.39-.05.28-.08.29-.12l-.53.05c.75-.17-.31-.2.37-.33-.13,0-.13-.03-.27-.04l.28-.03c.07-.07.1-.1.02-.17h.2s-.82.03-.84-.01l.42-.05c-.01-.07.35-.18-.04-.22.06,0,.18-.01.2,0,0-.04.27-.16-.3-.09.38-.04.03-.08-.14-.1l.28-.02c-.36,0-.45,0-.56-.03.04-.01.22-.03.15,0,.14-.05-.27,0-.12-.06h.18s-.08-.03-.29-.03c-.11-.01.06-.08.31-.11-.15,0-.36,0-.29-.02.09-.01.15,0,.18,0,.18-.08-.33-.07-.06-.13.09,0,.14-.02.17-.02,0,.05-.01.09-.03.09.26-.02.3-.07.65-.07-.2-.02-.62-.03-.5-.08.02,0,.05,0,.09-.01h.03s0-.02-.04-.02c.04-.02.07-.03.07-.04.21-.02.11-.06.12-.08-.28.03-.24,0-.47.04.02,0,.03,0,.05.01,0,0,.01,0,.03,0h-.02s.02.03.02.05c-.14,0-.26-.01-.11-.05-.18,0-.37,0-.45,0,.39-.06.6-.13.84-.16-.16-.05-.12-.14-.65-.13-.07-.01.15-.03.23-.05.05,0,.05.02.12.02-.14-.02-.06-.1-.43-.08.16-.06.34,0,.28-.06h.11c.58-.16-.95-.13-.21-.31-.05.01-.07.02-.13.03.32-.17-.34-.29.18-.48.1-.05-.13-.04-.31-.05l.3-.03-.35-.02c-.26-.05.73-.15.25-.21l-.2.02s-.13-.08.11-.09c-.04,0-.21,0-.11-.01h.16s-.27-.06-.27-.06c.11-.06.63-.03.65-.11-.06-.03-.46-.06-.57-.04,0,.01-.1.04-.25.05l-.08-.02c-.47.02-.94.03-1.26.11l.29.03-.22.03-.02-.04c-.21.03-.02.04.11.05-.12.01-.2.02-.25.03l.45.02c-.18.02-.36,0-.46.04.21,0,.41-.04.54-.02-.21.03-.38.04-.2.05-.12.01-.2,0-.25,0,.14.02.06.06.31.06-.26.04.07.08-.37.1.11,0,.35.02.37.04-.53,0-.03.08-.59.11.48,0,.22.09.48.13-.04,0-.11,0-.09,0-.04.03-.18.05-.27.07.39-.02.48.02.73.03-.37.06-.46,0-.82.04.32-.02.32.04.58.01-.23.04-.11.03-.43.07.49-.03.08.02.39.02-.24.06-.46.04-.31.08-.15.03-.32,0-.32,0ZM78.38,94.3h0s-.01-.01-.02-.02c0,0,.01,0,.02.02ZM78.39,94.39s.01-.02,0-.04c.1-.01.2-.02.19,0-.06,0-.12.03-.2.05ZM80.32,94.04s-.01.02-.07.03c0,0-.02-.01-.04-.02h-.03c.05,0,.1,0,.14,0Z"/>
      <path class="cls-1" d="M79.95,94.05s-.02,0-.02,0c-.02,0-.05,0-.06.01h.09s0,0,0,0Z"/>
      <path class="cls-1" d="M80.66,101.77h0s-.02,0-.04,0c.01,0,.02,0,.03,0Z"/>
      <polygon class="cls-1" points="77.97 95.65 78.04 95.64 77.98 95.64 77.97 95.65"/>
      <path class="cls-1" d="M79.82,102.44s-.05.01-.07.02c.02,0,.04-.01.07-.02Z"/>
      <path class="cls-1" d="M79.8,102.65l-.09.05c.05-.02.08-.04.09-.05Z"/>
      <path class="cls-1" d="M79.7,102.84s.08-.02.12-.02h0s-.12.02-.12.02Z"/>
      <path class="cls-1" d="M78.87,100.41s0,0-.01,0c-.06,0-.03,0,.01,0Z"/>
      <path class="cls-1" d="M79.65,101.03c-.05,0-.1,0-.14,0-.02.02-.02.03.14,0Z"/>
      <polygon class="cls-1" points="78.39 99.63 78.39 99.63 78.39 99.62 78.39 99.63"/>
      <path class="cls-1" d="M79.52,101c-.05.02-.04.03,0,.04.02-.01.04-.03,0-.04Z"/>
      <path class="cls-1" d="M79.73,103.54h0s.03,0,.04,0h-.03Z"/>
      <path class="cls-1" d="M79.76,103.54h.03s0,0-.03,0Z"/>
      <path class="cls-1" d="M79.87,103.54h-.07s0,.01.07,0Z"/>
      <path class="cls-1" d="M79.81,103.31l-.1.02s.05-.01.1-.02Z"/>
      <path class="cls-1" d="M79.76,103.25s-.2.09-.14.09l.08-.02c-.15.02.23-.1.06-.08Z"/>
      <path class="cls-1" d="M80.93,102.71l-.07.07c.1-.03.24-.08.27-.06.3-.14-.23.07-.21,0Z"/>
      <path class="cls-1" d="M81.05,102.52c.06.02.15-.03.21-.05-.1,0-.13,0-.21.05Z"/>
      <path class="cls-1" d="M80.8,101.36l.25-.05s-.1.02-.25.05Z"/>
      <polygon class="cls-1" points="79.46 101.4 79.31 101.45 79.54 101.42 79.46 101.4"/>
      <polygon class="cls-1" points="81.22 100.91 81.26 100.91 81.16 100.9 81.22 100.91"/>
      <path class="cls-1" d="M80.78,98.99l-.31.06c.06,0,.41-.05.31-.06Z"/>
      <path class="cls-1" d="M80.33,98.2c.15-.03.25-.07.1-.06-.02.02-.14.06-.1.06Z"/>
      <polygon class="cls-1" points="80.51 95.6 80.62 95.61 80.53 95.59 80.51 95.6"/>
    </g>
    <g>
      <path class="cls-1" d="M93.53,99.02c.09,0,.27-.06.23-.08l-.33.05.1.02Z"/>
      <path class="cls-1" d="M94.08,98.69c-.16,0-.45.03-.74.12.32-.04.19,0,.57-.05.04.02-.09.07-.21.1.08,0-.06.06.14.03.24-.09.24-.14.02-.14.07-.03.15-.04.22-.05Z"/>
      <path class="cls-1" d="M94,95.86l-.04.03s.03-.02.04-.03Z"/>
      <path class="cls-1" d="M93.86,94.13s.04.01.07,0c-.02,0-.05-.01-.07,0Z"/>
      <path class="cls-1" d="M94.17,93.78s-.01.01-.02.02c.03-.01.04-.02.02-.02Z"/>
      <path class="cls-1" d="M94,95.86l.09-.07c-.11.02-.07.04-.09.07Z"/>
      <path class="cls-1" d="M93.22,98.49s.05,0,.09,0c-.02,0-.03,0-.04-.02h-.05Z"/>
      <path class="cls-1" d="M94.42,96.55h0s.08,0,.13,0h-.14Z"/>
      <path class="cls-1" d="M94.59,97.11s-.27.04-.39.06c.11-.02.17-.02.19-.01.05-.01.11-.03.19-.05Z"/>
      <path class="cls-1" d="M94.3,98.11h.04s-.03,0-.04,0Z"/>
      <path class="cls-1" d="M94.39,96.13s.08-.02.1-.03c-.03,0-.07.02-.1.03Z"/>
      <path class="cls-1" d="M90.47,80.06s.03,0,.05,0c-.03,0-.05,0-.05,0Z"/>
      <polygon class="cls-1" points="91.85 79.35 91.86 79.36 92.02 79.36 91.85 79.35"/>
      <path class="cls-1" d="M94.43,93.19h0s.03,0,0,0Z"/>
      <path class="cls-1" d="M93.53,88.38c-.24.08-.33-.05-.6.06.11-.02.44.03.6-.06Z"/>
      <path class="cls-1" d="M93.25,98.47s0-.01,0-.02c0,.01,0,.02,0,.02Z"/>
      <path class="cls-1" d="M92.94,88.44h0s-.03.01-.03.01c.01,0,.02,0,.03-.01Z"/>
      <path class="cls-1" d="M94.07,92.01s-.08.02-.12.03c.03,0,.06-.01.12-.03Z"/>
      <path class="cls-1" d="M93.82,92.98l.03-.03s-.03.02-.03.03Z"/>
      <path class="cls-1" d="M93.6,91.6s.06-.03.02-.04c-.01,0-.02,0-.03.01.04,0,.06,0,.02.03Z"/>
      <path class="cls-1" d="M93.53,91.11s-.04.01-.05.02h.02s.04-.02.04-.02Z"/>
      <path class="cls-1" d="M90.65,81.6c.08-.01.17-.02.25-.03-.2.02-.27-.06-.25.03Z"/>
      <path class="cls-1" d="M93.37,98.46c-.07.01-.1.02-.12.01,0,0,.01,0,.02.01.04,0,.08-.02.1-.03Z"/>
      <path class="cls-1" d="M91.41,91.91l.03-.09s-.03.06-.03.09Z"/>
      <path class="cls-1" d="M90.91,85.24l-.04-.02s0,.01.04.02Z"/>
      <path class="cls-1" d="M91.36,91.59c.1-.03.15-.05.19-.07-.02,0-.04,0-.07,0l-.11.07Z"/>
      <path class="cls-1" d="M90.91,81.57h0s0,0,0,0Z"/>
      <path class="cls-1" d="M90.22,81.06c0,.08.36.02.58.03.11.09-.27.05-.46.09.1.05.44.09.43.13-.06,0-.08.01-.16,0,.3.05.02.18.39.24-.03,0-.06,0-.09.01.18-.02.37-.03.51-.03,0,.03.24.05,0,.08,0-.02-.09-.02-.17-.03l.11.03c-.35.05-.12-.04-.38-.03.12.07.41.14.31.19-.34.03-.12-.12-.42-.04l.13-.09c-.53.09.04-.05-.53.03-.09.11.18.12.08.23.19.02.28-.02.47,0,.35.14-.85.16-.39.25.23.02.66.01.43.1h-.38c-.03.1.55.02.3.15-.15-.01-.13-.08-.18-.06-.3.09.22.04.22.1l-.34.03c.06.11.31.22.38.34-.1,0-.21-.02-.31.02.18.15-.02.34-.22.5l.3.04s-.13.03-.19.02c-.11.07.19,0,.3.01.02.03-.17.05-.25.04.25.09.55.26.25.4l-.09-.02c-.11.09.61.06.34.16h-.05c-.12.18.17.37-.26.54.42,0-.17.2.41.17-.28.13-.39.1-.58.27-.02.04.37.03.44.08l-.31.02.33.04-.36.06.08.04s.13-.05.22-.05c.14.06-.2.19-.36.21l.27.15c-.12,0-.17-.02-.25-.04.32.07-.32.04-.03.1.07-.02.18,0,.25-.01-.18.06-.18.15-.09.22h-.21c-.04.14.13.26.13.41.09-.06.46-.08.5-.04l-.32.05c.2,0,.12-.05.37-.02-.03.06-.37.07-.47.05l.12.05c-.1.01-.15,0-.27,0,.2,0-.32.14.04.15h-.1c.01.16.13.21.15.33.28-.02.22.03.45.04-.08.09-.29.21-.26.31.15.06.24,0,.41.01-.25.03-.22.13-.41.1.05.12.07.15.29.29.1-.03.15-.05.23-.05.04.02-.1.08-.22.08h-.03c.4.13-.7.48-.16.56h-.03s.29.11.29.11c-.04.07-.2-.02-.35.05.44.11-.03.25.26.35-.74.19.09.35-.37.54l.18-.03c.18.01-.1.05-.13.08.14-.02.15-.06.25-.05.25.27-.18.64-.3.96-.03.12.92-.06.52.14h-.33c.42.17.05.46.41.63-.08,0-.18.01-.18-.01-.23.08.01.17.21.14-.02.04-.17.03-.27.07-.13.07.32.07.09.13-.04,0-.08,0-.1,0,.12.01,0,.14.26.08-.12.1.14.14,0,.23.31,0-.13.16.31.11-.45.06-.34.2-.12.22-.14,0-.13.07-.32.07.02.06.11.1.34.05-.52.19.46.15-.21.32.27.14.46.27.58.41-.45.07-.07-.17-.54-.08.21.12.6.14.52.31-.05.05-.2,0-.27,0,.21.12,0,.29.27.38-.04,0-.09,0-.13,0,.02.02-.06.07.15.03l-.06-.02c.29-.09.63,0,.79-.02-.59.05-.12.15-.87.21.04.01.14.02.28-.01-.04.03-.11.05-.27.05.13.07.34,0,.34.09-.1.02-.14,0-.26.02.2,0,.4.02.33.1-.06,0-.14.03-.14,0,.05.12.54.12.38.28-.43.04-.13.07-.5.14l.12.05.17-.06c0,.06.28.07.17.15l-.16-.02.09.1.13-.09c.2.03.46-.09.38.01-.04-.01,0,.06-.2.13h0c.12,0,.25.02.17.08-.12.03-.41.06-.48.09.31-.03.11.13.45.11-.08,0-.27.04-.31.05l.25-.02c-.07.04-.11.06-.27.08-.03.1.46-.11.28.03-.02,0-.06,0-.1,0-.09.12.2.17.09.29-.36.1-.11-.07-.41.02.09.13.5.2.44.35l.04-.03c.52-.08-.24.15.02.17-.04,0-.29.03-.23.03-.07.11.16.16.36.27h-.14c-.11.09-.04.16-.09.23.14,0,.12.03.31-.03-.72.33.47.26-.13.54,0-.02-.13-.02-.12,0l.15.11c.22-.06.13-.05.3-.11.14-.01.25,0,.26.04-.16-.03-.36.08-.48.13.07-.01.15-.03.22-.04-.39.15.46-.08.21.07l-.12.02c.07.02.23.02.21.07-.26.07-.13-.01-.35.03.03.05.52,0,.27.11-.08,0-.09-.04-.16-.05-.3.12-.22.11-.26.16h0s-.12.12-.12.12l.08-.04c.7-.08.15.11.62.11-.44,0-.25.04-.55.1-.08.04-.16.1-.25.1.25,0-.17.11.19.1-.09.02,0,.05-.24.09.09.04.16-.05.28-.07.34.02-.35.29.13.32.21.07.53.01.72.08-.14.07-.35.05-.35.05-.13.09-.09.12.03.15-.09,0-.15.03-.26.07.03.04.35-.05.22.03-.11.01-.28.04-.39.05.1.03.29.04.38.07-.16.05-.26.03-.37.03.09.04.18.11.45.07l.09-.06s-.22.06-.27.06c-.22,0,.08-.09.17-.11l.07.02c.55-.16-.12-.12-.11-.2l.41-.06h-.35c.1-.04.33-.1.39-.08.19-.1-.15-.01.06-.11.03-.01.05-.01.07-.01l-.13-.02c.09,0,.28-.07.23-.03.21-.14-.34-.08-.04-.18h.03c-.17-.09-.3.06-.67.04l.72-.23-.3.05s.02-.05.14-.07c-.21,0-.13.04-.33.05.26-.12-.16-.14.31-.26-.23.03-.16.1-.33.07.51-.13-.1-.06.12-.16.27-.04.14.04.36-.06-.45.06.07-.13-.02-.16-.36.07-.17-.07-.31-.13.12-.02.16-.19.28-.29h.06c-.36.05-.31-.04-.4-.08.22-.04.3-.05.41-.04v-.05c-.13.01-.19,0-.24-.02l.27-.04c-.03-.07-.35-.07-.19-.2-.25.05-.68.21-.87.15.13-.03.37-.08.43-.07-.02,0-.12,0-.06-.03h.24c.09-.07-.19,0-.18-.03.19-.04.13-.05.29-.08.02,0-.07.04,0,.04.03-.04.13-.11.28-.16-.11.03-.26.05-.29.03-.03-.07.23-.07.32-.13-.14.01,0-.06-.3,0,0-.02.13-.05.21-.08-.13-.01-.07-.16-.37-.06h-.02s0,.01-.01,0h0s0,0,0,0c-.31-.06.12-.28-.03-.37l.1-.02c-.12-.05-.1-.14-.31-.15,0-.02.17-.08.28-.1-.08-.04-.19-.02-.05-.13.18.02.15-.05.13.03.07-.09.22-.13-.06-.16.25-.02.3-.11.22-.13l-.17.08s-.03-.07-.01-.1l.33-.04c.37-.22-.72-.13-.08-.36-.24,0-.15.11-.42.12.03-.07.49-.23.49-.25.16-.12-.49,0-.39-.11-.11.03-.42.1-.55.05.03-.07.48-.17.58-.14.01.01-.02.03-.06.03.05.01.1.03.22-.02h-.12c.11-.04.08-.13.28-.14-.12-.03-.2.01-.25.06.15-.11-.02-.13.08-.24-.06.03-.2.06-.2.05.12-.15-.23-.02-.3-.09.17-.08.43-.06.26-.12.11-.07.31-.07.41-.06-.24-.04.12-.17.16-.23l.1.03c-.06-.02-.06-.04-.06-.06l-.23.06s.03-.05.13-.07c-.16,0-.39.09-.6.07.11-.05-.14-.08.16-.14-.09.12.31-.06.37.01-.04-.01-.04-.03,0-.06.03,0,.06,0,.08,0,.26-.14-.36.01-.37-.09.18-.02.33-.08.29-.09,0,.04-.29.07-.43.05.13-.09-.11-.05-.1-.09l-.06.05c-.18.02-.16-.02-.22-.06.14-.03.1.03.16,0-.32,0,.3-.17.08-.2.11-.05.33-.06.4-.1-.24-.04.23-.12.03-.18-.23.06-.17.06-.41.04l.19.11-.36-.03s.16.06.13.09c-.2-.01-.14-.02-.33.04.34-.11-.22-.08,0-.18l.58-.09c.24-.14-.33-.13-.2-.28l-.09.06c-.23.02-.04-.07-.15-.1.2-.03.26-.06.38-.1-.14.02,0-.1-.39-.05l.25-.1c.09-.12-.57-.03-.52-.14.22,0,.35-.07.51-.03,0-.03.03-.07-.11-.05.12-.04-.28-.05-.1-.11-.09,0-.29.03-.28-.01.04,0,.1-.01.1-.01-.1.01-.14-.04-.35.03.59-.19-.09-.28.43-.45-.08-.06-.15-.14-.17-.2.06,0,.1-.01.08,0,.17-.12-.57.02-.38-.11.31-.1.18.03.29-.02.64-.11-.11-.11.26-.23h.04c.21-.07-.26-.08-.23-.18,0,0,.06,0,.1-.01-.34-.01-.46-.11-.56-.18.26,0,.14.02.39-.03-.04-.03-.41.07-.49,0,.13-.04.25-.11.52-.16l.02.07c.35-.08-.02-.09.03-.13l.16-.02c-.06-.1-.45-.05-.44-.17l-.12.03c-.39-.01.21-.08-.09-.11l.39-.07c-.1-.03-.4-.1-.48-.16.3,0,.46.07.64.11,0-.04-.05-.14-.24-.13.04.01.14.02.08.04-.31-.01-.47-.06-.48-.14.76-.08.16-.24.75-.37-.3-.11.09-.3.02-.47-.58.13-.02-.05-.63.03-.04-.04-.04-.05,0-.06l.35-.16c.17-.05.14.02.27,0,.04-.09.25-.07.41-.14-.22.04-.31,0-.24-.05l-.27.1c-.34-.08.5-.16.16-.25l.2.02c-.12-.05-.02-.23-.52-.24.07-.02.23-.05.28-.03.06-.16-.55-.28-.27-.43h.15s-.28-.02-.14-.07c.06,0,.15,0,.16-.02-.05,0-.27-.05-.19-.09h.17c.18-.15-.43-.17-.55-.28.44-.04.57-.17.63-.24h.06c.04-.18-.39-.26-.58-.4.47-.14.17-.35.42-.53-.08.03-.34.03-.39,0,.09-.04-.31-.08.09-.1h0c.39-.05.28-.11.29-.17l-.53.03c.75-.22-.31-.39.37-.52-.13-.03-.14-.07-.27-.1l.28-.02c.06-.11.1-.16.02-.29h.2c.01-.06-.82-.02-.84-.09l.42-.05c-.02-.13.35-.28-.04-.38.06,0,.18,0,.2.01,0-.06.27-.25-.31-.19.38-.03.03-.13-.14-.19h.28c-.36-.04-.46-.04-.56-.11.04-.02.22-.03.15,0,.14-.07-.27-.03-.12-.12l.18.02c.02-.07-.08-.06-.29-.08-.11-.03.06-.13.31-.15-.15,0-.36-.02-.29-.07.09-.01.15,0,.18,0,.18-.12-.33-.15-.06-.24.09,0,.14-.01.17-.02,0,.09-.01.16-.03.15.26-.01.3-.09.66-.05-.2-.05-.62-.12-.5-.19.02,0,.05,0,.09-.01h.03s0-.02-.04-.04c.04-.02.07-.04.07-.06.21-.02.11-.09.12-.12-.28.02-.24-.03-.47.02.02,0,.03,0,.05.03,0,0,.01.01.03.01h-.02s.02.05.02.09c-.14-.02-.27-.04-.11-.09-.18-.01-.37-.02-.46-.03.39-.07.6-.17.84-.2-.16-.1-.12-.25-.65-.29-.07-.03.15-.04.23-.06.05.02.05.04.12.04-.14-.05-.06-.18-.43-.18.16-.08.34.03.28-.07h.11c.58-.22-.95-.29-.21-.55-.05.02-.07.03-.13.03.32-.27-.33-.53.19-.81.1-.08-.13-.08-.31-.12l.3-.02-.35-.07c-.26-.1.74-.21.25-.33l-.2.02c.04-.05-.12-.16.11-.15-.04,0-.21-.01-.11-.03h.16s-.27-.12-.27-.12c.11-.1.63,0,.66-.14-.06-.05-.46-.14-.57-.12,0,.02-.1.05-.26.06l-.08-.05c-.47,0-.94-.03-1.27.09l.29.08-.23.03-.02-.07c-.21.04-.02.06.11.09-.12,0-.2.02-.25.04l.45.07c-.18.01-.36-.03-.46.03.21.03.41-.04.54.02-.21.04-.38.04-.2.08-.12,0-.2,0-.25-.02.14.04.06.11.31.12-.26.05.07.14-.37.14.11.01.35.06.37.1-.53-.06-.03.14-.59.14.48.04.21.18.48.26-.04,0-.11-.01-.09-.02-.04.05-.18.07-.27.11.39,0,.48.07.73.11-.38.07-.46-.02-.82,0,.32-.01.32.1.58.07-.23.05-.11.04-.44.08.49,0,.08.04.39.07-.24.08-.46.03-.31.1-.15.04-.32-.02-.32-.02ZM91.15,82.82h0s-.01-.03-.02-.04c0,0,.01.02.02.04ZM91.16,82.97s.01-.04,0-.07c.1-.01.2-.01.19,0-.07,0-.12.03-.2.06ZM93.09,82.55s-.01.03-.07.04c0-.01-.02-.02-.04-.04h-.03c.05,0,.1,0,.14,0Z"/>
      <path class="cls-1" d="M92.72,82.53s-.02,0-.02,0c-.02,0-.05.01-.06.02h.09s0,0,0,0Z"/>
      <path class="cls-1" d="M93.96,95.89h0s-.02,0-.04,0c.01,0,.02,0,.03,0Z"/>
      <polygon class="cls-1" points="90.76 85.08 90.83 85.08 90.77 85.07 90.76 85.08"/>
      <path class="cls-1" d="M93.18,96.89s-.05.01-.07.03c.02,0,.04-.01.07-.03Z"/>
      <path class="cls-1" d="M93.19,97.25l-.09.07c.05-.03.07-.05.09-.07Z"/>
      <path class="cls-1" d="M93.11,97.55s.09-.01.12-.02h0s-.12.02-.12.02Z"/>
      <path class="cls-1" d="M91.97,93.31s0,0-.01,0c-.06-.02-.03,0,.01,0Z"/>
      <path class="cls-1" d="M92.84,94.48c-.05,0-.1,0-.14-.02-.02.03-.02.05.14.02Z"/>
      <polygon class="cls-1" points="91.4 91.92 91.41 91.92 91.41 91.91 91.4 91.92"/>
      <path class="cls-1" d="M92.69,94.4c-.05.03-.04.05,0,.06.02-.02.04-.05,0-.06Z"/>
      <path class="cls-1" d="M93.25,98.74v.02s.02,0,.04,0h-.04Z"/>
      <path class="cls-1" d="M93.28,98.74h.04s0,0-.04,0Z"/>
      <path class="cls-1" d="M93.39,98.77h-.08s0,.01.08,0Z"/>
      <path class="cls-1" d="M93.29,98.35l-.1.02s.05,0,.1-.02Z"/>
      <path class="cls-1" d="M93.24,98.25s-.2.11-.13.13h.08c-.15,0,.22-.15.05-.13Z"/>
      <path class="cls-1" d="M94.37,97.53l-.06.11c.1-.04.24-.09.28-.06.29-.18-.23.08-.22-.05Z"/>
      <path class="cls-1" d="M94.47,97.22c.06.04.15-.03.21-.04-.1,0-.13-.01-.21.04Z"/>
      <path class="cls-1" d="M94.06,95.22l.25-.04s-.1.02-.25.04Z"/>
      <polygon class="cls-1" points="92.69 95.08 92.54 95.14 92.77 95.12 92.69 95.08"/>
      <polygon class="cls-1" points="94.43 94.52 94.47 94.52 94.37 94.48 94.43 94.52"/>
      <path class="cls-1" d="M93.79,91.16l-.31.06c.06.02.41-.03.31-.06Z"/>
      <path class="cls-1" d="M93.27,89.74c.15-.04.25-.09.09-.1-.02.04-.13.08-.09.1Z"/>
      <polygon class="cls-1" points="93.31 85.28 93.42 85.3 93.32 85.25 93.31 85.28"/>
    </g>
    <g>
      <path class="cls-1" d="M106.04,93.66c.09,0,.28-.02.24-.05h-.33s.09.05.09.05Z"/>
      <path class="cls-1" d="M106.63,93.39c-.16-.02-.45-.03-.75.02.32,0,.19.03.57.03.04.03-.1.07-.22.07.09,0-.07.06.14.05.25-.07.26-.12.04-.15.07-.02.16-.02.22-.02Z"/>
      <path class="cls-1" d="M106.83,90.25l-.04.02s.03-.02.04-.02Z"/>
      <path class="cls-1" d="M106.82,88.32s.04.02.07.01c-.02-.01-.04-.02-.07-.01Z"/>
      <path class="cls-1" d="M107.16,87.96s-.01.01-.02.02c.03-.01.05-.02.02-.02Z"/>
      <path class="cls-1" d="M106.83,90.25l.1-.06c-.11,0-.08.03-.1.06Z"/>
      <path class="cls-1" d="M105.79,93.04s.05.01.09.02c-.02,0-.03-.01-.04-.02h-.05Z"/>
      <path class="cls-1" d="M107.18,91.06v.02s.09,0,.14,0h-.14Z"/>
      <path class="cls-1" d="M107.29,91.7s-.27,0-.39.01c.12,0,.17,0,.19.01.05,0,.12-.02.2-.03Z"/>
      <path class="cls-1" d="M106.91,92.78h.04s-.02,0-.04,0Z"/>
      <path class="cls-1" d="M107.19,90.59s.08-.01.1-.02c-.03,0-.07.01-.1.02Z"/>
      <path class="cls-1" d="M103.7,72.59s.03,0,.05,0c-.03,0-.05,0-.05,0Z"/>
      <polygon class="cls-1" points="105.05 71.76 105.07 71.77 105.22 71.76 105.05 71.76"/>
      <path class="cls-1" d="M107.46,87.33h0s.03,0,0,0Z"/>
      <path class="cls-1" d="M106.79,81.86c-.25.08-.33-.08-.6.04.11-.02.44.05.6-.04Z"/>
      <path class="cls-1" d="M105.82,93.02s0-.02,0-.03c0,.01,0,.02,0,.03Z"/>
      <path class="cls-1" d="M106.19,81.9h0s-.03.01-.03.01c.01,0,.02,0,.03-.01Z"/>
      <path class="cls-1" d="M107.17,85.97s-.09.02-.12.02c.03,0,.06,0,.12-.02Z"/>
      <path class="cls-1" d="M106.86,87.03l.04-.03s-.03.02-.04.03Z"/>
      <path class="cls-1" d="M106.73,85.47s.06-.02.02-.04c-.01,0-.02,0-.03,0,.04,0,.06.01.01.03Z"/>
      <path class="cls-1" d="M106.68,84.91s-.04,0-.06.02l.02.02.04-.03Z"/>
      <path class="cls-1" d="M103.93,74.28c.08-.02.16-.03.25-.04-.2.02-.27-.06-.25.04Z"/>
      <path class="cls-1" d="M105.95,93.03c-.07,0-.11,0-.12,0,0,0,.01.01.02.02.04,0,.08,0,.11-.01Z"/>
      <path class="cls-1" d="M104.52,85.64l.03-.09s-.04.06-.03.09Z"/>
      <path class="cls-1" d="M104.22,78.28l-.03-.02s0,.01.03.02Z"/>
      <path class="cls-1" d="M104.49,85.28c.1-.02.15-.05.19-.07-.02,0-.04,0-.07,0l-.12.07Z"/>
      <path class="cls-1" d="M104.18,74.24h0s0,0,0,0Z"/>
      <path class="cls-1" d="M103.48,73.69c0,.09.36.02.58.03.11.09-.27.06-.46.11.1.06.44.09.43.13-.06,0-.08.02-.16.01.3.05.03.2.4.25-.03,0-.06.01-.09.02.18-.02.37-.04.51-.04,0,.04.24.06,0,.08,0-.02-.09-.02-.17-.03l.11.03c-.34.06-.12-.05-.38-.03.12.07.41.14.31.21-.34.03-.12-.13-.42-.04l.12-.1c-.53.1.03-.06-.53.04-.09.13.18.13.09.25.19.02.28-.03.47,0,.35.15-.84.19-.39.28.23.02.66,0,.44.11h-.39c-.03.11.56.03.3.16-.15-.01-.13-.08-.18-.06-.3.1.22.04.22.1l-.34.03c.06.12.31.24.38.38-.1,0-.21-.02-.31.02.18.16-.02.37-.21.55l.3.05s-.13.04-.19.02c-.11.07.19,0,.3.02.02.04-.17.06-.25.04.26.1.56.29.25.44l-.09-.02c-.11.1.61.07.34.17h-.05c-.11.2.17.41-.26.59.42,0-.17.22.41.19-.28.14-.39.11-.58.29-.02.05.37.04.44.09l-.31.02.33.05-.37.06.08.05s.14-.05.22-.06c.14.07-.2.21-.36.22l.27.17c-.12,0-.17-.02-.25-.04.32.08-.32.04-.03.11.07-.02.18,0,.25,0-.18.06-.18.16-.09.24h-.21c-.04.14.12.29.13.45.09-.06.46-.08.5-.03l-.32.04c.2.02.12-.06.37-.01-.03.06-.37.07-.47.04l.12.06c-.1.01-.15,0-.27,0,.2.02-.32.15.04.16h-.1c0,.17.13.23.15.36.28-.02.22.04.45.06-.08.1-.3.22-.26.33.15.07.24,0,.41.03-.25.02-.22.14-.41.09.05.13.06.17.28.33.1-.03.15-.05.24-.05.04.03-.1.08-.22.08h-.03c.4.16-.71.5-.17.61h-.03s.29.13.29.13c-.04.08-.2-.03-.35.04.44.14-.04.28.25.4-.74.17.08.39-.39.57l.18-.02c.18.02-.1.05-.14.09.14-.01.16-.05.25-.04.24.31-.21.69-.34,1.04-.04.13.92,0,.51.18l-.33-.02c.41.21.03.5.38.72-.08,0-.18,0-.18-.02-.23.07,0,.19.2.17-.02.04-.18.02-.27.05-.14.06.32.1.08.15-.04,0-.08,0-.1-.02.12.02-.02.16.26.1-.12.1.14.16-.02.25.31.02-.14.17.3.14-.45.03-.35.19-.13.23-.14,0-.14.06-.33.06.01.06.1.12.33.09-.53.17.46.2-.23.33.26.17.44.34.56.5-.45.03-.06-.19-.53-.14.2.15.59.21.5.38-.06.05-.2,0-.27-.01.2.15-.01.32.25.45-.04,0-.09,0-.12-.02.02.03-.06.07.14.05l-.06-.02c.29-.07.63.06.79.05-.59,0-.13.16-.88.15.04.02.14.03.28.01-.04.03-.12.05-.27.03.12.09.33.04.34.13-.1,0-.14,0-.26,0,.2.03.39.06.32.15-.06,0-.14.02-.14,0,.04.13.53.18.36.35-.43,0-.14.06-.51.11l.12.07.18-.05c0,.07.28.11.16.18l-.16-.04.08.12.13-.09c.2.05.47-.05.37.05-.04-.02,0,.07-.21.13h0c.12.02.25.05.16.11-.12.02-.41.03-.49.04.31,0,.1.16.44.17-.08,0-.27.01-.31.02h.25c-.08.04-.12.05-.27.06-.04.1.47-.08.28.06-.02,0-.06,0-.1-.01-.09.13.18.21.07.33-.37.07-.1-.08-.41-.02.08.15.48.28.41.43l.04-.03c.53-.03-.25.14,0,.19-.04-.01-.3,0-.24,0-.07.11.15.2.33.33h-.14c-.12.07-.05.16-.11.23.14,0,.12.05.31,0-.75.28.45.34-.17.58,0-.02-.12-.04-.12-.02l.14.14c.23-.04.14-.03.31-.08.14,0,.25.04.25.08-.16-.05-.37.04-.49.08.07,0,.15-.01.22-.02-.4.12.46-.03.2.1h-.12c.07.04.23.06.2.11-.26.04-.13-.03-.35-.01.02.06.52.07.26.15-.08-.02-.08-.06-.16-.07-.31.09-.23.09-.27.14h0s-.13.11-.13.11l.08-.04c.7,0,.14.14.61.2-.44-.06-.25,0-.55.03-.08.03-.17.08-.26.08.25.02-.18.1.18.13-.1.01,0,.05-.25.07.08.06.17-.03.29-.04.34.06-.38.27.09.37.2.1.53.09.7.19-.15.05-.36,0-.36,0-.14.08-.11.12.01.17-.09,0-.16.02-.26.05.03.04.36,0,.22.07-.11,0-.28,0-.39,0,.1.05.28.08.38.13-.17.03-.26,0-.37-.02.08.06.17.15.44.14l.09-.05s-.23.04-.28.02c-.22-.03.08-.09.18-.1l.07.03c.56-.1-.11-.15-.08-.24h.42s-.35-.06-.35-.06c.11-.03.34-.07.4-.03.2-.08-.15-.04.07-.11.03,0,.06,0,.07,0l-.13-.04c.09,0,.29-.04.23,0,.23-.13-.33-.13-.02-.2h.03c-.15-.12-.31.02-.67-.05l.74-.15-.31.02s.03-.05.15-.05c-.21-.03-.13.02-.33.01.27-.1-.15-.18.33-.25-.23,0-.17.09-.34.03.52-.07-.1-.08.13-.17.27,0,.13.07.37-.02-.46,0,.09-.13,0-.18-.36.03-.16-.1-.29-.18.12,0,.18-.19.3-.29h.06c-.37.02-.31-.08-.39-.13.22-.02.31-.02.41,0v-.06c-.13,0-.19-.01-.24-.05h.27c-.02-.09-.34-.14-.17-.26-.26.02-.7.15-.88.06.14-.02.37-.05.43-.02-.02,0-.12-.02-.06-.05l.24.02c.1-.06-.2,0-.18-.04.2-.02.14-.04.29-.05.02,0-.08.04,0,.05.03-.05.14-.11.29-.14-.11.01-.26.03-.29,0-.02-.08.23-.05.33-.11-.14,0,0-.07-.3-.04,0-.02.14-.04.21-.06-.13-.03-.06-.19-.36-.11h-.02s0,0-.01,0h0s0,0,0,0c-.31-.11.14-.3,0-.42h.1c-.12-.08-.08-.18-.3-.22,0-.02.17-.07.29-.07-.08-.05-.19-.05-.04-.15.18.04.15-.04.13.05.08-.09.23-.12-.04-.18.25,0,.31-.09.23-.12l-.18.07s-.02-.08,0-.12h.33c.39-.21-.71-.24-.05-.42-.24-.02-.15.1-.43.09.04-.08.51-.2.5-.22.17-.12-.49-.05-.38-.17-.12.02-.43.07-.55,0,.04-.08.49-.14.59-.1.01.02-.02.03-.07.03.05.02.1.05.22,0h-.12c.12-.05.09-.15.29-.14-.12-.05-.2,0-.25.04.16-.11,0-.15.1-.26-.06.02-.2.05-.2.03.13-.16-.23-.04-.29-.14.18-.07.43-.02.27-.1.12-.07.31-.04.41-.03-.24-.07.13-.18.17-.24l.1.04c-.06-.02-.06-.05-.06-.07l-.23.05s.04-.05.14-.06c-.16-.01-.39.06-.61.02.12-.05-.14-.1.17-.14-.1.13.31-.04.37.05-.04-.02-.04-.04,0-.07.03,0,.07,0,.08,0,.27-.14-.36-.02-.36-.13.18,0,.33-.06.29-.07,0,.05-.29.05-.43.02.13-.09-.11-.07-.1-.11l-.06.05c-.18,0-.16-.04-.22-.08.14-.02.1.04.16.01-.32-.03.31-.16.09-.22.12-.05.33-.03.41-.07-.24-.07.23-.12.04-.2-.24.05-.18.05-.41,0l.18.14-.35-.07s.16.09.12.12c-.2-.03-.14-.03-.33,0,.35-.1-.22-.11.02-.2l.59-.05c.25-.13-.32-.17-.18-.33l-.1.06c-.24,0-.04-.09-.14-.12.2-.01.27-.05.39-.08-.15.02,0-.11-.39-.09l.25-.09c.1-.13-.57-.08-.51-.2.22.02.35-.05.51.01,0-.04.03-.07-.1-.06.12-.03-.27-.08-.09-.13-.09,0-.29,0-.28-.04.04,0,.1,0,.1,0-.1,0-.14-.05-.35,0,.6-.17-.07-.32.45-.46-.07-.08-.14-.17-.16-.24.06,0,.1,0,.08,0,.17-.12-.57-.02-.38-.15.31-.09.18.05.29,0,.65-.07-.1-.13.27-.24l.04.02c.21-.08-.26-.13-.22-.23,0,0,.06,0,.1,0-.34-.04-.46-.16-.55-.24.26,0,.14.03.39,0-.04-.04-.41.05-.49-.03.14-.04.25-.11.53-.14l.02.08c.35-.07-.02-.1.04-.15h.16c-.06-.12-.45-.09-.43-.23l-.12.02c-.39-.04.21-.08-.08-.13l.39-.05c-.1-.04-.39-.13-.47-.21.3.02.45.11.63.16,0-.05-.04-.16-.24-.16.04.02.14.03.08.06-.31-.03-.47-.1-.47-.19.76-.04.17-.26.76-.37-.3-.14.1-.34.04-.52-.59.11-.02-.05-.63,0-.04-.04-.03-.06,0-.07l.35-.16c.18-.05.14.03.27.02.04-.1.26-.06.41-.14-.22.03-.31-.01-.24-.07l-.28.1c-.33-.11.5-.16.17-.27l.2.03c-.12-.06-.02-.26-.51-.29.07-.02.23-.05.28-.02.06-.17-.55-.34-.26-.49h.15s-.28-.03-.14-.08c.06,0,.15,0,.16-.01-.05-.01-.27-.06-.18-.11l.17.02c.18-.18-.43-.22-.54-.35.44-.03.57-.17.64-.24h.06c.04-.2-.39-.3-.57-.47.47-.14.17-.39.43-.58-.08.03-.34.02-.39,0,.09-.05-.31-.09.09-.12v.02c.39-.06.28-.14.28-.2l-.53.03c.75-.23-.31-.44.37-.58-.13-.03-.14-.09-.27-.12l.28-.02c.06-.12.1-.18.02-.32l.2.02c.01-.08-.82-.05-.84-.12l.42-.05c-.02-.14.35-.31-.05-.42.06,0,.18,0,.2.02,0-.07.27-.28-.31-.22.38-.03.03-.15-.14-.21h.28c-.36-.05-.46-.04-.56-.13.03-.02.22-.03.15,0,.14-.08-.27-.04-.12-.13l.18.02c.02-.07-.08-.06-.29-.09-.11-.04.06-.14.31-.17-.15,0-.36-.03-.29-.08.09-.01.15,0,.18,0,.18-.13-.33-.16-.07-.26.09,0,.14-.02.17-.02,0,.1-.01.18-.03.17.26-.02.3-.1.65-.06-.2-.05-.62-.13-.51-.22.02,0,.05,0,.09-.02h.03s0-.03-.04-.04c.04-.03.07-.04.07-.07.21-.02.11-.1.12-.14-.28.02-.24-.03-.47.03.02,0,.03,0,.05.03,0,0,.01.01.03.01h-.02s.02.06.02.1c-.14-.02-.27-.05-.11-.1-.18-.01-.37-.02-.46-.03.39-.08.59-.19.83-.22-.16-.11-.12-.28-.65-.32-.07-.03.15-.05.23-.07.05.02.05.04.12.05-.14-.06-.06-.2-.43-.19.16-.1.34.03.27-.09h.11c.58-.26-.96-.31-.22-.62-.05.02-.07.03-.13.04.32-.31-.35-.59.17-.91.1-.09-.13-.08-.32-.12l.3-.03-.35-.07c-.26-.11.73-.25.24-.38l-.2.03c.04-.06-.13-.17.1-.17-.04,0-.21,0-.11-.03h.16s-.28-.13-.28-.13c.11-.11.63-.02.65-.17-.06-.05-.47-.14-.57-.11,0,.02-.1.06-.25.07l-.08-.05c-.47.01-.94,0-1.26.14l.29.08-.22.04-.02-.08c-.21.05-.02.07.11.1-.12.01-.2.03-.25.05l.45.07c-.18.02-.36-.02-.46.04.21.03.41-.06.54,0-.21.05-.38.05-.2.09-.12.01-.2,0-.25-.01.15.04.07.12.32.13-.26.06.08.15-.36.17.11,0,.35.06.37.1-.53-.05-.02.16-.59.17.48.03.22.19.49.28-.04,0-.11-.01-.09-.02-.04.06-.18.08-.27.12.39-.01.49.07.73.1-.37.09-.46-.02-.82.03.32-.02.32.1.59.06-.23.07-.11.05-.43.1.49-.02.09.04.39.07-.24.09-.46.05-.3.12-.15.05-.33-.02-.33-.02ZM104.45,75.62h0s-.01-.03-.02-.04c0,0,.01.02.02.04ZM104.46,75.78s.01-.05,0-.07c.1-.01.2-.01.19,0-.07,0-.12.04-.2.07ZM106.38,75.31s-.01.04-.07.04c0-.01-.02-.03-.04-.04h-.03c.05,0,.1,0,.14,0Z"/>
      <path class="cls-1" d="M106.01,75.29s-.02,0-.02,0c-.02,0-.04.01-.06.02h.09s0,0,0,0Z"/>
      <path class="cls-1" d="M106.78,90.27h0s-.02,0-.04,0c.01,0,.02,0,.03,0Z"/>
      <polygon class="cls-1" points="104.07 78.11 104.14 78.1 104.08 78.09 104.07 78.11"/>
      <path class="cls-1" d="M105.91,91.28s-.05.01-.07.02c.02,0,.04-.01.07-.02Z"/>
      <path class="cls-1" d="M105.89,91.68l-.09.07c.05-.03.08-.05.09-.07Z"/>
      <path class="cls-1" d="M105.78,91.99s.09,0,.12,0h0s-.12,0-.12,0Z"/>
      <path class="cls-1" d="M104.99,87.22s0,0-.01-.01c-.06-.02-.03,0,.01.01Z"/>
      <path class="cls-1" d="M105.78,88.59c-.05-.01-.1-.02-.14-.03-.02.03-.02.05.14.03Z"/>
      <polygon class="cls-1" points="104.51 85.65 104.52 85.65 104.52 85.64 104.51 85.65"/>
      <path class="cls-1" d="M105.64,88.49c-.05.03-.04.05,0,.07.02-.02.04-.05,0-.07Z"/>
      <path class="cls-1" d="M105.79,93.32v.02s.02,0,.03,0h-.03Z"/>
      <path class="cls-1" d="M105.83,93.33h.03s0,0-.03,0Z"/>
      <path class="cls-1" d="M105.93,93.37l-.07-.03s0,.03.07.03Z"/>
      <path class="cls-1" d="M105.88,92.9h-.1s.05,0,.1,0Z"/>
      <path class="cls-1" d="M105.84,92.78s-.21.1-.14.13h.08c-.15,0,.23-.12.06-.13Z"/>
      <path class="cls-1" d="M107.04,92.15l-.07.11c.11-.03.25-.07.28-.02.31-.16-.24.05-.21-.09Z"/>
      <path class="cls-1" d="M107.16,91.82c.06.05.16-.02.22-.02-.1-.02-.13-.03-.22.02Z"/>
      <path class="cls-1" d="M106.94,89.54l.26-.02s-.1,0-.26.02Z"/>
      <polygon class="cls-1" points="105.58 89.23 105.42 89.29 105.66 89.29 105.58 89.23"/>
      <polygon class="cls-1" points="107.37 88.8 107.41 88.82 107.31 88.76 107.37 88.8"/>
      <path class="cls-1" d="M106.94,84.99l-.31.04c.06.02.41,0,.31-.04Z"/>
      <path class="cls-1" d="M106.48,83.37c.16-.03.25-.09.1-.1-.02.04-.14.09-.1.1Z"/>
      <polygon class="cls-1" points="106.62 78.37 106.73 78.4 106.64 78.34 106.62 78.37"/>
    </g>
    <g>
      <path class="cls-1" d="M38.83,74.76c.08.04.28.05.25-.03l-.32-.09.07.12Z"/>
      <path class="cls-1" d="M39.52,74.37c-.15-.11-.41-.25-.72-.25.3.14.17.14.52.29.03.08-.13.11-.24.08.08.04-.09.1.11.17.27-.06.3-.17.11-.32.08-.01.16.03.22.04Z"/>
      <path class="cls-1" d="M42.75,68.53h-.06s.04,0,.06,0Z"/>
      <path class="cls-1" d="M45.81,65.81s0,.06,0,.08c0-.04.02-.07,0-.08Z"/>
      <path class="cls-1" d="M46.59,65.7s-.03,0-.05,0c.03.02.05.02.05,0Z"/>
      <path class="cls-1" d="M42.75,68.53l.15-.02c-.08-.07-.1,0-.15.02Z"/>
      <path class="cls-1" d="M38.93,73.25s.03.06.07.08c0-.02-.02-.05-.02-.07l-.05-.02Z"/>
      <path class="cls-1" d="M41.94,70.14l-.02.03s.06.06.1.09l-.08-.12Z"/>
      <path class="cls-1" d="M41.34,71.36s-.22-.15-.33-.22c.1.07.14.11.14.14.05.02.11.05.19.07Z"/>
      <path class="cls-1" d="M40.11,73.22l.03.05s-.02-.03-.03-.05Z"/>
      <path class="cls-1" d="M42.53,69.37s.07.04.09.05c-.03-.02-.06-.04-.09-.05Z"/>
      <path class="cls-1" d="M45.71,58.69s-.01-.03-.02-.05c0,.03.01.05.02.05Z"/>
      <polygon class="cls-1" points="43.68 58.24 43.69 58.21 43.6 58.08 43.68 58.24"/>
      <path class="cls-1" d="M47.82,65.33h0s0,.03,0,0Z"/>
      <path class="cls-1" d="M60.63,61.89c-.64-.21-.17-.31-.97-.54.23.1.4.41.97.54Z"/>
      <path class="cls-1" d="M38.98,73.22s0-.04.01-.06c-.02.03-.02.04-.01.06Z"/>
      <path class="cls-1" d="M59.66,61.35h0s-.07-.02-.07-.02c.03,0,.05.02.08.02Z"/>
      <path class="cls-1" d="M50.31,63.93s-.05-.07-.07-.1c.01.03.03.06.07.1Z"/>
      <path class="cls-1" d="M48.17,64.48h.06s-.05,0-.06,0Z"/>
      <path class="cls-1" d="M51.22,63.16s.06.04.08,0c0-.01-.02-.02-.02-.03,0,.04-.01.06-.06.03Z"/>
      <path class="cls-1" d="M52.35,62.79s-.02-.03-.04-.05l-.03.02.07.02Z"/>
      <path class="cls-1" d="M48.87,57.73c-.03-.08-.06-.16-.08-.25.04.2-.12.29.08.25Z"/>
      <path class="cls-1" d="M39.09,73.29c-.07-.02-.1-.04-.11-.07,0,.02,0,.03,0,.05.04.01.08.02.1.02Z"/>
      <path class="cls-1" d="M50.54,61.05l.21-.03c-.06,0-.14,0-.21.03Z"/>
      <path class="cls-1" d="M56.55,59.11l-.03.02s0,0,.03-.02Z"/>
      <path class="cls-1" d="M51.32,60.79c.06.08.12.13.17.15,0-.02,0-.04,0-.08l-.17-.07Z"/>
      <path class="cls-1" d="M48.8,57.48h0s0,0,0,0Z"/>
      <path class="cls-1" d="M47.76,58.32c.16-.03,0-.37,0-.59.18-.14.14.25.24.42.1-.12.14-.47.24-.47.02.06.04.08.03.16.09-.32.39-.06.5-.45.02.03.02.06.03.09-.04-.18-.07-.37-.08-.5.08-.02.13-.25.18-.01-.05,0-.04.09-.06.17l.07-.11c.11.34-.1.13-.08.39.15-.13.31-.43.45-.34.05.34-.28.14-.09.42l-.2-.12c.19.52-.11-.03.06.53.24.08.25-.2.5-.11.05-.19-.03-.28.02-.47.35-.35.29.84.54.39.06-.23.1-.65.28-.42l-.07.38c.23.04.15-.56.39-.28-.05.15-.19.12-.16.16.15.31.12-.21.25-.2v.34c.26-.04.56-.26.85-.29-.03.1-.09.2-.03.31.37-.13.75.14,1.03.41l.18-.26s.03.14-.02.19c.11.14.04-.18.13-.28.08,0,.06.19,0,.26.28-.2.79-.37.95,0l-.07.07c.15.17.38-.52.48-.2l-.05.04c.37.24.92.14,1.08.67.21-.38.33.32.57-.21.12.36.02.43.26.75.06.06.3-.27.37-.31l-.13.28c.06-.09.13-.18.21-.26-.05.11-.11.22-.17.33l.07-.05s.06-.13.11-.2c.17-.08,0,.24-.15.34.09-.05.21-.1.34-.13-.12.06-.19.09-.28.14.37-.18-.33.2,0,.04.07-.04.21-.11.28-.14-.18.12-.16.14,0,.12l-.3.09c-.06.03.23,0,.3.04.17-.03.86-.1.98-.08l-.62.06c.42-.02.2-.04.74-.05-.01.04-.72.06-.94.07h.26c-.2.01-.31.02-.57.03.44,0-.68.03.1.02h-.22s.3.03.39.06c.75.07.61.07,1.27.16-.16.02-.76-.04-.64,0,.68.13.77.15,1.33.25-.81-.14-.67-.09-1.3-.22.29.09.36.11.78.24.35.08.51.11.79.17.09.03-.43-.08-.8-.17l-.07-.02s.07.02.1.03c.31.1-.39-.04-.88-.15-.5-.12-.8-.22-.24-.01l-.06-.02c.19.07.35.15.5.23-.15-.03-.37-.15-.75-.28.4.17.3.16.2.14-.11-.02-.21-.06-.04.06-.62-.31-.59-.3-.57-.26.03.04.03.12-.18-.09l.15.16c.12.16-.1-.09-.13-.13.1.13.13.14.2.23-.03.11-.21.07-.38-.02-.39-.05-.8-.15-1.2-.16-.29,0,.01.93-.41.58l.04-.34c-.47.49-1.14.21-1.59.68.01-.08,0-.18.04-.19-.17-.21-.42.09-.37.28-.09,0-.06-.17-.14-.25-.15-.11-.2.37-.33.16-.02-.03.01-.08.03-.11-.04.13-.35.07-.21.31-.24-.07-.35.22-.55.12-.01.33-.38-.03-.28.39-.12-.43-.46-.24-.52,0,0-.14-.15-.1-.17-.29-.14.06-.24.18-.14.39-.45-.41-.37.59-.76,0-.33.39-.64.7-.96.96-.17-.42.38-.22.18-.65-.28.33-.32.76-.7.83-.11-.01-.04-.2-.04-.29-.26.34-.68.29-.86.67-.02-.04,0-.1,0-.14-.05.05-.17.02-.06.19l.03-.08c.23.21.07.67.14.82-.19-.57-.36.03-.57-.7-.02.06-.02.17.06.28-.08,0-.14-.06-.16-.23-.15.22.03.36-.15.47-.05-.09-.03-.14-.08-.25,0,.22.02.45-.18.47-.02-.06-.08-.11-.04-.14-.25.19-.17.71-.55.75-.16-.41-.18-.05-.41-.34l-.09.2.17.1c-.14.09-.09.38-.27.37v-.2s-.19.24-.19.24h.22c-.01.26.3.37.07.42,0-.06-.13.09-.33-.03h0c.01.14.03.29-.12.29-.1-.07-.24-.34-.31-.38.13.29-.23.31-.09.63-.03-.08-.15-.23-.19-.25l.12.23c-.11-.01-.14-.04-.24-.16-.2.11.36.31.03.33,0-.03-.03-.05-.02-.11-.27.09-.27.46-.53.54-.31-.22.09-.22-.19-.39-.21.3-.21.83-.5,1.02l.07-.02c.36.4-.36,0-.3.3,0-.06-.18-.24-.15-.19-.23.11-.22.45-.31.83l-.08-.12c-.18.03-.29.23-.42.32.08.12.01.17.2.25-.91-.09-.17.94-.92.92.03-.04-.04-.16-.06-.13l-.08.36c.21.1.14.03.34.07.09.11.13.24.09.31-.06-.21-.32-.19-.46-.2.07.03.12.09.19.12-.44-.05.39.26.03.33l-.1-.07c0,.11.11.26.03.33-.25-.09-.06-.14-.25-.26-.06.13.31.48.02.46-.04-.09,0-.16-.04-.25-.34-.03-.28.02-.37.09h.01s-.23.15-.23.15l.1-.02c.55.46-.04.38.27.78-.3-.38-.21-.14-.48-.28-.1.02-.23.07-.3,0,.18.2-.25.1.02.39-.09-.03-.05.11-.27,0,.02.17.17.03.28.09.23.33-.59.36-.25.83.09.33.39.47.47.75-.17.04-.32-.16-.32-.16-.18.09-.17.21-.1.36-.08-.05-.15-.04-.27-.03,0,.11.33.15.16.26-.1-.05-.26-.12-.36-.19.06.15.21.31.26.45-.17,0-.23-.13-.33-.2.03.16.07.41.33.5l.11-.07c0,.05-.23-.02-.27-.06-.19-.17.13-.16.22-.15l.04.1c.58.03,0-.37.07-.55l.39.17-.29-.26c.11-.01.35.02.38.12.23-.07-.12-.15.13-.19.04,0,.06,0,.07.02l-.09-.15c.08.05.29.06.21.12.3-.14-.19-.43.14-.41l.02.03c-.04-.33-.28-.12-.55-.46l.76.1-.28-.13s.07-.08.18-.02c-.15-.18-.13-.03-.29-.16.32-.04.04-.44.5-.29-.19-.14-.22.07-.31-.15.5.16-.02-.21.26-.25.23.15.05.21.32.18-.38-.26.21-.2.18-.34-.33-.16-.03-.29-.05-.52.1.07.36-.23.56-.32l.05.03c-.3-.21-.15-.34-.15-.5.18.12.25.18.3.3l.06-.11c-.08-.09-.12-.15-.11-.24l.22.17c.08-.15-.09-.46.18-.54-.2-.16-.69-.25-.7-.55.12.07.32.2.33.28,0-.03-.06-.13.02-.13l.14.21c.14-.03-.13-.15-.07-.21.16.11.15.03.27.13,0,.03-.11,0-.06.08.08-.05.24-.07.38-.01-.1-.06-.22-.15-.2-.22.09-.14.23.09.37.07-.09-.11.09-.11-.14-.29.03-.04.15.04.22.07-.06-.15.22-.34-.09-.46h-.03s0,0,0-.01h0s0,0,0,0c-.04-.41.51-.36.6-.66l.07.07c.03-.2.21-.32.14-.56.04-.04.21.04.28.13.04-.15-.04-.24.22-.25.03.21.14.08,0,.18.18-.06.32.03.26-.29.13.22.31.14.32.03l-.21-.05c.04-.09.11-.13.18-.17l.2.27c.51.07,0-.92.64-.58-.08-.24-.25,0-.36-.26.15-.07.58.19.62.16.28.01-.15-.5.11-.54-.09-.08-.31-.31-.24-.5.16-.07.46.28.43.41-.02.03-.06.01-.08-.02-.01.07-.04.15.09.21l-.06-.11c.13.05.3-.09.37.09.03-.16-.08-.19-.18-.18.26.02.26-.18.49-.2-.06-.03-.17-.13-.14-.15.33-.06-.02-.26.12-.43.2.08.2.38.3.14.17.03.19.25.21.36.03-.29.37-.06.48-.08l-.03.13c.02-.08.06-.1.1-.13l-.17-.17c.07,0,.11-.02.16.06-.03-.16-.25-.31-.26-.56.13.06.14-.24.32.02-.27.03.18.26.03.41.01-.05.06-.08.13-.07.03.03.03.06.02.08.34.13-.09-.36.12-.47.06.17.21.27.23.21-.08.04-.19-.24-.17-.4.2.04.1-.17.18-.2h-.11c-.06-.18.02-.2.1-.3.07.12-.05.13.02.17-.03-.33.4.16.45-.1.12.07.16.29.25.34.07-.29.28.13.38-.13-.15-.19-.14-.14-.11-.4-.08.09-.15.19-.22.29l.04-.41c-.09.04-.12.23-.19.22,0-.22.02-.16-.11-.32.28.26.16-.31.41-.16l.24.54c.32.15.25-.45.59-.43l-.13-.06c-.05-.23.16-.1.22-.23.07.19.15.23.24.33-.06-.13.21-.07.09-.45l.22.19c.27,0,.07-.62.32-.65,0,.23.15.32.06.52.08-.02.15-.01.11-.14.08.1.12-.33.25-.17,0-.09-.05-.29.04-.31.02.03.03.09.03.09-.03-.09.09-.17-.05-.35.43.51.65-.26,1.02.19.15-.11.34-.23.49-.29,0,.06.03.1,0,.08.26.12-.02-.59.28-.45.2.28-.09.2.02.3.2.62.27-.16.53.17l-.03.05c.18.19.24-.32.46-.31,0,0,0,.06.02.1.07-.35.31-.52.5-.65-.01.26-.06.15.03.4.08-.06-.11-.4.06-.51.09.13.24.22.31.49l-.17.05c.15.33.21-.05.32,0l.02.16c.25-.1.18-.48.47-.51l-.05-.11c.09-.41.17.19.27-.12l.11.38c.08-.11.29-.43.47-.54-.06.31-.25.49-.35.68.1-.01.33-.08.36-.28-.03.04-.07.15-.12.09.07-.33.22-.5.47-.53.08.38.29.4.52.4.24,0,.49-.03.82.24.39-.31,1.31,0,2.13-.08-1.14-.52.2-.03-.79-.58.08-.04.14-.04.22,0,.35.1.72.2,1.12.3.47.15.09.13.35.25.51.02.66.22,1.3.36-.5-.19-.48-.29-.04-.22l-.94-.24c-.06-.16.32-.05.74.06.41.11.88.22.8.06l.27.18c.04-.11,1.32-.05.13-.49.26.06.84.21.83.25.77.03.33-.29.63-.33-.07-.05-.03-.08.18-.06l.52.13c-.21-.08-.98-.27-.55-.22.19.04.48.12.48.1-.09-.03-.3-.1-.49-.16-.19-.07-.37-.14-.3-.15l.58.16c.01-.22-1.88-.69-2.46-.92,1.1.16,1.05-.04,1.01-.14l.15.02c-.5-.38-1.8-.68-2.58-.95.57-.22-.69-.65-.87-1.06-.02.08-.49.12-.64.09-.02-.11-.72-.04-.2-.22l.04.03c.39-.24-.03-.36-.25-.48l-.59.29c.13-.36-.35-.54-.75-.63-.41-.1-.72-.15-.75-.53-.14.08-.25.04-.39.12l.11-.26c-.22-.17-.34-.25-.68-.31l.14-.16c-.17-.09-.51.68-.68.64l.09-.42c-.31-.11-.52-.56-.95-.3.02-.06.07-.17.13-.17-.15-.05-.51-.45-.61.13.1-.37-.32-.12-.53,0l.09-.26c-.23.31-.26.4-.48.45-.04-.05,0-.23.06-.14-.13-.18-.18.23-.34.04l.11-.16c-.16-.06-.17.04-.3.22-.12.09-.3-.13-.28-.38-.05.15-.18.33-.26.24,0-.1.05-.15.07-.17-.25-.24-.46.26-.62-.04,0-.09,0-.14-.01-.17.22.04.4.08.38.1.04-.25-.14-.32.06-.65-.18.17-.49.55-.65.41,0-.03-.01-.05-.01-.09l.02-.03s-.08,0-.12.03c-.05-.05-.09-.08-.14-.09,0-.21-.2-.14-.3-.15-.01.28-.13.23-.03.47-.01-.02.02-.03.08-.04.01,0,.03,0,.04-.03v.02c.05,0,.13,0,.22,0-.09.13-.17.25-.26.08-.06.18-.13.36-.16.44-.09-.4-.32-.62-.35-.87-.29.14-.68.09-.85.61-.08.07-.09-.15-.12-.23.04-.05.1-.05.12-.12-.16.14-.47.07-.49.44-.21-.16.1-.35-.17-.27l.03-.12c-.61-.55-.78,1-1.46.34.05.04.07.06.09.12-.75-.22-1.28.58-2.07.29-.22-.04-.16.19-.21.4l-.14-.27-.06.4c-.15.33-.75-.49-.88.11l.13.16c-.14.02-.3.29-.4.07,0,.04.06.21-.03.14l-.08-.14-.14.39c-.27.03-.28-.56-.62-.39-.09.13-.08.59.03.65.05-.02.17,0,.26.14l-.05.13c.24.4.45.83.84.97v-.33s.16.16.16.16l-.12.09c.18.14.13-.05.11-.19.07.1.14.15.19.17l-.07-.47c.11.15.11.35.26.38-.03-.22-.27-.32-.21-.5.18.14.24.31.24.1.07.1.08.18.08.24,0-.17.17-.16.11-.4.19.2.25-.19.42.21-.02-.11,0-.38.07-.43.07.54.3-.09.47.46-.07-.49.29-.33.39-.64,0,.04,0,.12-.02.1.12,0,.19.13.28.2-.1-.38.04-.51.07-.77.23.33.04.47.18.8-.09-.3.14-.37.03-.61.16.2.12.09.24.39-.1-.48.07-.1.09-.41.2.2.14.44.26.26.1.13,0,.33,0,.33ZM51.66,57.32h0s-.07.01-.09.01c.02,0,.04,0,.09-.01ZM52.01,57.36s-.09-.03-.15-.03c0-.1.03-.2.06-.19-.03.06.05.13.09.22ZM51.45,55.34c.07-.03.08.02.08.08-.03,0-.06,0-.11.02v.03c0-.05.01-.1.03-.14Z"/>
      <path class="cls-1" d="M51.31,55.7s-.02.02-.03.02c.01.03.02.05.03.07l.03-.09h-.03Z"/>
      <path class="cls-1" d="M42.69,68.54h0s-.03,0-.04-.01c.01,0,.02,0,.03.01Z"/>
      <polygon class="cls-1" points="56.38 59.19 56.41 59.13 56.38 59.18 56.38 59.19"/>
      <path class="cls-1" d="M40.75,69.65s-.05-.02-.08-.01c.02,0,.04.01.08.01Z"/>
      <path class="cls-1" d="M40.26,70.41l-.15.07c.08-.02.12-.05.15-.07Z"/>
      <path class="cls-1" d="M39.83,70.98s.07.05.1.06h0s-.11-.06-.11-.06Z"/>
      <path class="cls-1" d="M47.24,62.84s.01-.01.02-.02c.03-.08,0-.04-.02.02Z"/>
      <path class="cls-1" d="M44.86,65.2c0-.06,0-.12,0-.17-.06.02-.1.04,0,.17Z"/>
      <polygon class="cls-1" points="50.52 61.05 50.52 61.05 50.54 61.05 50.52 61.05"/>
      <path class="cls-1" d="M44.98,64.94c-.08,0-.11.03-.12.09.05-.01.11-.03.12-.09Z"/>
      <path class="cls-1" d="M38.76,73.87l-.02.03s.03,0,.04.01l-.03-.04Z"/>
      <path class="cls-1" d="M38.79,73.91l.03.04s0-.03-.03-.04Z"/>
      <path class="cls-1" d="M38.87,74.05l-.06-.09s-.02.06.06.09Z"/>
      <path class="cls-1" d="M39.11,72.98l-.1-.04s.05.02.1.04Z"/>
      <path class="cls-1" d="M39.16,72.7c-.04.06-.27.1-.22.21l.08.03c-.14-.09.29-.14.15-.24Z"/>
      <path class="cls-1" d="M40.72,72.04l-.16.17c.12,0,.27,0,.26.11.4-.13-.25-.03-.1-.28Z"/>
      <path class="cls-1" d="M41.13,71.49c0,.12.14.06.2.1-.06-.11-.07-.13-.2-.1Z"/>
      <path class="cls-1" d="M43.86,67.54l.18.19c.03-.09-.07-.07-.18-.19Z"/>
      <polygon class="cls-1" points="43.62 65.92 43.44 65.87 43.57 66.07 43.62 65.92"/>
      <polygon class="cls-1" points="45.26 66.9 45.25 66.96 45.3 66.79 45.26 66.9"/>
      <path class="cls-1" d="M52.22,63.09l-.12-.29c-.04.07.05.41.12.29Z"/>
      <path class="cls-1" d="M55.6,61.97c.06.15.18.23.22.07-.08,0-.18-.12-.22-.07Z"/>
      <polygon class="cls-1" points="58.99 57.63 59.21 57.62 58.91 57.57 58.99 57.63"/>
    </g>
    <g>
      <path class="cls-1" d="M109.23,48.16c.04-.08.08-.27,0-.25l-.12.31.12-.07Z"/>
      <path class="cls-1" d="M108.94,47.48c-.11.14-.26.4-.27.71.14-.3.13-.16.29-.52.07-.02.09.13.05.24.04-.08.08.09.16-.1-.03-.27-.13-.3-.29-.11,0-.08.03-.16.05-.21Z"/>
      <path class="cls-1" d="M102.53,46.24l.04.04s-.03-.03-.04-.04Z"/>
      <path class="cls-1" d="M98.44,46.28s.04-.05.04-.08c-.03.03-.05.05-.04.08Z"/>
      <path class="cls-1" d="M97.7,46.01s.03.01.04.02c-.02-.03-.04-.04-.04-.02Z"/>
      <path class="cls-1" d="M102.53,46.24l-.11-.1c0,.11.06.08.11.1Z"/>
      <path class="cls-1" d="M107.91,48.08s.05-.04.07-.07c-.02.01-.04.02-.06.02v.05Z"/>
      <path class="cls-1" d="M104.34,46.04h.03s.02-.08.04-.13l-.07.13Z"/>
      <path class="cls-1" d="M105.73,46.1s-.07.26-.1.38c.03-.11.06-.16.09-.18,0-.05,0-.12,0-.2Z"/>
      <path class="cls-1" d="M107.82,46.9l.04-.03s-.03.02-.04.03Z"/>
      <path class="cls-1" d="M103.35,45.91s0-.08,0-.1c0,.04,0,.07,0,.1Z"/>
      <path class="cls-1" d="M82.57,45s.03.02.04.03c-.02-.02-.03-.04-.04-.03Z"/>
      <polygon class="cls-1" points="84.7 44.74 84.69 44.77 84.8 44.88 84.7 44.74"/>
      <path class="cls-1" d="M96.36,45.85h0s.01-.02,0,0Z"/>
      <path class="cls-1" d="M85.25,50.1c.24.15-.03.38.29.53-.07-.09-.06-.47-.29-.53Z"/>
      <path class="cls-1" d="M107.88,48.04s-.04,0-.05,0c.02.01.04.02.05,0Z"/>
      <path class="cls-1" d="M85.54,50.63h0s.03.02.03.02c-.01,0-.02,0-.03-.02Z"/>
      <path class="cls-1" d="M93.47,46.67s.04.08.06.11c0-.03-.02-.06-.06-.11Z"/>
      <path class="cls-1" d="M95.72,46.55l-.06-.03s.05.03.06.03Z"/>
      <path class="cls-1" d="M92.47,47.37s-.06-.05-.08,0c0,.01.02.02.02.03,0-.04.02-.06.06-.03Z"/>
      <path class="cls-1" d="M91.34,47.73s.03.03.04.05l.03-.03-.07-.02Z"/>
      <path class="cls-1" d="M80.54,48.17c.08.01.17.04.25.07-.18-.08-.16-.28-.25-.07Z"/>
      <path class="cls-1" d="M107.94,47.93c-.02.07-.04.1-.06.11.01,0,.03,0,.04,0,.01-.04.02-.08.02-.1Z"/>
      <path class="cls-1" d="M93.07,49.5h-.18c.06.03.12.02.18,0Z"/>
      <path class="cls-1" d="M77.88,58.9l-.05.06s0,.02.05-.06Z"/>
      <path class="cls-1" d="M92.41,49.72c-.06-.08-.11-.13-.16-.15,0,.02,0,.04,0,.08l.15.08Z"/>
      <path class="cls-1" d="M80.79,48.25h0s0,0,0,0Z"/>
      <path class="cls-1" d="M80.9,46.79c-.11.15.25.27.41.42-.03.24-.28-.06-.49-.1,0,.17.24.44.18.52-.06-.02-.09-.02-.14-.08.18.28-.22.38.02.71-.03,0-.06-.01-.09-.03.17.07.34.16.45.23-.03.07.13.24-.09.15.03-.04-.05-.09-.11-.15l.05.13c-.34-.1-.05-.16-.27-.29.02.2.18.51.03.57-.31-.14.04-.32-.31-.31l.21-.11c-.54-.12.09-.09-.48-.24-.21.19,0,.34-.2.54.14.14.26.11.4.25.14.48-.9-.11-.61.34.17.16.55.37.26.45l-.32-.22c-.14.22.44.36.1.5-.12-.1-.03-.24-.09-.22-.35.04.15.2.1.32l-.32-.11c-.03.14-.02.3,0,.47l.02.25c0,.11-.02.22-.05.32-.09-.05-.16-.15-.31-.07-.02.6-.45,1.2-.83,1.88.09.04.19.07.29.09-.02.05-.17.15-.23.12-.18.27.21-.08.32-.03,0,.1-.23.25-.32.21.18.29.42.59-.02,1.23h-.09c-.19.43.66-.29.3.23h-.06c-.23.74,0,.95-.58,2.08.49-.6-.3.92.4-.04-.39.85-.51.94-.81,1.86-.05.2.42-.49.53-.61l-.4.68.46-.64-.51.95.12-.11c.02-.08.19-.42.32-.64.15-.17.04.13-.16.56-.06.17-.15.38-.24.55l.92-1.23c-.18.34-.33.54-.51.83.73-1.12-.39.82.28-.22.05-.15.26-.5.34-.67-.12.37.21.06.51-.33l-.27.55c.38-.29,1.02-1.09,1.49-1.52-.12-.03.15-.78.28-.95l-.12.56c.18-.44-.06-.11.22-.71.13-.06-.06.57-.22.86l.26-.39c-.03.16-.1.29-.17.53.16-.42.3.18.54-.53v.14c.51-.48.75-.84,1.15-1.22-.04-.33.12-.4.16-.73.26-.1.66-.13,1-.4.05-.21-.1-.22-.14-.4.16.2.33.05.34.26.2-.19.25-.24.41-.62-.09-.06-.15-.08-.18-.16.03-.07.18,0,.24.11v.03c.1-.56,1.17.14,1.13-.48v.03s.12-.41.12-.41c.15-.04.03.21.2.29.07-.55.49-.24.59-.63.57.55.66-.42,1.16-.14l-.1-.15c-.01-.19.13.05.2.05-.07-.12-.15-.1-.15-.21.47-.52,1.32-.37,1.98-.5.24-.06-.25-.9.2-.64l.05.34c.29-.57.93-.36,1.26-.85,0,.08.04.17,0,.19.18.19.35-.13.29-.31.08,0,.08.16.16.24.14.1.13-.38.27-.18.02.03,0,.08-.01.11.02-.14.3-.07.15-.32.22.07.29-.22.48-.11,0-.32.34.05.24-.38.13.43.41.25.46.01,0,.14.14.1.15.3.12-.05.21-.16.12-.38.38.44.35-.56.67.08.31-.33.62-.58.94-.77.09.44-.37.14-.24.6.27-.26.37-.69.72-.66.1.04,0,.2-.01.29.28-.26.64-.08.88-.38,0,.04-.02.09-.04.13.05-.03.15.04.1-.16l-.05.07c-.15-.27.11-.65.09-.81.01.6.32.09.3.85.03-.05.06-.15.03-.28.06.03.1.1.07.27.19-.15.07-.35.26-.38.02.1-.02.14-.01.26.06-.21.13-.42.3-.37,0,.06.03.13-.02.14.26-.08.39-.57.72-.43-.03.44.12.13.19.5l.15-.13-.09-.17c.14-.01.24-.3.37-.19l-.09.17.26-.1-.17-.12c.12-.21-.07-.47.13-.39-.03.04.15-.01.24.2h0c.06-.13.12-.26.24-.18.04.12.02.41.04.49.04-.33.33-.11.39-.45-.02.08,0,.28,0,.31l.04-.26c.07.08.09.12.09.27.2.03-.1-.47.15-.28-.02.02,0,.06-.04.1.25.09.45-.19.68-.08.09.37-.19.1-.09.42.31-.09.63-.5.94-.42l-.06-.04c.03-.53.24.26.38.01-.04.04-.04.29-.03.24.21.09.42-.13.75-.3l-.04.14c.12.12.33.07.46.13.04-.14.12-.11.08-.31.39.76.81-.39,1.14.28-.04,0-.11.11-.08.12l.32-.11c0-.23-.03-.14-.09-.33.05-.13.14-.23.22-.23-.15.14-.02.37.03.5,0-.07.02-.15.02-.22.13.42.06-.46.27-.17l-.02.12c.09-.06.18-.21.27-.17.01.27-.1.12-.12.34.13,0,.3-.49.39-.22-.06.07-.14.07-.2.14.1.32.12.24.2.3h0s.2.16.2.16l-.04-.09c.23-.67.33-.08.6-.51-.26.4-.06.24-.12.54.04.09.11.19.08.28.13-.23.14.21.32-.12,0,.1.1.02.05.26.14-.06,0-.17.02-.29.25-.3.41.46.76.05.28-.16.38-.46.64-.58.05.17-.13.34-.13.34.1.17.2.16.33.07-.04.08-.03.15-.01.27.1,0,.13-.34.23-.17-.04.1-.1.27-.17.37.13-.07.27-.22.4-.29,0,.17-.12.24-.18.34.14-.05.36-.08.46-.34l-.06-.11s-.02.23-.07.27c-.15.18-.14-.12-.13-.22l.09-.04c.03-.58-.35.02-.5-.04l.15-.39-.23.3c-.02-.11,0-.35.1-.39-.08-.23-.13.12-.19-.12,0-.04,0-.06.02-.07l-.14.1c.04-.08.03-.29.09-.22-.17-.28-.39.24-.42-.08l.02-.02c-.32.1-.08.3-.35.62l-.03-.76-.07.3s-.09-.05-.06-.16c-.14.19,0,.13-.09.32-.11-.29-.42.08-.39-.41-.08.22.12.2-.06.34.02-.52-.19.06-.3-.19.07-.26.18-.1.08-.36-.14.44-.25-.13-.38-.06-.04.36-.26.11-.47.22.02-.12-.34-.22-.51-.37v-.06c-.05.36-.23.28-.37.35.02-.22.05-.3.13-.4h-.13c-.04.11-.08.17-.17.2l.05-.27c-.17,0-.36.3-.57.1-.02.26.14.72-.09.88,0-.14,0-.38.06-.43-.02.02-.07.11-.11.05l.1-.23c-.09-.11-.06.19-.14.16,0-.2-.05-.14-.04-.3.02-.02.07.09.1.01-.09-.04-.19-.17-.22-.32,0,.11,0,.26-.08.29-.17.01-.05-.24-.15-.34-.04.14-.15,0-.16.29-.05,0-.06-.14-.07-.22-.09.13-.41.04-.32.35l.02.02h-.01s0,.01,0,.01h0c-.29.29-.59-.17-.88-.04v-.1c-.17.11-.38.06-.49.28-.05,0-.12-.17-.11-.29-.13.08-.14.19-.33.04.12-.18-.05-.15.13-.13-.17-.07-.22-.23-.39.05.05-.26-.15-.31-.22-.23l.13.17c-.09.04-.17.03-.25,0l.02-.33c-.38-.38-.57.73-.9.07-.07.24.2.15.14.43-.16-.04-.37-.5-.42-.49-.24-.16-.15.51-.39.41.04.11.1.43-.05.56-.16-.02-.25-.47-.16-.58.04-.01.06.02.06.06.05-.05.11-.11.03-.23v.12c-.1-.11-.32-.07-.29-.27-.11.13-.03.2.07.25-.23-.14-.32.04-.55-.05.04.06.09.19.06.2-.33-.11-.1.24-.3.32-.14-.16-.02-.43-.21-.26-.15-.1-.07-.31-.04-.41-.16.25-.38-.1-.5-.12l.09-.11c-.05.07-.1.08-.15.08l.1.22c-.07-.03-.12-.02-.13-.12-.03.16.11.38.03.61-.1-.1-.21.17-.3-.13.27.06-.08-.31.12-.4-.03.04-.08.05-.15.02-.02-.03,0-.07.01-.09-.29-.23-.05.37-.29.41,0-.18-.12-.32-.15-.28.1-.02.1.28.04.43-.18-.11-.15.13-.23.13l.11.05c0,.18-.08.17-.18.25-.04-.13.08-.11.03-.16-.06.33-.34-.26-.46-.03-.1-.1-.08-.32-.16-.39-.14.26-.26-.19-.42.04.11.22.11.16.02.42l.29-.25-.13.39c.1-.02.17-.2.24-.17-.06.21-.06.15.03.33-.21-.32-.21.27-.42.07l-.13-.58c-.3-.2-.34.4-.68.33l.12.07c.02.24-.18.08-.25.2-.04-.19-.12-.25-.19-.36.04.14-.22.04-.15.43l-.2-.22c-.27-.04-.12.61-.37.62,0-.23-.14-.33-.03-.53-.08.02-.16.01-.12.14-.08-.1-.13.32-.26.17,0,.09.04.29-.05.31-.02-.04-.03-.09-.03-.09.03.09-.09.17.05.35-.42-.51-.63.25-1-.19-.14.12-.33.23-.47.31-.01-.06-.03-.09,0-.08-.27-.09.07.58-.23.48-.23-.25.06-.21-.05-.29-.26-.6-.25.19-.54-.1l.02-.05c-.2-.16-.2.34-.41.38,0,0-.01-.06-.04-.09,0,.36-.22.56-.37.72-.04-.26.03-.16-.1-.38-.07.07.19.37.05.5-.11-.1-.27-.16-.4-.41l.15-.09c-.22-.29-.2.1-.3.08l-.05-.15c-.22.16-.06.52-.32.61l.08.1c.03.42-.21-.14-.22.18l-.21-.34c-.05.13-.16.49-.28.63-.04-.31.09-.53.13-.74-.09.04-.3.17-.26.37.02-.05.02-.16.09-.12.02.33-.05.54-.23.61-.32-.71-.54.07-.94-.39-.18.42-.68.23-1.02.47.42.45-.1.07.23.59-.06.08-.1.09-.13.06-.15-.06-.29-.12-.43-.17-.15-.12,0-.16-.07-.28-.2.07-.21-.18-.41-.24.14.17.1.31-.05.3l.29.15c-.08.44-.48-.3-.57.13l-.02-.21c-.07.18-.49.3-.35.79-.06-.04-.18-.17-.15-.24-.36.13-.4.87-.79.79l-.06-.14c-.03.08.06.3-.09.23-.03-.05-.06-.14-.09-.13,0,.06,0,.32-.12.3l-.04-.18c-.2.03-.25.19-.28.38-.01.18.09.33.03.44-.2-.4-.3-.5-.32-.57v-.07c-.03-.05-.06.5-.25.88.03-.32.02-.38-.01-.38-.02,0-.08.04,0-.2-.06.15-.28.67-.34.78.06-.16-.36.7.03-.14h0c.36-.8.24-.57.24-.57l-.6,1.19c.31-.66.31-.67.19-.5-.15.22-.57.86.08-.23-.24.38-.22.32-.44.64l.47-.74c.13-.24.18-.33.08-.23l.32-.44c-.12.16-.35.46-.64.85-.33.43-.66.84-.67.81l.67-.87c.01-.13.58-.75.02-.25.08-.08.22-.21.29-.28.03-.07.43-.44-.39.25.53-.45.07-.11-.13-.06l.37-.24c-.47.28-.6.34-.69.31.06-.05.29-.18.19-.1.21-.17-.32.11-.1-.09l.21-.07c.05-.09-.07-.02-.31.02-.12-.02.14-.23.44-.29-.18.04-.39.03-.29-.04.11-.02.17-.01.2-.01.25-.13-.28-.2.05-.29.09.01.14.01.17.01-.04.09-.08.16-.1.16.28-.02.34-.05.71-.03-.21.02-.61-.13-.46-.18.03,0,.05,0,.09.02h.03s.01,0-.03-.03c.04,0,.09-.02.11-.06.2.06.17-.12.21-.19-.26-.1-.18-.18-.43-.18.02,0,.03.03.02.08,0,.01,0,.03.01.04h-.02s-.03.1-.05.17c-.11-.11-.2-.22-.02-.24-.15-.11-.31-.22-.38-.28.4.05.68-.06.92.01-.05-.28.13-.55-.27-.92-.03-.09.17,0,.26,0,.03.06,0,.1.06.15-.06-.18.13-.39-.18-.58.23-.08.26.24.31,0l.09.08c.74-.12-.46-1.14.47-1.2-.06,0-.09.01-.14-.01.58-.33.42-1.22,1.2-1.38.18-.07,0-.22-.07-.41l.26.16-.16-.35c-.04-.36.84.14.68-.4l-.18-.1c.1-.06.15-.35.31-.18-.02-.03-.13-.17-.02-.13l.12.1v-.39c.22-.08.43.45.66.25.03-.12-.1-.56-.21-.6-.04.03-.15.02-.27-.09l.02-.14c-.32-.34-.59-.75-1.02-.77l.07.34-.21-.11.11-.13c-.22-.08-.13.1-.08.23-.1-.07-.18-.11-.24-.11l.19.44c-.15-.11-.2-.31-.37-.28.09.21.36.21.36.41-.22-.07-.33-.21-.27,0-.1-.07-.14-.14-.15-.21.04.17-.13.24.02.44-.26-.1-.17.29-.5,0,.06.09.15.36.11.44-.3-.46-.24.25-.65-.14.29.39-.12.48-.03.82-.02-.03-.07-.1-.04-.1-.1.08-.24.02-.36.03.31.24.27.45.41.67-.4-.1-.32-.34-.65-.51.26.18.11.4.36.51-.26-.04-.15.02-.45-.12.39.29,0,.14.21.38-.29,0-.41-.22-.38.02-.18,0-.23-.24-.23-.24ZM79.64,51.14h0c.01-.05.02-.09.03-.12,0,.03-.01.06-.02.12ZM79.49,51.61c.03-.06.05-.13.08-.2.1,0,.2.03.18.07-.06-.03-.15.07-.26.13ZM81.63,51.41c.02.06-.04.06-.1.04,0-.02,0-.05,0-.1l-.03-.02s.09.05.12.07Z"/>
      <path class="cls-1" d="M81.33,51.19s-.01-.02-.01-.03c-.03,0-.05,0-.07,0l.07.05v-.03Z"/>
      <path class="cls-1" d="M102.58,46.29h0s.01.02.02.03c0-.01,0-.02,0-.03Z"/>
      <polygon class="cls-1" points="77.66 58.91 77.75 58.75 77.67 58.86 77.66 58.91"/>
      <path class="cls-1" d="M104.43,47.33s0,.05.02.07c0-.02,0-.04-.02-.07Z"/>
      <path class="cls-1" d="M105.23,47.44l.1.11c-.04-.06-.08-.09-.1-.11Z"/>
      <path class="cls-1" d="M105.83,47.66s.02-.08.03-.12h0s-.03.12-.03.12Z"/>
      <path class="cls-1" d="M96.13,48.39s-.02,0-.02.02c-.04.06-.01.04.02-.02Z"/>
      <path class="cls-1" d="M98.92,47.3c-.03.05-.05.11-.08.14.05.01.1.02.08-.14Z"/>
      <polygon class="cls-1" points="93.09 49.5 93.09 49.49 93.07 49.5 93.09 49.5"/>
      <path class="cls-1" d="M98.7,47.45c.06.05.1.03.14-.01-.04-.01-.1-.04-.14.01Z"/>
      <path class="cls-1" d="M108.44,48.22l.03.02s0-.03.01-.04l-.04.03Z"/>
      <path class="cls-1" d="M108.48,48.19l.04-.03s-.03,0-.04.03Z"/>
      <path class="cls-1" d="M108.6,48.11l-.08.06s.05.02.08-.06Z"/>
      <path class="cls-1" d="M107.67,47.93l-.03.1s.02-.05.03-.1Z"/>
      <path class="cls-1" d="M107.42,47.91c.05.03.11.24.2.2l.02-.08c-.06.14-.14-.28-.22-.12Z"/>
      <path class="cls-1" d="M106.57,46.51l.2.11c-.02-.11-.05-.26.05-.28-.23-.36.02.25-.25.17Z"/>
      <path class="cls-1" d="M105.92,46.27c.12-.03.02-.16.03-.22-.09.09-.11.11-.03.22Z"/>
      <path class="cls-1" d="M101.06,46.07v-.26c-.09.04,0,.1,0,.26Z"/>
      <polygon class="cls-1" points="100.21 47.45 100.31 47.6 100.33 47.37 100.21 47.45"/>
      <polygon class="cls-1" points="99.54 45.67 99.57 45.63 99.43 45.73 99.54 45.67"/>
      <path class="cls-1" d="M91.46,47.43l.13.29c.04-.07-.06-.41-.13-.29Z"/>
      <path class="cls-1" d="M88.27,49.04c-.1-.13-.23-.18-.22-.01.08-.01.21.06.22.01Z"/>
      <polygon class="cls-1" points="81.5 52.59 81.64 52.34 81.52 52.56 81.5 52.59"/>
    </g>
  </g>
</svg>